<svg preserveAspectRatio="none" width="100%" height="100%" overflow="visible" style="display: block;" viewBox="0 0 62.7698 24.0343" fill="none" xmlns="http://www.w3.org/2000/svg">
<path id="Ellipse 28" d="M31.3848 1.90332C39.8796 1.90332 47.4847 3.2248 52.8965 5.29688C55.6089 6.33543 57.6736 7.52635 59.0264 8.75098C60.3788 9.97539 60.8662 11.0826 60.8662 12.0176C60.8661 12.9525 60.3785 14.059 59.0264 15.2832C57.6736 16.5078 55.6089 17.6987 52.8965 18.7373C47.4847 20.8094 39.8796 22.1309 31.3848 22.1309C22.8899 22.1308 15.2848 20.8094 9.87305 18.7373C7.16067 17.6987 5.09692 16.5078 3.74414 15.2832C2.3917 14.0589 1.90347 12.9526 1.90332 12.0176C1.90332 11.0825 2.39146 9.97552 3.74414 8.75098C5.09692 7.52636 7.16068 6.33543 9.87305 5.29688C15.2848 3.22476 22.8899 1.90334 31.3848 1.90332Z" fill="var(--fill-0, #F43F38)" stroke="var(--stroke-0, black)" stroke-width="3.80682"/>
</svg>
