<svg preserveAspectRatio="none" width="100%" height="100%" overflow="visible" style="display: block;" viewBox="0 0 413.04 413.101" fill="none" xmlns="http://www.w3.org/2000/svg">
<g id="Group 50">
<g id="Union">
<mask id="path-1-inside-1_450_10887" fill="white">
<path d="M266.473 0C321.051 1.12313e-05 368.005 38.5539 377.842 92.2383C394.574 183.551 416.734 313.286 412.517 338.552C409.068 359.215 403.579 375.428 399.099 386.239C395.032 396.052 385.191 401.619 374.569 401.619H33.2164C25.7973 401.619 18.8038 398.624 15.584 391.94C11.3332 383.116 5.6031 366.971 0.859696 338.552C-4.6619 305.47 17.5632 179.195 34.6976 90.5996C44.9359 37.6623 91.5215 6.38764e-05 145.44 0H266.473Z"/>
</mask>
<path d="M266.473 0C321.051 1.12313e-05 368.005 38.5539 377.842 92.2383C394.574 183.551 416.734 313.286 412.517 338.552C409.068 359.215 403.579 375.428 399.099 386.239C395.032 396.052 385.191 401.619 374.569 401.619H33.2164C25.7973 401.619 18.8038 398.624 15.584 391.94C11.3332 383.116 5.6031 366.971 0.859696 338.552C-4.6619 305.47 17.5632 179.195 34.6976 90.5996C44.9359 37.6623 91.5215 6.38764e-05 145.44 0H266.473Z" fill="var(--fill-0, #FFE732)"/>
<path d="M266.473 0V-3.80682V-3.80682V0ZM377.842 92.2383L381.587 91.5521V91.5521L377.842 92.2383ZM412.517 338.552L416.272 339.178V339.178L412.517 338.552ZM0.859696 338.552L-2.89518 339.178H-2.89518L0.859696 338.552ZM34.6976 90.5996L30.96 89.8768V89.8768L34.6976 90.5996ZM145.44 0V-3.80682V-3.80682V0ZM399.099 386.239L402.615 387.696L399.099 386.239ZM266.473 0L266.473 3.80682C319.242 3.80683 364.597 41.0758 374.098 92.9244L377.842 92.2383L381.587 91.5521C371.413 36.0321 322.86 -3.80681 266.473 -3.80682V0ZM377.842 92.2383L374.098 92.9244C382.461 138.568 392.176 193.784 399.271 240.731C402.82 264.209 405.707 285.579 407.444 302.633C409.201 319.889 409.717 332.205 408.762 337.925L412.517 338.552L416.272 339.178C417.425 332.266 416.752 318.891 415.018 301.861C413.263 284.63 410.355 263.122 406.799 239.594C399.686 192.529 389.955 137.221 381.587 91.5521L377.842 92.2383ZM412.517 338.552L408.762 337.925C405.368 358.262 399.969 374.195 395.582 384.781L399.099 386.239L402.615 387.696C407.189 376.66 412.769 360.168 416.272 339.178L412.517 338.552ZM374.569 401.619V397.812H33.2164V401.619V405.426H374.569V401.619ZM15.584 391.94L19.0137 390.288C14.9626 381.878 9.31772 366.103 4.61457 337.925L0.859696 338.552L-2.89518 339.178C1.88848 367.839 7.70379 384.353 12.1544 393.592L15.584 391.94ZM0.859696 338.552L4.61457 337.925C3.32362 330.19 3.62319 316.543 5.20004 298.646C6.76528 280.88 9.54887 259.311 13.0474 235.957C20.0435 189.257 29.8717 135.601 38.4351 91.3225L34.6976 90.5996L30.96 89.8768C22.3891 134.194 12.5375 187.972 5.51783 234.829C2.00853 258.254 -0.799754 279.994 -2.38421 297.977C-3.95706 315.829 -4.36503 330.372 -2.89518 339.178L0.859696 338.552ZM34.6976 90.5996L38.4351 91.3225C48.3198 40.2137 93.3062 3.80688 145.44 3.80682V0V-3.80682C89.7367 -3.80675 41.552 35.1109 30.96 89.8768L34.6976 90.5996ZM145.44 0V3.80682H266.473V0V-3.80682H145.44V0ZM33.2164 401.619V397.812C26.7119 397.812 21.3916 395.224 19.0137 390.288L15.584 391.94L12.1544 393.592C16.2161 402.024 24.8827 405.426 33.2164 405.426V401.619ZM399.099 386.239L395.582 384.781C392.199 392.945 383.914 397.812 374.569 397.812V401.619V405.426C386.469 405.426 397.865 399.159 402.615 387.696L399.099 386.239Z" fill="var(--stroke-0, #171717)" mask="url(#path-1-inside-1_450_10887)"/>
</g>
<path id="Rectangle 68" d="M81.0393 110.459C68.9612 198.299 54.3507 316.266 58.1658 348.084C61.1556 373.02 64.6907 388.513 67.5762 397.905C70.2662 406.66 78.466 411.198 87.6251 411.198H319.214C331.307 411.198 342.187 403.987 345.458 392.345C348.464 381.647 351.876 366.663 354.103 348.084C357.038 323.608 342.203 201.156 330.34 110.459" stroke="var(--stroke-0, #171717)" stroke-width="3.80682"/>
</g>
</svg>
