<svg preserveAspectRatio="none" width="100%" height="100%" overflow="visible" style="display: block;" viewBox="0 0 103.589 62.7513" fill="none" xmlns="http://www.w3.org/2000/svg">
<g id="Group 82">
<g id="Group 81">
<path id="Vector 81" d="M93.4055 31.6695C93.8949 27.2464 92.3912 22.363 89.9935 17.7071C87.923 13.6868 91.8341 8.9077 94.5762 12.5151C99.8752 19.486 100.896 27.936 101.912 38.6021C102.602 45.8477 101.272 51.3005 99.4746 55.1765C98.0346 58.2812 93.5912 56.7312 92.2855 53.4761C91.6726 51.9482 90.9952 50.5152 90.3702 49.3123C89.6758 47.9759 89.72 46.4328 90.3879 45.1284C91.3872 43.1768 92.5008 39.8461 93.4055 31.6695Z" fill="var(--fill-0, #8E8A7F)" stroke="var(--stroke-0, #171717)" stroke-width="2" stroke-linecap="round" stroke-linejoin="round"/>
<path id="Vector 82" d="M10.1839 31.671C9.69444 27.2479 11.1982 22.3644 13.5959 17.7086C15.6664 13.6882 11.7553 8.90916 9.01314 12.5165C3.71413 19.4875 2.69338 27.9375 1.67721 38.6036C0.98691 45.8491 2.31702 51.302 4.11475 55.178C5.55471 58.2827 9.99812 56.7326 11.3039 53.4775C11.9167 51.9497 12.5942 50.5167 13.2192 49.3138C13.9135 47.9774 13.8693 46.4343 13.2014 45.1299C12.2022 43.1783 11.0886 39.8475 10.1839 31.671Z" fill="var(--fill-0, #8E8A7F)" stroke="var(--stroke-0, #171717)" stroke-width="2" stroke-linecap="round" stroke-linejoin="round"/>
</g>
<g id="Union">
</g>
</g>
</svg>
