<svg preserveAspectRatio="none" width="100%" height="100%" overflow="visible" style="display: block;" viewBox="0 0 125.111 31.0488" fill="none" xmlns="http://www.w3.org/2000/svg">
<g id="Group 120">
<path id="Ellipse 18" d="M7.9238 4.21811C9.56435 3.49782 11.6706 3.8658 13.843 5.36924C15.9997 6.86188 18.0742 9.39034 19.4939 12.6236C20.9135 15.857 21.3713 19.0961 21.0105 21.6942C20.6471 24.3109 19.4925 26.1106 17.852 26.8309C16.2115 27.5511 14.1052 27.1831 11.9328 25.6797C9.77602 24.187 7.70121 21.6579 6.28156 18.4245C4.86204 15.1912 4.40457 11.9528 4.76532 9.35481C5.12872 6.73802 6.28326 4.9384 7.9238 4.21811Z" fill="var(--fill-0, #FFA4A4)" stroke="var(--stroke-0, #171717)" stroke-width="2"/>
<path id="Ellipse 19" d="M117.188 4.21811C115.547 3.49782 113.441 3.8658 111.268 5.36924C109.112 6.86188 107.037 9.39034 105.617 12.6236C104.198 15.857 103.74 19.0961 104.101 21.6942C104.464 24.3109 105.619 26.1106 107.259 26.8309C108.9 27.5511 111.006 27.1831 113.178 25.6797C115.335 24.187 117.41 21.6579 118.83 18.4245C120.249 15.1912 120.707 11.9528 120.346 9.35481C119.983 6.73802 118.828 4.9384 117.188 4.21811Z" fill="var(--fill-0, #FFA4A4)" stroke="var(--stroke-0, #171717)" stroke-width="2"/>
</g>
</svg>
