<svg preserveAspectRatio="none" width="100%" height="100%" overflow="visible" style="display: block;" viewBox="0 0 225.727 248.017" fill="none" xmlns="http://www.w3.org/2000/svg">
<g id="Union">
<mask id="path-1-inside-1_431_18564" fill="white">
<path d="M218.464 2.93955C225.151 6.7481 227.652 15.1474 224.139 21.994L195.653 77.5027C194.387 79.9686 192.436 82.0161 190.034 83.3986L143.06 110.432C140.525 111.891 138.496 114.088 137.242 116.73L136.927 117.394C135.697 119.988 135.271 122.885 135.701 125.723C140.047 154.454 144.715 188.224 143.841 195.567C142.992 202.701 140.886 211.932 139.119 218.947C137.555 225.156 131.918 229.387 125.515 229.387H58.6331C52.4417 229.387 46.9489 225.424 45.3895 219.432C43.7482 213.126 41.8112 204.497 40.7483 195.567C40.1002 190.121 41.3169 177.109 43.2997 161.772C43.4173 160.862 42.1688 160.473 41.7527 161.291C41.7129 161.37 41.686 161.454 41.6731 161.541L30.5945 235.762C29.4311 243.556 22.2091 248.961 14.4031 247.879L12.4022 247.602C4.72688 246.537 -0.723914 239.581 0.0782831 231.874L8.29914 152.893C8.48242 151.132 8.98935 149.42 9.79444 147.844L39.2193 90.2194C39.2197 90.2186 39.2205 90.2181 39.2214 90.2181C39.2218 90.2181 39.2221 90.218 39.2224 90.2179L52.9526 83.8795C54.8414 83.0075 56.8969 82.5559 58.9773 82.5559L117.652 82.5541C120.163 82.5541 122.631 81.8962 124.808 80.646L165.812 57.1076C167.999 55.8524 169.817 54.0443 171.084 51.8646L197.072 7.15354C201.037 0.332345 209.759 -2.01844 216.614 1.88624L218.464 2.93955Z"/>
</mask>
<path d="M218.464 2.93955C225.151 6.7481 227.652 15.1474 224.139 21.994L195.653 77.5027C194.387 79.9686 192.436 82.0161 190.034 83.3986L143.06 110.432C140.525 111.891 138.496 114.088 137.242 116.73L136.927 117.394C135.697 119.988 135.271 122.885 135.701 125.723C140.047 154.454 144.715 188.224 143.841 195.567C142.992 202.701 140.886 211.932 139.119 218.947C137.555 225.156 131.918 229.387 125.515 229.387H58.6331C52.4417 229.387 46.9489 225.424 45.3895 219.432C43.7482 213.126 41.8112 204.497 40.7483 195.567C40.1002 190.121 41.3169 177.109 43.2997 161.772C43.4173 160.862 42.1688 160.473 41.7527 161.291C41.7129 161.37 41.686 161.454 41.6731 161.541L30.5945 235.762C29.4311 243.556 22.2091 248.961 14.4031 247.879L12.4022 247.602C4.72688 246.537 -0.723914 239.581 0.0782831 231.874L8.29914 152.893C8.48242 151.132 8.98935 149.42 9.79444 147.844L39.2193 90.2194C39.2197 90.2186 39.2205 90.2181 39.2214 90.2181C39.2218 90.2181 39.2221 90.218 39.2224 90.2179L52.9526 83.8795C54.8414 83.0075 56.8969 82.5559 58.9773 82.5559L117.652 82.5541C120.163 82.5541 122.631 81.8962 124.808 80.646L165.812 57.1076C167.999 55.8524 169.817 54.0443 171.084 51.8646L197.072 7.15354C201.037 0.332345 209.759 -2.01844 216.614 1.88624L218.464 2.93955Z" fill="var(--fill-0, #171717)"/>
<path d="M143.841 195.567L145.427 195.755V195.755L143.841 195.567ZM40.7483 195.567L39.1623 195.755V195.755L40.7483 195.567ZM197.072 7.15354L195.691 6.35089L197.072 7.15354ZM216.614 1.88624L215.824 3.27415L216.614 1.88624ZM165.812 57.1076L165.017 55.7224L165.812 57.1076ZM171.084 51.8646L169.703 51.0619L171.084 51.8646ZM124.808 80.646L125.604 82.0312L124.808 80.646ZM52.9526 83.8795L53.6221 85.3296V85.3296L52.9526 83.8795ZM58.9773 82.5559L58.9772 80.9586L58.9773 82.5559ZM39.2224 90.2179L39.8918 91.668L39.2224 90.2179ZM39.2193 90.2194L37.7968 89.493L39.2193 90.2194ZM14.4031 247.879L14.6224 246.297L14.4031 247.879ZM41.7527 161.291L43.1763 162.016L41.7527 161.291ZM41.6731 161.541L43.2528 161.776L41.6731 161.541ZM43.2997 161.772L41.7156 161.567L43.2997 161.772ZM45.3895 219.432L43.8437 219.834L45.3895 219.432ZM136.927 117.394L135.484 116.71L136.927 117.394ZM135.701 125.723L137.28 125.484L135.701 125.723ZM143.06 110.432L142.263 109.048L143.06 110.432ZM137.242 116.73L135.799 116.045L137.242 116.73ZM9.79444 147.844L8.37194 147.117L9.79444 147.844ZM195.653 77.5027L197.074 78.2319L195.653 77.5027ZM190.034 83.3986L190.83 84.783L190.034 83.3986ZM12.4022 247.602L12.1829 249.184L12.4022 247.602ZM224.139 21.994L225.56 22.7232L224.139 21.994ZM218.464 2.93955L219.254 1.55164L218.464 2.93955ZM224.139 21.994L222.718 21.2647L194.232 76.7734L195.653 77.5027L197.074 78.2319L225.56 22.7232L224.139 21.994ZM190.034 83.3986L189.237 82.0143L142.263 109.048L143.06 110.432L143.856 111.816L190.83 84.783L190.034 83.3986ZM137.242 116.73L135.799 116.045L135.484 116.71L136.927 117.394L138.37 118.079L138.685 117.414L137.242 116.73ZM135.701 125.723L134.121 125.962C136.294 140.322 138.545 155.931 140.143 168.861C140.943 175.328 141.577 181.111 141.957 185.727C142.342 190.399 142.451 193.728 142.255 195.378L143.841 195.567L145.427 195.755C145.668 193.735 145.521 190.088 145.141 185.465C144.756 180.787 144.115 174.955 143.314 168.47C141.71 155.496 139.454 139.854 137.28 125.484L135.701 125.723ZM143.841 195.567L142.255 195.378C141.419 202.404 139.335 211.55 137.57 218.557L139.119 218.947L140.668 219.337C142.437 212.314 144.565 202.999 145.427 195.755L143.841 195.567ZM125.515 229.387V227.79H58.6331V229.387V230.984H125.515V229.387ZM45.3895 219.432L46.9352 219.03C45.3044 212.764 43.3856 204.211 42.3343 195.378L40.7483 195.567L39.1623 195.755C40.2367 204.783 42.1919 213.488 43.8437 219.834L45.3895 219.432ZM40.7483 195.567L42.3343 195.378C42.0313 192.832 42.1579 188.364 42.6295 182.507C43.0976 176.692 43.8939 169.633 44.8837 161.977L43.2997 161.772L41.7156 161.567C40.7227 169.248 39.9192 176.363 39.4453 182.25C38.9748 188.094 38.8171 192.855 39.1623 195.755L40.7483 195.567ZM41.6731 161.541L40.0933 161.305L29.0148 235.526L30.5945 235.762L32.1743 235.998L43.2528 161.776L41.6731 161.541ZM14.4031 247.879L14.6224 246.297L12.6215 246.019L12.4022 247.602L12.1829 249.184L14.1837 249.461L14.4031 247.879ZM0.0782831 231.874L1.66693 232.04L9.88779 153.058L8.29914 152.893L6.7105 152.727L-1.51037 231.709L0.0782831 231.874ZM9.79444 147.844L11.2169 148.57L40.6418 90.9457L39.2193 90.2194L37.7968 89.493L8.37194 147.117L9.79444 147.844ZM39.2224 90.2179L39.8918 91.668L53.6221 85.3296L52.9526 83.8795L52.2832 82.4293L38.5529 88.7677L39.2224 90.2179ZM58.9773 82.5559L58.9773 84.1531L117.652 84.1514L117.652 82.5541L117.652 80.9569L58.9772 80.9586L58.9773 82.5559ZM124.808 80.646L125.604 82.0312L166.607 58.4928L165.812 57.1076L165.017 55.7224L124.013 79.2608L124.808 80.646ZM171.084 51.8646L172.464 52.6672L198.453 7.9562L197.072 7.15354L195.691 6.35089L169.703 51.0619L171.084 51.8646ZM216.614 1.88624L215.824 3.27415L217.673 4.32746L218.464 2.93955L219.254 1.55164L217.405 0.498327L216.614 1.88624ZM197.072 7.15354L198.453 7.9562C201.977 1.89291 209.73 -0.196679 215.824 3.27415L216.614 1.88624L217.405 0.498327C209.787 -3.84021 200.097 -1.22822 195.691 6.35089L197.072 7.15354ZM165.812 57.1076L166.607 58.4928C169.037 57.0982 171.057 55.0891 172.464 52.6672L171.084 51.8646L169.703 51.0619C168.576 52.9994 166.961 54.6067 165.017 55.7224L165.812 57.1076ZM117.652 82.5541L117.652 84.1514C120.442 84.1513 123.184 83.4203 125.604 82.0312L124.808 80.646L124.013 79.2608C122.077 80.372 119.884 80.9568 117.652 80.9569L117.652 82.5541ZM52.9526 83.8795L53.6221 85.3296C55.301 84.5546 57.1281 84.1532 58.9773 84.1531L58.9773 82.5559L58.9772 80.9586C56.6658 80.9587 54.3818 81.4605 52.2832 82.4293L52.9526 83.8795ZM39.2214 90.2181V91.8153C39.4529 91.8153 39.6817 91.7651 39.8918 91.668L39.2224 90.2179L38.5529 88.7677C38.7625 88.6709 38.9906 88.6208 39.2214 88.6208V90.2181ZM39.2193 90.2194L40.6418 90.9457C40.3681 91.4818 39.8179 91.8153 39.2214 91.8153V90.2181V88.6208C38.6231 88.6208 38.0714 88.9553 37.7968 89.493L39.2193 90.2194ZM30.5945 235.762L29.0148 235.526C27.9807 242.455 21.5611 247.259 14.6224 246.297L14.4031 247.879L14.1837 249.461C22.8571 250.663 30.8816 244.658 32.1743 235.998L30.5945 235.762ZM41.7527 161.291L40.3291 160.567C40.2113 160.799 40.1317 161.048 40.0933 161.305L41.6731 161.541L43.2528 161.776C43.2404 161.86 43.2145 161.94 43.1763 162.016L41.7527 161.291ZM43.2997 161.772L44.8837 161.977C45.2284 159.311 41.5685 158.131 40.3291 160.567L41.7527 161.291L43.1763 162.016C43.1001 162.166 42.9478 162.315 42.7416 162.391C42.556 162.46 42.3838 162.45 42.2522 162.409C42.1206 162.368 41.9742 162.279 41.8612 162.119C41.7356 161.941 41.6941 161.734 41.7156 161.567L43.2997 161.772ZM58.6331 229.387V227.79C53.1166 227.79 48.2987 224.268 46.9352 219.03L45.3895 219.432L43.8437 219.834C45.5992 226.579 51.7668 230.984 58.6331 230.984V229.387ZM136.927 117.394L135.484 116.71C134.117 119.591 133.645 122.811 134.121 125.962L135.701 125.723L137.28 125.484C136.898 122.96 137.276 120.384 138.37 118.079L136.927 117.394ZM143.06 110.432L142.263 109.048C139.447 110.668 137.192 113.109 135.799 116.045L137.242 116.73L138.685 117.414C139.8 115.066 141.603 113.113 143.856 111.816L143.06 110.432ZM8.29914 152.893L9.88779 153.058C10.0507 151.493 10.5013 149.971 11.2169 148.57L9.79444 147.844L8.37194 147.117C7.47739 148.869 6.91413 150.771 6.7105 152.727L8.29914 152.893ZM195.653 77.5027L194.232 76.7734C193.107 78.9654 191.372 80.7854 189.237 82.0143L190.034 83.3986L190.83 84.783C193.5 83.2469 195.668 80.9719 197.074 78.2319L195.653 77.5027ZM139.119 218.947L137.57 218.557C136.192 224.029 131.215 227.79 125.515 227.79V229.387V230.984C132.621 230.984 138.918 226.284 140.668 219.337L139.119 218.947ZM12.4022 247.602L12.6215 246.019C5.79902 245.074 0.953867 238.89 1.66693 232.04L0.0782831 231.874L-1.51037 231.709C-2.4017 240.272 3.65474 248.001 12.1829 249.184L12.4022 247.602ZM224.139 21.994L225.56 22.7232C229.464 15.1159 226.684 5.78336 219.254 1.55164L218.464 2.93955L217.673 4.32746C223.617 7.71284 225.841 15.1788 222.718 21.2647L224.139 21.994Z" fill="var(--stroke-0, black)" mask="url(#path-1-inside-1_431_18564)"/>
</g>
</svg>
