<svg preserveAspectRatio="none" width="100%" height="100%" overflow="visible" style="display: block;" viewBox="0 0 112.899 173.071" fill="none" xmlns="http://www.w3.org/2000/svg">
<g id="Union">
<mask id="path-1-inside-1_431_18552" fill="white">
<path d="M112.899 167.907L65.0918 171.63L56.5049 61.3623L47.8076 173.071L0 169.349L13.1875 0L56.5059 3.37207L99.8242 0L112.899 167.907Z"/>
</mask>
<path d="M112.899 167.907L65.0918 171.63L56.5049 61.3623L47.8076 173.071L0 169.349L13.1875 0L56.5059 3.37207L99.8242 0L112.899 167.907Z" fill="var(--fill-0, #171717)"/>
<path d="M112.899 167.907L113.028 169.563L114.684 169.434L114.555 167.778L112.899 167.907ZM65.0918 171.63L63.4363 171.759L63.5652 173.414L65.2207 173.285L65.0918 171.63ZM56.5049 61.3623L58.1604 61.2334L54.8494 61.2334L56.5049 61.3623ZM47.8076 173.071L47.6787 174.727L49.3342 174.856L49.4631 173.2L47.8076 173.071ZM0 169.349L-1.65547 169.22L-1.78438 170.875L-0.128907 171.004L0 169.349ZM13.1875 0L13.3164 -1.65547L11.6609 -1.78434L11.532 -0.128915L13.1875 0ZM56.5059 3.37207L56.377 5.02754L56.5059 5.03757L56.6347 5.02754L56.5059 3.37207ZM99.8242 0L101.48 -0.128914L101.351 -1.78434L99.6954 -1.65547L99.8242 0ZM112.899 167.907L112.771 166.252L64.9629 169.974L65.0918 171.63L65.2207 173.285L113.028 169.563L112.899 167.907ZM65.0918 171.63L66.7473 171.501L58.1604 61.2334L56.5049 61.3623L54.8494 61.4912L63.4363 171.759L65.0918 171.63ZM56.5049 61.3623L54.8494 61.2334L46.1521 172.942L47.8076 173.071L49.4631 173.2L58.1604 61.4912L56.5049 61.3623ZM47.8076 173.071L47.9365 171.416L0.128907 167.693L0 169.349L-0.128907 171.004L47.6787 174.727L47.8076 173.071ZM0 169.349L1.65547 169.478L14.843 0.128915L13.1875 0L11.532 -0.128915L-1.65547 169.22L0 169.349ZM13.1875 0L13.0586 1.65547L56.377 5.02754L56.5059 3.37207L56.6347 1.7166L13.3164 -1.65547L13.1875 0ZM56.5059 3.37207L56.6347 5.02754L99.9531 1.65547L99.8242 0L99.6954 -1.65547L56.377 1.7166L56.5059 3.37207ZM99.8242 0L98.1687 0.128914L111.244 168.036L112.899 167.907L114.555 167.778L101.48 -0.128914L99.8242 0Z" fill="var(--stroke-0, #171717)" mask="url(#path-1-inside-1_431_18552)"/>
</g>
</svg>
