<svg preserveAspectRatio="none" width="100%" height="100%" overflow="visible" style="display: block;" viewBox="0 0 413.039 624.32" fill="none" xmlns="http://www.w3.org/2000/svg">
<g id="Group 64">
<path id="Ellipse 18" d="M104.975 81.274C108.098 79.9029 112.108 80.6037 116.243 83.4655C120.348 86.3067 124.297 91.1194 126.999 97.2739C129.701 103.428 130.572 109.593 129.885 114.538C129.193 119.519 126.995 122.944 123.873 124.315C120.75 125.686 116.742 124.985 112.607 122.124C108.502 119.283 104.553 114.47 101.85 108.316C99.1483 102.161 98.2778 95.9966 98.9645 91.0515C99.6561 86.0708 101.853 82.6451 104.975 81.274Z" fill="var(--fill-0, #F8CBCB)" stroke="var(--stroke-0, #171717)" stroke-width="3.80682"/>
<path id="Ellipse 19" d="M309.143 81.274C306.02 79.9029 302.011 80.6037 297.876 83.4655C293.771 86.3067 289.822 91.1194 287.12 97.2739C284.417 103.428 283.547 109.593 284.234 114.538C284.925 119.519 287.123 122.944 290.246 124.315C293.368 125.686 297.377 124.985 301.512 122.124C305.617 119.283 309.566 114.47 312.268 108.316C314.97 102.161 315.841 95.9966 315.154 91.0515C314.463 86.0708 312.266 82.6451 309.143 81.274Z" fill="var(--fill-0, #F8CBCB)" stroke="var(--stroke-0, #171717)" stroke-width="3.80682"/>
<rect id="Rectangle 65" x="167.618" y="182.727" width="79.9432" height="64.7159" fill="var(--fill-0, #F8CBCB)" stroke="var(--stroke-0, #171717)" stroke-width="3.80682"/>
<path id="Rectangle 32" d="M153.342 1.90332H261.836C281.809 1.90332 298.001 18.0951 298.001 38.0684V111.35C298.001 161.283 257.522 201.762 207.589 201.762C157.656 201.762 117.177 161.283 117.177 111.35V38.0684C117.177 18.0951 133.369 1.90332 153.342 1.90332Z" fill="var(--fill-0, #F8CBCB)" stroke="var(--stroke-0, #171717)" stroke-width="3.80682"/>
<path id="Ellipse 27" d="M242.917 70.3656C251.231 70.3656 258.681 72.8195 264.005 76.6918C269.332 80.5655 272.42 85.7548 272.42 91.3031C272.42 96.8514 269.332 102.041 264.005 105.914C258.681 109.787 251.231 112.241 242.917 112.241C234.603 112.241 227.154 109.787 221.83 105.914C216.503 102.041 213.414 96.8514 213.414 91.3031C213.415 85.7548 216.503 80.5655 221.83 76.6918C227.154 72.8195 234.603 70.3656 242.917 70.3656Z" fill="var(--fill-0, #005286)" stroke="var(--stroke-0, #171717)" stroke-width="3.80682"/>
<path id="Vector 61" d="M185.321 68.4623C176.398 66.1947 157.055 62.5665 151.059 66.1947" stroke="var(--stroke-0, #171717)" stroke-width="3.80682" stroke-linecap="round"/>
<path id="Vector 62" d="M221.485 68.4623C230.408 66.1947 249.751 62.5665 255.747 66.1947" stroke="var(--stroke-0, #171717)" stroke-width="3.80682" stroke-linecap="round"/>
<path id="Vector 41" d="M200.242 97.0135C198.173 102.513 194.655 114.392 197.138 117.911C199.621 121.431 209.024 119.378 213.415 117.911" stroke="var(--stroke-0, #171717)" stroke-width="3.80682" stroke-linecap="round"/>
<g id="Group 50">
<g id="Union">
<mask id="path-9-inside-1_450_10896" fill="white">
<path d="M266.473 211.218C321.051 211.218 368.005 249.772 377.842 303.456C394.574 394.769 416.733 524.504 412.516 549.77C409.068 570.431 403.579 586.642 399.1 597.453C395.033 607.269 385.19 612.837 374.565 612.837H33.2565C25.8127 612.837 18.7926 609.829 15.5658 603.121C11.3169 594.289 5.59649 578.149 0.859727 549.77C-4.66187 516.688 17.5622 390.413 34.6966 301.818C44.9349 248.88 91.5214 211.218 145.44 211.218H266.473Z"/>
</mask>
<path d="M266.473 211.218C321.051 211.218 368.005 249.772 377.842 303.456C394.574 394.769 416.733 524.504 412.516 549.77C409.068 570.431 403.579 586.642 399.1 597.453C395.033 607.269 385.19 612.837 374.565 612.837H33.2565C25.8127 612.837 18.7926 609.829 15.5658 603.121C11.3169 594.289 5.59649 578.149 0.859727 549.77C-4.66187 516.688 17.5622 390.413 34.6966 301.818C44.9349 248.88 91.5214 211.218 145.44 211.218H266.473Z" fill="var(--fill-0, #FFE732)"/>
<path d="M266.473 211.218V207.411V207.411V211.218ZM377.842 303.456L381.587 302.77V302.77L377.842 303.456ZM412.516 549.77L416.271 550.397H416.271L412.516 549.77ZM0.859727 549.77L-2.89515 550.397H-2.89515L0.859727 549.77ZM34.6966 301.818L30.9591 301.095V301.095L34.6966 301.818ZM15.5658 603.121L12.1352 604.771L15.5658 603.121ZM399.1 597.453L395.583 595.996L399.1 597.453ZM266.473 211.218L266.473 215.025C319.242 215.025 364.597 252.294 374.098 304.143L377.842 303.456L381.587 302.77C371.413 247.25 322.86 207.411 266.473 207.411V211.218ZM377.842 303.456L374.098 304.143C382.461 349.786 392.176 405.002 399.271 451.949C402.819 475.427 405.706 496.797 407.443 513.851C409.2 531.107 409.716 543.423 408.761 549.143L412.516 549.77L416.271 550.397C417.425 543.484 416.752 530.109 415.017 513.08C413.262 495.848 410.355 474.34 406.799 450.812C399.686 403.747 389.955 348.439 381.587 302.77L377.842 303.456ZM412.516 549.77L408.761 549.143C405.367 569.477 399.969 585.41 395.583 595.996L399.1 597.453L402.617 598.91C407.189 587.875 412.768 571.384 416.271 550.397L412.516 549.77ZM374.565 612.837V609.03H33.2565V612.837V616.644H374.565V612.837ZM15.5658 603.121L18.9963 601.471C14.9466 593.052 9.31116 577.282 4.6146 549.143L0.859727 549.77L-2.89515 550.397C1.88182 579.017 7.6873 595.525 12.1352 604.771L15.5658 603.121ZM0.859727 549.77L4.6146 549.143C3.32365 541.409 3.62316 527.761 5.19992 509.864C6.76507 492.098 9.54853 470.529 13.047 447.175C20.0428 400.475 29.8707 346.819 38.4342 302.541L34.6966 301.818L30.9591 301.095C22.3881 345.412 12.5368 399.19 5.51737 446.047C2.00819 469.472 -0.79997 491.212 -2.38434 509.195C-3.9571 527.047 -4.36499 541.59 -2.89515 550.397L0.859727 549.77ZM34.6966 301.818L38.4342 302.541C48.3188 251.432 93.3061 215.025 145.44 215.025V211.218V207.411C89.7367 207.411 41.551 246.329 30.9591 301.095L34.6966 301.818ZM145.44 211.218V215.025H266.473V211.218V207.411H145.44V211.218ZM33.2565 612.837V609.03C26.7274 609.03 21.3817 606.43 18.9963 601.471L15.5658 603.121L12.1352 604.771C16.2035 613.229 24.898 616.644 33.2565 616.644V612.837ZM399.1 597.453L395.583 595.996C392.199 604.162 383.912 609.03 374.565 609.03V612.837V616.644C386.467 616.644 397.866 610.375 402.617 598.91L399.1 597.453Z" fill="var(--stroke-0, #171717)" mask="url(#path-9-inside-1_450_10896)"/>
</g>
<path id="Rectangle 68" d="M81.0389 321.678C68.9609 409.517 54.3504 527.484 58.1655 559.303C61.1553 584.239 64.6904 599.731 67.5759 609.123C70.2659 617.878 78.4657 622.416 87.6248 622.416H319.214C331.307 622.416 342.187 615.205 345.458 603.563C348.464 592.865 351.876 577.881 354.103 559.303C357.038 534.826 342.203 412.374 330.34 321.678" stroke="var(--stroke-0, #171717)" stroke-width="3.80682"/>
</g>
<g id="Group 65">
<path id="Ellipse 7" d="M166.286 79.203C170.868 79.203 174.955 80.1346 177.852 81.5829C180.822 83.0679 182.194 84.8927 182.194 86.5448C182.194 88.1969 180.822 90.0218 177.852 91.5067C174.955 92.955 170.868 93.8866 166.286 93.8866C161.705 93.8866 157.617 92.9551 154.72 91.5067C151.75 90.0218 150.379 88.1968 150.379 86.5448C150.379 84.8928 151.75 83.0678 154.72 81.5829C157.617 80.1345 161.705 79.203 166.286 79.203Z" fill="var(--fill-0, #FFFDFD)" stroke="var(--stroke-0, #171717)" stroke-width="2.44724"/>
<circle id="Ellipse 8" cx="166.286" cy="86.5447" r="7.34172" fill="var(--fill-0, #171717)" stroke="var(--stroke-0, #171717)" stroke-width="2.44724"/>
</g>
<g id="Group 66">
<path id="Ellipse 7_2" d="M238.616 79.203C243.197 79.203 247.284 80.1345 250.181 81.5829C253.151 83.0678 254.523 84.8927 254.523 86.5448C254.523 88.1969 253.151 90.0217 250.181 91.5067C247.284 92.955 243.197 93.8866 238.616 93.8866C234.034 93.8866 229.946 92.9551 227.049 91.5067C224.08 90.0218 222.709 88.1968 222.708 86.5448C222.708 84.8927 224.08 83.0678 227.049 81.5829C229.946 80.1345 234.034 79.203 238.616 79.203Z" fill="var(--fill-0, #FFFDFD)" stroke="var(--stroke-0, #171717)" stroke-width="2.44724"/>
<circle id="Ellipse 8_2" cx="238.615" cy="86.5447" r="7.34172" fill="var(--fill-0, #171717)" stroke="var(--stroke-0, #171717)" stroke-width="2.44724"/>
</g>
</g>
</svg>
