<svg preserveAspectRatio="none" width="100%" height="100%" overflow="visible" style="display: block;" viewBox="0 0 41.2176 52.2746" fill="none" xmlns="http://www.w3.org/2000/svg">
<g id="Group 60">
<path id="Vector 58" d="M2.71405 33.3567C3.73549 35.9103 8.24688 41.2303 10.3749 43.5712L25.0576 49.9556C26.9728 49.3172 31.4417 46.1252 35.146 39.1958C38.8503 32.2665 39.7409 29.5267 39.4827 26.0248C39.2761 23.2232 37.0151 22.5104 35.9105 22.5042C36.5489 21.4402 36.8414 18.0354 35.9621 16.8949C34.4713 14.9611 32.465 14.6746 31.6483 14.7731C31.8549 12.1492 31.4417 10.3746 28.8881 8.44073C26.8452 6.89367 25.0576 7.38293 24.4192 7.82095C23.7808 5.90574 21.8656 3.35137 20.0354 1.67738C18.2052 0.0033958 15.562 0.797845 14.6067 1.597C13.6514 2.39616 14.2048 3.98986 16.12 5.90507C18.0352 7.82029 18.6736 9.09685 18.2717 11.9101C17.8698 14.7233 17.3968 19.9497 15.562 23.7945C13.7271 27.6393 9.73594 28.8874 7.82073 27.6106C6.28856 26.5891 4.62871 22.0777 3.99031 19.9497C2.7135 19.9497 2.71405 21.8654 1.27187 24.9198C-0.170308 27.9741 1.43724 30.1647 2.71405 33.3567Z" fill="var(--fill-0, #F38E8E)"/>
<g id="Group 59">
<path id="Vector 54" d="M10.3772 43.5755C6.43206 39.3594 -0.770395 30.4914 1.10427 25.3507C2.87203 20.5032 3.51068 19.8648 4.14908 19.8648C5.42589 23.0568 6.31979 28.6749 9.89479 28.1642C14.3635 27.5258 16.9172 22.4186 17.5556 17.3113C18.194 12.2041 18.8324 9.6505 17.5556 7.73529C16.2787 5.82007 12.4483 2.62806 15.0019 1.35125C17.5556 0.0744414 20.7476 0.712845 23.9396 6.45848C26.4932 11.055 25.0036 18.1624 23.9396 21.1416" stroke="var(--stroke-0, black)" stroke-width="1.59723"/>
<path id="Vector 55" d="M23.9397 7.73533C28.4085 6.45803 32.1455 10.3047 31.6005 14.1194C30.9621 18.5878 30.1109 22.4188 29.6853 24.3342" stroke="var(--stroke-0, black)" stroke-width="1.59723"/>
<path id="Vector 56" d="M31.6234 14.9517C35.2725 14.4736 37.4245 17.6658 36.5519 20.5897C35.5298 24.0147 34.7407 27.1726 34.1836 28.6229" stroke="var(--stroke-0, black)" stroke-width="1.59723"/>
<path id="Vector 57" d="M35.9136 22.5051C38.7399 22.3898 40.1993 25.8695 39.5011 28.826C37.8276 35.9127 30.9615 48.5921 24.5774 49.869L10.3801 43.578" stroke="var(--stroke-0, black)" stroke-width="1.59723"/>
<path id="Vector 54_2" d="M10.3772 43.5755C6.43206 39.3594 -0.770395 30.4914 1.10427 25.3507C2.87203 20.5032 3.51068 19.8648 4.14908 19.8648C5.42589 23.0568 6.31979 28.6749 9.89479 28.1642C14.3635 27.5258 16.9172 22.4186 17.5556 17.3113C18.194 12.2041 18.8324 9.6505 17.5556 7.73529C16.2787 5.82007 12.4483 2.62806 15.0019 1.35125C17.5556 0.0744414 20.7476 0.712845 23.9396 6.45848C26.4932 11.055 25.0036 18.1624 23.9396 21.1416" stroke="var(--stroke-0, black)" stroke-width="1.59723"/>
<path id="Vector 55_2" d="M23.9397 7.73533C28.4085 6.45803 32.1455 10.3047 31.6005 14.1194C30.9621 18.5878 30.1109 22.4188 29.6853 24.3342" stroke="var(--stroke-0, black)" stroke-width="1.59723"/>
<path id="Vector 56_2" d="M31.6234 14.9517C35.2725 14.4736 37.4245 17.6658 36.5519 20.5897C35.5298 24.0147 34.7407 27.1726 34.1836 28.6229" stroke="var(--stroke-0, black)" stroke-width="1.59723"/>
<path id="Vector 57_2" d="M35.9136 22.5051C38.7399 22.3898 40.1993 25.8695 39.5011 28.826C37.8276 35.9127 30.9615 48.5921 24.5774 49.869L10.3801 43.578" stroke="var(--stroke-0, black)" stroke-width="1.59723"/>
</g>
</g>
</svg>
