<svg preserveAspectRatio="none" width="100%" height="100%" overflow="visible" style="display: block;" viewBox="0 0 32.9953 43.1866" fill="none" xmlns="http://www.w3.org/2000/svg">
<g id="Group 61">
<path id="Vector 59" d="M9.66236 38.3042C2.00152 40.2194 0.72471 24.2593 0.984061 16.788C1.19154 10.8111 3.8768 3.10568 5.19354 0L24.318 3.19202C25.8167 5.10723 29.1686 9.86751 30.5872 13.587C32.3603 18.2363 32.006 19.7905 32.0604 22.7377C32.1148 25.6849 30.7292 27.4514 29.4796 27.2338C28.23 27.0162 27.5372 26.1745 27.5372 23.6209C27.5372 21.578 26.686 20.6417 26.2604 20.4289C26.0476 20.6417 25.3612 21.6081 24.318 23.7713C23.014 26.4754 25.622 32.5586 26.5052 35.1666C27.3884 37.7746 28.814 40.2194 26.2604 41.197C24.2175 41.9791 22.43 39.1687 21.7916 37.6658C22.2172 38.7298 22.5551 41.1186 20.502 42.1618C18.4488 43.205 17.1014 40.4504 16.6843 38.9426C16.6843 39.581 16.1573 40.9257 14.0491 41.197C11.941 41.4684 10.2462 39.3815 9.66236 38.3042Z" fill="var(--fill-0, #F38E8E)"/>
<path id="Vector 49" d="M4.5553 0.638266C3.32837 3.79953 0.859543 12.1103 0.799693 20.0634C0.72488 30.0048 4.5553 39.5809 9.02413 38.3041C13.493 37.0273 7.74715 23.6208 9.02413 21.0672" stroke="var(--stroke-0, black)" stroke-width="1.59723"/>
<path id="Vector 50" d="M9.66222 37.6648C10.5134 39.3672 12.8542 42.389 15.4079 40.8568C18.5999 38.9416 13.1349 29.3935 14.9098 23.6339" stroke="var(--stroke-0, black)" stroke-width="1.59723"/>
<path id="Vector 52" d="M21.7929 37.6662C22.6441 39.3686 24.3465 42.3901 26.9001 40.858C30.0921 38.9428 20.5161 26.175 26.2617 20.4293" stroke="var(--stroke-0, black)" stroke-width="1.59723"/>
<path id="Vector 51" d="M16.3803 39.1452C17.3368 40.7907 18.9446 43.4123 21.0385 41.9695C24.1037 39.8573 18.049 29.395 19.4582 23.5352" stroke="var(--stroke-0, black)" stroke-width="1.59723"/>
<path id="Vector 53" d="M24.3455 3.19133C35.1984 16.5978 31.7717 25.3663 31.368 26.1739C30.7296 27.4507 27.5375 28.7275 27.5375 23.6202C27.5375 19.7096 23.5314 17.0466 21.9913 16.0791C20.1695 14.9347 19.2386 13.4058 19.2386 11.4906" stroke="var(--stroke-0, black)" stroke-width="1.59723"/>
</g>
</svg>
