<svg preserveAspectRatio="none" width="100%" height="100%" overflow="visible" style="display: block;" viewBox="0 0 75.5444 51.454" fill="none" xmlns="http://www.w3.org/2000/svg">
<path id="Vector 1" d="M48.609 24.6618C41.859 18.5118 35.7414 16.9998 32.8914 16.9998C33.3738 16.9879 22.059 16.7117 15.9414 19.9409C9.82383 23.17 10.959 28.5617 10.209 24.6618C7.92901 26.8949 7.15901 35.4922 7.05901 39.5117C7.05905 44.0117 6.53853 52.3712 4.45618 49.8089C1.85325 46.6062 -2.84105 39.5117 4.21498 21.8705C11.271 4.2293 27.159 1.56176 36.5094 0.643691C45.8599 -0.274382 61.509 3.0618 69.5525 14.8516C77.5959 26.6413 75.759 51.5118 70.7117 50.9442C65.6645 50.3766 68.409 38.1618 68.559 32.7618C68.679 28.4418 61.909 22.0618 58.509 19.4118C57.909 18.9118 57.669 20.0118 61.509 28.4118C58.509 24.4518 51.659 20.7618 48.609 19.4118C50.859 23.2118 54.009 29.5818 48.609 24.6618Z" fill="var(--fill-0, #171717)" stroke="var(--stroke-0, #171717)" stroke-linejoin="round"/>
</svg>
