<svg preserveAspectRatio="none" width="100%" height="100%" overflow="visible" style="display: block;" viewBox="0 0 33.9709 3.59058" fill="none" xmlns="http://www.w3.org/2000/svg">
<g id="Group 25">
<path id="Ellipse 5" d="M4.28128 0.500037C5.41332 0.500071 6.41448 0.693923 7.11428 0.987341C7.46498 1.13441 7.7168 1.29641 7.87307 1.45121C8.02725 1.60407 8.06145 1.72008 8.06155 1.79496C8.06155 1.86983 8.02746 1.98563 7.87307 2.13871C7.71682 2.2936 7.46522 2.45638 7.11428 2.60355C6.41449 2.89694 5.41325 3.09082 4.28128 3.09086C3.149 3.09086 2.14716 2.89704 1.44729 2.60355C1.09631 2.45637 0.844746 2.29362 0.688502 2.13871C0.534224 1.9857 0.500025 1.8698 0.500025 1.79496C0.500121 1.72008 0.534328 1.60407 0.688502 1.45121C0.844743 1.29637 1.0965 1.13446 1.44729 0.987341C2.14716 0.693846 3.14899 0.500037 4.28128 0.500037Z" fill="var(--fill-0, #8E8A7F)" stroke="var(--stroke-0, #171717)"/>
<path id="Ellipse 7" d="M29.6902 0.500105C30.8222 0.500139 31.8234 0.693991 32.5232 0.987409C32.8739 1.13448 33.1257 1.29648 33.2819 1.45128C33.4361 1.60413 33.4703 1.72015 33.4704 1.79503C33.4704 1.86989 33.4363 1.9857 33.2819 2.13878C33.1257 2.29367 32.8741 2.45645 32.5232 2.60362C31.8234 2.89701 30.8221 3.09089 29.6902 3.09092C28.5579 3.09092 27.556 2.89711 26.8562 2.60362C26.5052 2.45643 26.2536 2.29369 26.0974 2.13878C25.9431 1.98577 25.9089 1.86987 25.9089 1.79503C25.909 1.72015 25.9432 1.60414 26.0974 1.45128C26.2536 1.29644 26.5054 1.13453 26.8562 0.987409C27.556 0.693914 28.5579 0.500105 29.6902 0.500105Z" fill="var(--fill-0, #8E8A7F)" stroke="var(--stroke-0, #171717)"/>
<path id="Ellipse 6" d="M4.41874 0.500105C5.24562 0.500233 5.85117 1.11413 5.85135 1.79503C5.85135 2.47605 5.24575 3.0908 4.41874 3.09092C3.59159 3.09092 2.98514 2.47612 2.98514 1.79503C2.98533 1.11406 3.59171 0.500105 4.41874 0.500105Z" fill="var(--fill-0, #171717)" stroke="var(--stroke-0, #171717)"/>
<path id="Ellipse 8" d="M29.8283 0.500105C30.6552 0.500233 31.2608 1.11413 31.261 1.79503C31.261 2.47605 30.6554 3.0908 29.8283 3.09092C29.0012 3.09092 28.3947 2.47612 28.3947 1.79503C28.3949 1.11406 29.0013 0.500105 29.8283 0.500105Z" fill="var(--fill-0, #171717)" stroke="var(--stroke-0, #171717)"/>
</g>
</svg>
