<svg preserveAspectRatio="none" width="100%" height="100%" overflow="visible" style="display: block;" viewBox="0 0 90.1035 32.0694" fill="none" xmlns="http://www.w3.org/2000/svg">
<g id="Group 70">
<path id="Ellipse 3" d="M83.423 3.64082C84.9417 4.16973 86.0071 5.96692 86.3409 8.73274C86.6703 11.4622 86.2562 14.9674 84.9957 18.5883C83.7352 22.2095 81.883 25.2148 79.9298 27.1497C77.9507 29.1104 75.9996 29.8576 74.4808 29.3291C72.9619 28.8003 71.8958 27.0029 71.562 24.2368C71.2325 21.5073 71.6469 18.0015 72.9074 14.3803C74.1679 10.7594 76.02 7.75471 77.973 5.81984C79.9523 3.85901 81.9041 3.11208 83.423 3.64082Z" fill="var(--fill-0, #FFA4A4)" stroke="var(--stroke-0, #171717)"/>
<path id="Ellipse 4" d="M6.57094 3.08958C8.05804 2.47742 10.0476 3.1149 12.1328 4.96243C14.1905 6.78566 16.2067 9.68265 17.6667 13.2279C19.1268 16.7733 19.7355 20.2507 19.5584 22.9943C19.379 25.7744 18.4152 27.6281 16.9283 28.2406C15.4412 28.8531 13.4509 28.2159 11.3656 26.3682C9.30779 24.5449 7.29125 21.6472 5.83122 18.1018C4.37133 14.5566 3.76288 11.0798 3.93992 8.3363C4.11939 5.55596 5.0838 3.702 6.57094 3.08958Z" fill="var(--fill-0, #FFA4A4)" stroke="var(--stroke-0, #171717)"/>
</g>
</svg>
