<svg preserveAspectRatio="none" width="100%" height="100%" overflow="visible" style="display: block;" viewBox="0 0 39.6 10.5" fill="none" xmlns="http://www.w3.org/2000/svg">
<g id="Mask group">
<mask id="mask0_488_23048" style="mask-type:alpha" maskUnits="userSpaceOnUse" x="0" y="0" width="40" height="11">
<path id="Rectangle 16" d="M3 0.5H36.5996C37.9803 0.5 39.0996 1.61929 39.0996 3C39.0996 6.86599 35.9656 10 32.0996 10H7.5C3.63401 10 0.5 6.86599 0.5 3C0.5 1.61929 1.61929 0.5 3 0.5Z" fill="var(--fill-0, #F15F60)" stroke="var(--stroke-0, black)"/>
</mask>
<g mask="url(#mask0_488_23048)">
<g id="Vector 3">
<path d="M40.1171 5.09996C40.1171 5.09996 28.2926 3.76236 20.6648 3.72709C13.9684 3.69611 2.9774 4.77762 0.393313 5.04217L-8.21884 1.74399L-0.162852 -2.52717L43.2609 -3.90004L48.5661 2.35416L40.1171 5.09996Z" fill="var(--fill-0, #FFFDFD)"/>
<path d="M-0.162852 5.09996C-0.162852 5.09996 0.0339253 5.07897 0.393313 5.04217M0.393313 5.04217C2.9774 4.77762 13.9684 3.69611 20.6648 3.72709C28.2926 3.76236 40.1171 5.09996 40.1171 5.09996L48.5661 2.35416L43.2609 -3.90004L-0.162852 -2.52717L-8.21884 1.74399L0.393313 5.04217Z" stroke="var(--stroke-0, #171717)"/>
</g>
</g>
</g>
</svg>
