<svg preserveAspectRatio="none" width="100%" height="100%" overflow="visible" style="display: block;" viewBox="0 0 48 48" fill="none" xmlns="http://www.w3.org/2000/svg">
<g id="mic">
<mask id="mask0_418_10476" style="mask-type:alpha" maskUnits="userSpaceOnUse" x="0" y="0" width="48" height="48">
<rect id="Bounding box" width="48" height="48" fill="var(--fill-0, #D9D9D9)"/>
</mask>
<g mask="url(#mask0_418_10476)">
<path id="mic_2" d="M20.4839 24.3178C19.6772 23.4618 19.2738 22.4153 19.2738 21.1783V8.97305C19.2738 7.80726 19.6844 6.81526 20.5056 5.99705C21.3268 5.1785 22.3265 4.76923 23.5047 4.76923C24.6833 4.76923 25.684 5.1785 26.5068 5.99705C27.33 6.81526 27.7415 7.80726 27.7415 8.97305V21.1783C27.7415 22.4153 27.3382 23.4618 26.5314 24.3178C25.725 25.1734 24.7171 25.6012 23.5077 25.6012C22.2983 25.6012 21.2903 25.1734 20.4839 24.3178ZM22.3906 39.5906V33.747C19.3659 33.4617 16.7472 32.2658 14.5344 30.159C12.3216 28.0523 11.0727 25.4475 10.7874 22.3446C10.7343 22.0249 10.815 21.7506 11.0297 21.5215C11.2443 21.2927 11.512 21.1783 11.8326 21.1783C12.1533 21.1783 12.4191 21.2945 12.6302 21.5269C12.8412 21.7593 12.9654 22.0381 13.0028 22.3633C13.3209 25.0346 14.4888 27.2375 16.5066 28.9721C18.5247 30.7063 20.8527 31.5734 23.4905 31.5734C26.1729 31.5734 28.5177 30.703 30.525 28.9622C32.532 27.2214 33.6945 25.0218 34.0126 22.3633C34.0496 22.0381 34.1763 21.7593 34.3926 21.5269C34.6086 21.2945 34.877 21.1783 35.198 21.1783C35.5187 21.1783 35.7837 21.2927 35.9931 21.5215C36.2028 21.7506 36.2811 22.0249 36.2279 22.3446C35.9427 25.4018 34.702 27.9922 32.5056 30.1157C30.3093 32.2388 27.6823 33.4493 24.6247 33.747V39.5906C24.6247 39.9077 24.5171 40.1732 24.3018 40.3872C24.0862 40.6009 23.8185 40.7077 23.4988 40.7077C23.1792 40.7077 22.9145 40.6009 22.7047 40.3872C22.4953 40.1732 22.3906 39.9077 22.3906 39.5906ZM24.9413 22.7311C25.3187 22.3067 25.5074 21.7865 25.5074 21.1705V8.97305C25.5074 8.4151 25.3158 7.94741 24.9324 7.56997C24.5491 7.19253 24.0742 7.00382 23.5077 7.00382C22.9412 7.00382 22.4663 7.19253 22.083 7.56997C21.6996 7.94741 21.5079 8.4151 21.5079 8.97305V21.1705C21.5079 21.7865 21.6967 22.3067 22.0741 22.7311C22.4515 23.1551 22.9294 23.3671 23.5077 23.3671C24.086 23.3671 24.5639 23.1551 24.9413 22.7311Z" fill="var(--fill-0, #171717)"/>
</g>
</g>
</svg>
