<svg width="175" height="174" viewBox="0 0 175 174" fill="none" xmlns="http://www.w3.org/2000/svg">
<mask id="path-1-inside-1_657_39776" fill="white">
<path d="M17.5638 88.4053C15.6245 72.8916 18.8219 57.1698 26.6668 43.6459C34.5117 30.1221 46.5719 19.5413 61.0015 13.5229C75.4312 7.50453 91.4354 6.38009 106.565 10.3217C121.694 14.2633 135.116 23.0538 144.774 35.3478C154.433 47.6419 159.798 62.7622 160.046 78.3947C160.295 94.0271 155.415 109.311 146.153 121.906C136.89 134.501 123.756 143.715 108.76 148.136C93.7633 152.557 77.7314 151.943 63.1174 146.387L88.5335 79.5335L17.5638 88.4053Z"/>
</mask>
<path d="M17.5638 88.4053C15.6245 72.8916 18.8219 57.1698 26.6668 43.6459C34.5117 30.1221 46.5719 19.5413 61.0015 13.5229C75.4312 7.50453 91.4354 6.38009 106.565 10.3217C121.694 14.2633 135.116 23.0538 144.774 35.3478C154.433 47.6419 159.798 62.7622 160.046 78.3947C160.295 94.0271 155.415 109.311 146.153 121.906C136.89 134.501 123.756 143.715 108.76 148.136C93.7633 152.557 77.7314 151.943 63.1174 146.387L88.5335 79.5335L17.5638 88.4053Z" fill="#FFE732" stroke="#171717" stroke-width="3.40581" mask="url(#path-1-inside-1_657_39776)"/>
<g clip-path="url(#clip0_657_39776)">
<rect x="97.7368" y="41.1826" width="44.8828" height="27.7839" rx="4.27456" transform="rotate(149.64 97.7368 41.1826)" fill="white"/>
<rect x="95.5762" y="37.4941" width="44.8828" height="3.20592" transform="rotate(149.64 95.5762 37.4941)" fill="#5ACAFF"/>
<rect x="87.4746" y="23.6636" width="44.8828" height="3.20592" transform="rotate(149.64 87.4746 23.6636)" fill="#5ACAFF"/>
<path d="M73.5118 44.2269L67.0768 40.5655L73.4653 36.8233L73.5118 44.2269Z" fill="#5ACAFF"/>
<path d="M69.1908 36.8502L75.6258 40.5117L69.2374 44.2538L69.1908 36.8502Z" fill="#5ACAFF"/>
</g>
<rect x="96.2746" y="40.8007" width="42.7456" height="25.6466" rx="3.20592" transform="rotate(149.64 96.2746 40.8007)" stroke="black" stroke-width="2.13728"/>
<defs>
<clipPath id="clip0_657_39776">
<rect x="97.7368" y="41.1826" width="44.8828" height="27.7839" rx="4.27456" transform="rotate(149.64 97.7368 41.1826)" fill="white"/>
</clipPath>
</defs>
</svg>
