<svg width="175" height="174" viewBox="0 0 175 174" fill="none" xmlns="http://www.w3.org/2000/svg">
<mask id="path-1-inside-1_657_39849" fill="white">
<path d="M17.5638 88.4053C16.3987 79.0855 17.0808 69.6274 19.571 60.5711C22.0611 51.5148 26.3107 43.0377 32.077 35.6237C37.8433 28.2097 45.0135 22.0041 53.1781 17.3612C61.3427 12.7182 70.3418 9.72888 79.6617 8.56381C88.9815 7.39875 98.4396 8.08078 107.496 10.571C116.552 13.0611 125.029 17.3107 132.443 23.077C139.857 28.8433 146.063 36.0135 150.706 44.1781C155.349 52.3427 158.338 61.3418 159.503 70.6617L88.5335 79.5335L17.5638 88.4053Z"/>
</mask>
<path d="M17.5638 88.4053C16.3987 79.0855 17.0808 69.6274 19.571 60.5711C22.0611 51.5148 26.3107 43.0377 32.077 35.6237C37.8433 28.2097 45.0135 22.0041 53.1781 17.3612C61.3427 12.7182 70.3418 9.72888 79.6617 8.56381C88.9815 7.39875 98.4396 8.08078 107.496 10.571C116.552 13.0611 125.029 17.3107 132.443 23.077C139.857 28.8433 146.063 36.0135 150.706 44.1781C155.349 52.3427 158.338 61.3418 159.503 70.6617L88.5335 79.5335L17.5638 88.4053Z" fill="#FFE732" stroke="#171717" stroke-width="3.40581" mask="url(#path-1-inside-1_657_39849)"/>
<g clip-path="url(#clip0_657_39849)">
<rect x="97.7368" y="41.1826" width="44.8828" height="27.7839" rx="4.27456" transform="rotate(149.64 97.7368 41.1826)" fill="white"/>
<rect x="95.5762" y="37.4941" width="44.8828" height="3.20592" transform="rotate(149.64 95.5762 37.4941)" fill="#5ACAFF"/>
<rect x="87.4746" y="23.6636" width="44.8828" height="3.20592" transform="rotate(149.64 87.4746 23.6636)" fill="#5ACAFF"/>
<path d="M73.5118 44.2269L67.0768 40.5655L73.4653 36.8233L73.5118 44.2269Z" fill="#5ACAFF"/>
<path d="M69.1908 36.8502L75.6258 40.5117L69.2374 44.2538L69.1908 36.8502Z" fill="#5ACAFF"/>
</g>
<rect x="96.2746" y="40.8007" width="42.7456" height="25.6466" rx="3.20592" transform="rotate(149.64 96.2746 40.8007)" stroke="black" stroke-width="2.13728"/>
<defs>
<clipPath id="clip0_657_39849">
<rect x="97.7368" y="41.1826" width="44.8828" height="27.7839" rx="4.27456" transform="rotate(149.64 97.7368 41.1826)" fill="white"/>
</clipPath>
</defs>
</svg>
