<svg preserveAspectRatio="none" width="100%" height="100%" overflow="visible" style="display: block;" viewBox="0 0 15.0259 31.1493" fill="none" xmlns="http://www.w3.org/2000/svg">
<g id="Group 79">
<path id="Ellipse 5" d="M8.92861 1.62331C9.59512 1.7475 10.2404 2.19444 10.8347 2.98691C11.4307 3.78175 11.9502 4.89357 12.3531 6.26312C13.1584 9.00082 13.4678 12.6695 13.0682 16.6093C12.6685 20.5489 11.64 23.9678 10.3194 26.3096C9.65874 27.4812 8.93708 28.3619 8.20491 28.9095C7.47486 29.4554 6.76446 29.65 6.09794 29.526C5.43133 29.4019 4.7862 28.955 4.19183 28.1624C3.59574 27.3675 3.07544 26.2558 2.67249 24.886C1.86722 22.1484 1.5577 18.4804 1.95732 14.5408C2.357 10.601 3.38555 7.18139 4.70617 4.83948C5.36694 3.66776 6.08936 2.78737 6.82163 2.23979C7.55176 1.69385 8.26202 1.49921 8.92861 1.62331Z" fill="var(--fill-0, #FFA4A4)" stroke="var(--stroke-0, #171717)"/>
</g>
</svg>
