<svg width="140" height="140" viewBox="0 0 140 140" fill="none" xmlns="http://www.w3.org/2000/svg">
<rect x="1" y="1" width="138" height="138" fill="#E1F5FF"/>
<rect x="1" y="1" width="138" height="138" stroke="#171717" stroke-width="2"/>
<path d="M111.649 61.4348C112.315 61.559 112.961 62.006 113.555 62.7984C114.151 63.5933 114.67 64.7051 115.073 66.0746C115.879 68.8123 116.188 72.4811 115.788 76.4208C115.389 80.3604 114.36 83.7793 113.04 86.1212C112.379 87.2927 111.657 88.1735 110.925 88.721C110.195 89.267 109.485 89.4615 108.818 89.3375C108.152 89.2134 107.506 88.7665 106.912 87.9739C106.316 87.179 105.796 86.0673 105.393 84.6975C104.587 81.9599 104.278 78.2919 104.678 74.3523C105.077 70.4125 106.106 66.9929 107.426 64.651C108.087 63.4793 108.81 62.5989 109.542 62.0513C110.272 61.5054 110.982 61.3107 111.649 61.4348Z" fill="#FFA4A4" stroke="#171717"/>
<path d="M29.0972 61.4348C28.4307 61.559 27.7854 62.006 27.1911 62.7984C26.5952 63.5933 26.0757 64.7051 25.6728 66.0746C24.8675 68.8123 24.558 72.4811 24.9577 76.4208C25.3574 80.3604 26.3859 83.7793 27.7064 86.1212C28.3671 87.2927 29.0888 88.1735 29.8209 88.721C30.551 89.267 31.2614 89.4615 31.9279 89.3375C32.5945 89.2134 33.2397 88.7665 33.834 87.9739C34.4301 87.179 34.9504 86.0673 35.3534 84.6975C36.1586 81.9599 36.4682 78.2919 36.0685 74.3523C35.6689 70.4125 34.6403 66.9929 33.3197 64.651C32.6589 63.4793 31.9365 62.5989 31.2042 62.0513C30.4741 61.5054 29.7638 61.3107 29.0972 61.4348Z" fill="#FFA4A4" stroke="#171717"/>
<path d="M70 12.5C90.7107 12.5 107.5 29.2893 107.5 50V89C107.5 109.711 90.7107 126.5 70 126.5C49.2893 126.5 32.5 109.711 32.5 89V50C32.5 29.2893 49.2893 12.5 70 12.5Z" fill="#FFA4A4" stroke="black"/>
<mask id="mask0_295_6754" style="mask-type:alpha" maskUnits="userSpaceOnUse" x="32" y="12" width="76" height="115">
<path d="M67 12.5H73C92.0538 12.5 107.5 27.9462 107.5 47V89C107.5 109.711 90.7107 126.5 70 126.5C49.2893 126.5 32.5 109.711 32.5 89V47C32.5 27.9462 47.9462 12.5 67 12.5Z" fill="#FFA4A4" stroke="black"/>
</mask>
<g mask="url(#mask0_295_6754)">
<path d="M37.1212 39.8506C37.8441 28.9331 50.0051 17.4743 56.117 13.2815C36.4667 17.7113 33.2492 28.3262 29.0711 44.836C25.7286 58.0438 30.0234 66.038 31.6961 68.2662C32.3215 63.5314 36.2958 57.4993 38.2047 55.0751C37.5277 52.9784 36.3807 51.0327 37.1212 39.8506Z" fill="#8E8A7F" stroke="#171717" stroke-linecap="round" stroke-linejoin="round"/>
<path d="M102.996 39.8506C102.273 28.9331 90.1118 17.4743 83.9999 13.2815C103.65 17.7113 106.868 28.3262 111.046 44.836C114.388 58.0438 110.094 66.038 108.421 68.2662C107.795 63.5314 103.821 57.4993 101.912 55.0751C102.589 52.9784 103.736 51.0327 102.996 39.8506Z" fill="#8E8A7F" stroke="#171717" stroke-linecap="round" stroke-linejoin="round"/>
<path fill-rule="evenodd" clip-rule="evenodd" d="M109.229 85.931C109.369 85.457 109.836 85.1582 110.325 85.2289C110.815 85.2997 111.178 85.7188 111.178 86.2132C111.178 105.158 110.177 114.229 105.177 125.71C104.065 128.263 101.74 130.208 98.9189 131.693C96.0847 133.184 92.6359 134.273 89.0957 135.058C82.0297 136.625 74.4179 137.021 70.1475 136.907C65.8769 137.021 58.2652 136.625 51.1992 135.058C47.6588 134.273 44.2102 133.184 41.376 131.693C38.5547 130.208 36.2302 128.263 35.1182 125.71C30.118 114.229 29.1172 105.158 29.1172 86.2132C29.1172 85.7189 29.4806 85.2999 29.9697 85.2289C30.459 85.158 30.9261 85.4569 31.0664 85.931C32.6982 91.4464 35.7377 97.2773 39.5264 101.71C43.3392 106.172 47.7586 109.048 52.1318 109.048H53.107C57.7202 109.048 61.9816 106.582 64.2803 102.582L64.3535 102.472C64.5402 102.229 64.8319 102.082 65.1436 102.082H75.1514C75.4631 102.082 75.7547 102.229 75.9414 102.472L76.0146 102.582C78.3133 106.582 82.5747 109.048 87.188 109.048H88.1631C92.5363 109.048 96.9557 106.172 100.769 101.71C104.557 97.2773 107.597 91.4463 109.229 85.931Z" fill="#8E8A7F"/>
<path d="M109.229 85.931L109.708 86.0729V86.0729L109.229 85.931ZM110.325 85.2289L110.397 84.734L110.397 84.734L110.325 85.2289ZM111.178 86.2132L111.678 86.2132V86.2132H111.178ZM105.177 125.71L105.635 125.91L105.635 125.91L105.177 125.71ZM98.9189 131.693L99.1518 132.135L99.1518 132.135L98.9189 131.693ZM89.0957 135.058L89.2039 135.546L89.204 135.546L89.0957 135.058ZM70.1475 136.907L70.1609 136.407C70.1519 136.407 70.143 136.407 70.1341 136.407L70.1475 136.907ZM51.1992 135.058L51.091 135.546H51.091L51.1992 135.058ZM41.376 131.693L41.1431 132.135H41.1431L41.376 131.693ZM35.1182 125.71L34.6598 125.91L34.6598 125.91L35.1182 125.71ZM29.1172 86.2132H28.6172V86.2132L29.1172 86.2132ZM29.9697 85.2289L29.8981 84.734L29.8979 84.7341L29.9697 85.2289ZM31.0664 85.931L30.587 86.0729L30.587 86.0729L31.0664 85.931ZM39.5264 101.71L39.1463 102.035L39.1463 102.035L39.5264 101.71ZM52.1318 109.048L52.1318 109.548H52.1318V109.048ZM64.2803 102.582L63.8637 102.306C63.8577 102.315 63.8521 102.324 63.8468 102.333L64.2803 102.582ZM64.3535 102.472L63.9568 102.168C63.9498 102.177 63.9432 102.186 63.9369 102.196L64.3535 102.472ZM65.1436 102.082V101.582H65.1434L65.1436 102.082ZM75.9414 102.472L76.358 102.196C76.3517 102.186 76.3451 102.177 76.3382 102.168L75.9414 102.472ZM76.0146 102.582L76.4482 102.333C76.4428 102.324 76.4372 102.315 76.4312 102.306L76.0146 102.582ZM100.769 101.71L101.149 102.035L101.149 102.035L100.769 101.71ZM109.229 85.931L109.708 86.0729C109.778 85.8374 110.01 85.6885 110.254 85.7237L110.325 85.2289L110.397 84.734C109.662 84.6278 108.96 85.0766 108.749 85.7892L109.229 85.931ZM110.325 85.2289L110.254 85.7237C110.497 85.759 110.678 85.9676 110.678 86.2132H111.178H111.678C111.678 85.47 111.132 84.8405 110.397 84.734L110.325 85.2289ZM111.178 86.2132L110.678 86.2132C110.678 105.137 109.677 114.125 104.718 125.511L105.177 125.71L105.635 125.91C110.677 114.333 111.678 105.178 111.678 86.2132L111.178 86.2132ZM105.177 125.71L104.718 125.511C103.671 127.915 101.46 129.791 98.6861 131.25L98.9189 131.693L99.1518 132.135C102.021 130.625 104.458 128.611 105.635 125.91L105.177 125.71ZM98.9189 131.693L98.6861 131.25C95.9059 132.713 92.5043 133.79 88.9875 134.57L89.0957 135.058L89.204 135.546C92.7676 134.756 96.2636 133.655 99.1518 132.135L98.9189 131.693ZM89.0957 135.058L88.9875 134.57C81.9685 136.126 74.3984 136.52 70.1609 136.407L70.1475 136.907L70.1341 137.406C74.4374 137.522 82.0909 137.123 89.2039 135.546L89.0957 135.058ZM70.1475 136.907L70.1341 136.407C65.8964 136.52 58.3264 136.126 51.3075 134.57L51.1992 135.058L51.091 135.546C58.204 137.123 65.8574 137.522 70.1609 137.406L70.1475 136.907ZM51.1992 135.058L51.3075 134.57C47.7905 133.79 44.3891 132.713 41.6088 131.25L41.376 131.693L41.1431 132.135C44.0314 133.655 47.5272 134.756 51.091 135.546L51.1992 135.058ZM41.376 131.693L41.6088 131.25C38.8351 129.79 36.624 127.915 35.5766 125.511L35.1182 125.71L34.6598 125.91C35.8364 128.611 38.2742 130.625 41.1431 132.135L41.376 131.693ZM35.1182 125.71L35.5766 125.511C30.6182 114.125 29.6172 105.137 29.6172 86.2132L29.1172 86.2132L28.6172 86.2132C28.6172 105.178 29.6178 114.333 34.6598 125.91L35.1182 125.71ZM29.1172 86.2132H29.6172C29.6172 85.9678 29.7977 85.7591 30.0415 85.7237L29.9697 85.2289L29.8979 84.7341C29.1634 84.8406 28.6172 85.47 28.6172 86.2132H29.1172ZM29.9697 85.2289L30.0414 85.7237C30.285 85.6884 30.5172 85.8372 30.587 86.0729L31.0664 85.931L31.5459 85.7892C31.335 85.0766 30.6331 84.6276 29.8981 84.734L29.9697 85.2289ZM31.0664 85.931L30.587 86.0729C32.237 91.6499 35.3083 97.5445 39.1463 102.035L39.5264 101.71L39.9065 101.385C36.167 97.01 33.1594 91.2428 31.5459 85.7892L31.0664 85.931ZM39.5264 101.71L39.1463 102.035C42.9963 106.54 47.5422 109.548 52.1318 109.548L52.1318 109.048L52.1318 108.548C47.975 108.548 43.6821 105.803 39.9065 101.385L39.5264 101.71ZM52.1318 109.048V109.548H53.107V109.048V108.548H52.1318V109.048ZM64.2803 102.582L64.6969 102.859L64.7701 102.749L64.3535 102.472L63.9369 102.196L63.8637 102.306L64.2803 102.582ZM64.3535 102.472L64.7503 102.776C64.843 102.655 64.9886 102.582 65.1437 102.582L65.1436 102.082L65.1434 101.582C64.6752 101.582 64.2374 101.802 63.9568 102.168L64.3535 102.472ZM65.1436 102.082V102.582H75.1514V102.082V101.582H65.1436V102.082ZM75.1514 102.082V102.582C75.3064 102.582 75.4518 102.655 75.5447 102.776L75.9414 102.472L76.3382 102.168C76.0576 101.802 75.6199 101.582 75.1514 101.582V102.082ZM75.9414 102.472L75.5248 102.749L75.5981 102.859L76.0146 102.582L76.4312 102.306L76.358 102.196L75.9414 102.472ZM87.188 109.048V109.548H88.1631V109.048V108.548H87.188V109.048ZM88.1631 109.048V109.548C92.7527 109.548 97.2986 106.54 101.149 102.035L100.769 101.71L100.388 101.385C96.6128 105.803 92.3199 108.548 88.1631 108.548V109.048ZM100.769 101.71L101.149 102.035C104.987 97.5445 108.058 91.6499 109.708 86.0729L109.229 85.931L108.749 85.7892C107.135 91.2428 104.128 97.0101 100.388 101.385L100.769 101.71ZM76.0146 102.582L75.5811 102.832C77.969 106.987 82.3957 109.548 87.188 109.548V109.048V108.548C82.7537 108.548 78.6576 106.178 76.4482 102.333L76.0146 102.582ZM53.107 109.048V109.548C57.8992 109.548 62.326 106.987 64.7138 102.832L64.2803 102.582L63.8468 102.333C61.6373 106.178 57.5413 108.548 53.107 108.548V109.048Z" fill="#171717"/>
<path d="M80.333 102.5L59.667 102.5C59.0227 102.5 58.5 101.977 58.5 101.333C58.5002 99.7685 59.7685 98.5002 61.333 98.5L78.667 98.5C80.2315 98.5002 81.4998 99.7685 81.5 101.333C81.5 101.977 80.9773 102.5 80.333 102.5Z" fill="#F43F38" stroke="#171717"/>
<path d="M69.6401 89.1021C71.1006 89.0869 73.5911 89.0411 76.1294 89.4077C78.9542 89.8158 82.1145 90.7693 84.021 93.106C86.1983 95.7747 87.5185 98.8376 87.9644 101.375C88.1861 102.636 88.2029 103.836 87.9468 104.818C87.6902 105.801 87.1029 106.727 86.0181 107.043C85.6627 107.147 85.2786 107.045 85.022 106.778C84.3392 106.068 83.6261 105.009 82.8813 103.997C82.104 102.94 81.2103 101.81 80.0679 100.765C77.8888 98.7728 74.7381 97.0275 69.6616 96.9155C64.5789 97.0253 61.4181 98.8804 59.2231 100.944C58.0751 102.023 57.1782 103.172 56.3931 104.215C55.6473 105.207 54.9147 106.235 54.1802 106.851C53.9256 107.065 53.5811 107.136 53.2622 107.043C52.1776 106.727 51.59 105.8 51.3335 104.818C51.0774 103.836 51.0942 102.636 51.3159 101.375C51.7618 98.8376 53.0819 95.7748 55.2593 93.106C57.1657 90.7692 60.326 89.8158 63.1509 89.4077C65.6891 89.0411 68.1796 89.0869 69.6401 89.1021Z" fill="#8E8A7F"/>
<path d="M69.6401 89.1021L69.6349 89.6021L69.6453 89.602L69.6401 89.1021ZM76.1294 89.4077L76.2009 88.9129L76.2009 88.9129L76.1294 89.4077ZM84.021 93.106L84.4084 92.7899L84.4084 92.7899L84.021 93.106ZM87.9644 101.375L88.4568 101.288L88.4568 101.288L87.9644 101.375ZM87.9468 104.818L88.4306 104.944L88.4306 104.944L87.9468 104.818ZM86.0181 107.043L86.158 107.523L86.1581 107.523L86.0181 107.043ZM85.022 106.778L84.6616 107.124L84.6616 107.124L85.022 106.778ZM82.8813 103.997L83.2841 103.7L83.2841 103.7L82.8813 103.997ZM80.0679 100.765L80.4053 100.396L80.4053 100.396L80.0679 100.765ZM69.6616 96.9155L69.6726 96.4156C69.6654 96.4155 69.6581 96.4155 69.6508 96.4156L69.6616 96.9155ZM59.2231 100.944L58.8807 100.58L58.8807 100.58L59.2231 100.944ZM56.3931 104.215L55.9935 103.915L55.9935 103.915L56.3931 104.215ZM54.1802 106.851L54.5014 107.234L54.5015 107.234L54.1802 106.851ZM53.2622 107.043L53.1221 107.523L53.1222 107.523L53.2622 107.043ZM51.3335 104.818L50.8497 104.944L50.8497 104.944L51.3335 104.818ZM51.3159 101.375L50.8235 101.288L50.8235 101.288L51.3159 101.375ZM55.2593 93.106L54.8719 92.7899L54.8719 92.7899L55.2593 93.106ZM63.1509 89.4077L63.0794 88.9129L63.0794 88.9129L63.1509 89.4077ZM69.6401 89.1021L69.6453 89.602C71.1114 89.5868 73.5638 89.5423 76.0579 89.9026L76.1294 89.4077L76.2009 88.9129C73.6184 88.5398 71.0898 88.587 69.6349 88.6021L69.6401 89.1021ZM76.1294 89.4077L76.0579 89.9026C78.8534 90.3064 81.851 91.2373 83.6336 93.4221L84.021 93.106L84.4084 92.7899C82.378 90.3014 79.055 89.3252 76.2009 88.9129L76.1294 89.4077ZM84.021 93.106L83.6336 93.422C85.7593 96.0276 87.0415 99.0122 87.4719 101.461L87.9644 101.375L88.4568 101.288C87.9955 98.663 86.6373 95.5219 84.4084 92.7899L84.021 93.106ZM87.9644 101.375L87.4719 101.461C87.6864 102.682 87.6946 103.804 87.463 104.692L87.9468 104.818L88.4306 104.944C88.7112 103.869 88.6857 102.591 88.4568 101.288L87.9644 101.375ZM87.9468 104.818L87.463 104.692C87.2304 105.582 86.7286 106.315 85.878 106.563L86.0181 107.043L86.1581 107.523C87.4771 107.139 88.15 106.019 88.4306 104.944L87.9468 104.818ZM86.0181 107.043L85.8782 106.563C85.7014 106.615 85.51 106.564 85.3823 106.431L85.022 106.778L84.6616 107.124C85.0472 107.525 85.624 107.679 86.158 107.523L86.0181 107.043ZM85.022 106.778L85.3824 106.431C84.7299 105.753 84.0512 104.743 83.2841 103.7L82.8813 103.997L82.4786 104.293C83.201 105.275 83.9485 106.383 84.6616 107.124L85.022 106.778ZM82.8813 103.997L83.2841 103.7C82.5 102.635 81.5836 101.474 80.4053 100.396L80.0679 100.765L79.7305 101.134C80.837 102.146 81.708 103.246 82.4786 104.293L82.8813 103.997ZM80.0679 100.765L80.4053 100.396C78.1422 98.327 74.8773 96.5304 69.6726 96.4156L69.6616 96.9155L69.6506 97.4154C74.599 97.5245 77.6354 99.2186 79.7305 101.134L80.0679 100.765ZM69.6616 96.9155L69.6508 96.4156C64.4305 96.5284 61.1549 98.4416 58.8807 100.58L59.2231 100.944L59.5656 101.308C61.6814 99.3191 64.7273 97.5222 69.6724 97.4154L69.6616 96.9155ZM59.2231 100.944L58.8807 100.58C57.6997 101.69 56.7816 102.867 55.9935 103.915L56.3931 104.215L56.7926 104.516C57.5748 103.476 58.4504 102.357 59.5656 101.308L59.2231 100.944ZM56.3931 104.215L55.9935 103.915C55.2259 104.935 54.5372 105.899 53.8588 106.468L54.1802 106.851L54.5015 107.234C55.2921 106.571 56.0687 105.478 56.7926 104.516L56.3931 104.215ZM54.1802 106.851L53.8589 106.468C53.7326 106.574 53.5613 106.61 53.4022 106.563L53.2622 107.043L53.1222 107.523C53.601 107.663 54.1186 107.555 54.5014 107.234L54.1802 106.851ZM53.2622 107.043L53.4023 106.563C52.5518 106.315 52.0498 105.582 51.8173 104.692L51.3335 104.818L50.8497 104.944C51.1302 106.019 51.8034 107.138 53.1221 107.523L53.2622 107.043ZM51.3335 104.818L51.8173 104.692C51.5857 103.804 51.5939 102.682 51.8084 101.461L51.3159 101.375L50.8235 101.288C50.5945 102.591 50.5692 103.869 50.8497 104.944L51.3335 104.818ZM51.3159 101.375L51.8084 101.461C52.2388 99.0122 53.5209 96.0277 55.6467 93.422L55.2593 93.106L54.8719 92.7899C52.643 95.5219 51.2848 98.663 50.8235 101.288L51.3159 101.375ZM55.2593 93.106L55.6467 93.422C57.4292 91.2372 60.4268 90.3065 63.2224 89.9026L63.1509 89.4077L63.0794 88.9129C60.2252 89.3252 56.9022 90.3012 54.8719 92.7899L55.2593 93.106ZM63.1509 89.4077L63.2224 89.9026C65.7164 89.5423 68.1688 89.5868 69.6349 89.602L69.6401 89.1021L69.6453 88.6021C68.1904 88.587 65.6618 88.5398 63.0794 88.9129L63.1509 89.4077Z" fill="#171717"/>
<path d="M69.9998 5.5C74.2079 5.5 77.995 6.16557 80.7117 7.22363C82.0715 7.75327 83.1383 8.37115 83.8562 9.03223C84.5736 9.69287 84.905 10.3585 84.905 11C84.905 11.6415 84.5736 12.3071 83.8562 12.9678C83.1383 13.6288 82.0715 14.2467 80.7117 14.7764C77.995 15.8344 74.2079 16.5 69.9998 16.5C65.7917 16.5 62.0045 15.8344 59.2878 14.7764C57.9283 14.2468 56.8622 13.6287 56.1443 12.9678C55.4268 12.3071 55.0945 11.6415 55.0945 11C55.0945 10.3585 55.4268 9.69289 56.1443 9.03223C56.8622 8.3713 57.9283 7.75317 59.2878 7.22363C62.0045 6.16558 65.7917 5.50001 69.9998 5.5Z" fill="#8E8A7F" stroke="#171717"/>
<path d="M78 77C80.0708 79.3864 84.3699 84.9272 85 88" stroke="#171717" stroke-linecap="round" stroke-linejoin="round"/>
<path d="M62 77C59.9292 79.3864 55.6301 84.9272 55 88" stroke="#171717" stroke-linecap="round" stroke-linejoin="round"/>
</g>
<path d="M86.3384 56.8223C88.0138 56.8223 89.5063 57.1604 90.561 57.6846C91.6464 58.224 92.1245 58.8766 92.1245 59.4463C92.1245 60.0159 91.6464 60.6685 90.561 61.208C89.5063 61.7322 88.0138 62.0703 86.3384 62.0703C84.6629 62.0703 83.1705 61.7322 82.1157 61.208C81.0302 60.6685 80.5522 60.016 80.5522 59.4463C80.5523 58.8766 81.0303 58.224 82.1157 57.6846C83.1705 57.1604 84.6629 56.8223 86.3384 56.8223Z" fill="#FFFDFD" stroke="#171717"/>
<mask id="mask1_295_6754" style="mask-type:alpha" maskUnits="userSpaceOnUse" x="80" y="56" width="13" height="7">
<path d="M86.3384 56.8223C88.0138 56.8223 89.5063 57.1604 90.561 57.6846C91.6464 58.224 92.1245 58.8766 92.1245 59.4463C92.1245 60.0159 91.6464 60.6685 90.561 61.208C89.5063 61.7322 88.0138 62.0703 86.3384 62.0703C84.6629 62.0703 83.1705 61.7322 82.1157 61.208C81.0302 60.6685 80.5522 60.016 80.5522 59.4463C80.5523 58.8766 81.0303 58.224 82.1157 57.6846C83.1705 57.1604 84.6629 56.8223 86.3384 56.8223Z" fill="#FFFDFD" stroke="#171717"/>
</mask>
<g mask="url(#mask1_295_6754)">
<path d="M86.5413 55.8223C87.789 55.8223 88.8801 56.951 88.8801 58.4463C88.8801 59.9417 87.789 61.0703 86.5413 61.0703C85.2935 61.0703 84.2024 59.9417 84.2024 58.4463C84.2024 56.9509 85.2935 55.8223 86.5413 55.8223Z" fill="#171717" stroke="#171717"/>
</g>
<path d="M54.8401 56.8223C56.5155 56.8223 58.008 57.1604 59.0627 57.6846C60.1481 58.224 60.6262 58.8766 60.6262 59.4463C60.6262 60.0159 60.1481 60.6685 59.0627 61.208C58.008 61.7322 56.5155 62.0703 54.8401 62.0703C53.1646 62.0703 51.6722 61.7322 50.6174 61.208C49.5319 60.6685 49.054 60.016 49.054 59.4463C49.054 58.8766 49.532 58.224 50.6174 57.6846C51.6722 57.1604 53.1646 56.8223 54.8401 56.8223Z" fill="#FFFDFD" stroke="#171717"/>
<mask id="mask2_295_6754" style="mask-type:alpha" maskUnits="userSpaceOnUse" x="48" y="56" width="14" height="7">
<path d="M54.8401 56.8223C56.5155 56.8223 58.008 57.1604 59.0627 57.6846C60.1481 58.224 60.6262 58.8766 60.6262 59.4463C60.6262 60.0159 60.1481 60.6685 59.0627 61.208C58.008 61.7322 56.5155 62.0703 54.8401 62.0703C53.1646 62.0703 51.6722 61.7322 50.6174 61.208C49.5319 60.6685 49.054 60.016 49.054 59.4463C49.054 58.8766 49.532 58.224 50.6174 57.6846C51.6722 57.1604 53.1646 56.8223 54.8401 56.8223Z" fill="#FFFDFD" stroke="#171717"/>
</mask>
<g mask="url(#mask2_295_6754)">
<path d="M55.043 55.8223C56.2907 55.8223 57.3818 56.951 57.3818 58.4463C57.3818 59.9417 56.2907 61.0703 55.043 61.0703C53.7952 61.0703 52.7041 59.9417 52.7041 58.4463C52.7041 56.9509 53.7953 55.8223 55.043 55.8223Z" fill="#171717" stroke="#171717"/>
</g>
<path d="M77.8964 52.4678C76.4939 52.1245 75.7557 50.3908 76.0729 50.0927C76.5391 49.7728 78.6276 50.3808 81.6933 50.4149C86.9934 50.4738 87.9665 49.8701 90.8905 50.4432C93.7518 51.004 95.8297 53.9484 96 55C95.6594 54.4158 94.2188 53.1386 91.1816 52.7036C87.385 52.1598 79.6496 52.8969 77.8964 52.4678Z" fill="#8E8A7F" stroke="#171717" stroke-linecap="round" stroke-linejoin="round"/>
<path d="M62.1036 52.4678C63.5061 52.1245 64.2443 50.3908 63.9271 50.0927C63.4609 49.7728 61.3724 50.3808 58.3067 50.4149C53.0066 50.4738 52.0335 49.8701 49.1095 50.4432C46.2482 51.004 44.1703 53.9484 44 55C44.3406 54.4158 45.7812 53.1386 48.8184 52.7036C52.615 52.1598 60.3504 52.8969 62.1036 52.4678Z" fill="#8E8A7F" stroke="#171717" stroke-linecap="round" stroke-linejoin="round"/>
<path d="M67 12.5H73C92.0538 12.5 107.5 27.9462 107.5 47V89C107.5 109.711 90.7107 126.5 70 126.5C49.2893 126.5 32.5 109.711 32.5 89V47C32.5 27.9462 47.9462 12.5 67 12.5Z" stroke="black"/>
<path d="M65.5 54.5L63.8246 76.699C63.6494 79.0201 65.485 81 67.8127 81C69.9188 81 72.2489 81 74 81" stroke="black" stroke-linecap="round" stroke-linejoin="round"/>
<path d="M79.5 56.9999C80.6667 55.8332 83.9 53.6999 87.5 54.4999C91.1 55.2999 92.6667 56.4999 93 56.9999" stroke="black" stroke-linecap="round" stroke-linejoin="round"/>
<path d="M61.5 56.9999C60.3333 55.8332 57.1 53.6999 53.5 54.4999C49.9 55.2999 48.3333 56.4999 48 56.9999" stroke="black" stroke-linecap="round" stroke-linejoin="round"/>
</svg>
