<svg preserveAspectRatio="none" width="100%" height="100%" overflow="visible" style="display: block;" viewBox="0 0 76 115" fill="none" xmlns="http://www.w3.org/2000/svg">
<g id="Mask group">
<mask id="mask0_411_11410" style="mask-type:alpha" maskUnits="userSpaceOnUse" x="0" y="0" width="76" height="115">
<path id="Rectangle 106" d="M35 0.5H41C60.0538 0.5 75.5 15.9462 75.5 35V77C75.5 97.7107 58.7107 114.5 38 114.5C17.2893 114.5 0.5 97.7107 0.5 77V35C0.5 16.244 15.4672 0.984116 34.1094 0.511719L35 0.5Z" fill="var(--fill-0, #FFA4A4)" stroke="var(--stroke-0, black)"/>
</mask>
<g mask="url(#mask0_411_11410)">
<g id="Group 82">
<g id="Group 81">
<path id="Vector 80" d="M5.12117 27.8505C5.84411 16.9331 18.0051 5.47428 24.117 1.28142C4.46668 5.71123 1.24918 16.3261 -2.92889 32.8359C-6.27135 46.0438 -1.97657 54.0379 -0.303859 56.2661C0.321554 51.5313 4.29578 45.4992 6.20471 43.075C5.52771 40.9784 4.38071 39.0327 5.12117 27.8505Z" fill="var(--fill-0, #8E8A7F)" stroke="var(--stroke-0, #171717)" stroke-linecap="round" stroke-linejoin="round"/>
<path id="Vector 81" d="M70.9959 27.8505C70.273 16.9331 58.1119 5.47428 52.0001 1.28142C71.6504 5.71123 74.8679 16.3261 79.046 32.8359C82.3884 46.0438 78.0936 54.0379 76.4209 56.2661C75.7955 51.5313 71.8213 45.4992 69.9124 43.075C70.5894 40.9784 71.7364 39.0327 70.9959 27.8505Z" fill="var(--fill-0, #8E8A7F)" stroke="var(--stroke-0, #171717)" stroke-linecap="round" stroke-linejoin="round"/>
</g>
<g id="Union">
<path d="M77.2285 73.9309C77.3688 73.4569 77.836 73.158 78.3252 73.2287C78.8145 73.2996 79.1777 73.7187 79.1777 74.2131C79.1777 93.1575 78.177 102.229 73.1768 113.71C72.0647 116.263 69.7403 118.208 66.919 119.693C64.0847 121.184 60.636 122.273 57.0957 123.058C50.0297 124.625 42.4179 125.021 38.1475 124.906C33.8769 125.021 26.2653 124.625 19.1992 123.058C15.6589 122.273 12.2102 121.184 9.37599 119.693C6.55466 118.208 4.23017 116.263 3.11818 113.71C-1.88202 102.229 -2.88279 93.1575 -2.8828 74.2131C-2.8828 73.7188 -2.51945 73.2997 -2.03026 73.2287C-1.54094 73.1579 -1.07385 73.4568 -0.933581 73.9309C0.698246 79.4463 3.73765 85.2771 7.52638 89.7102C11.3393 94.1715 15.7585 97.048 20.1318 97.0481H21.107C25.7203 97.0481 29.9816 94.5821 32.2803 90.5822L32.3535 90.4719C32.5402 90.2285 32.8319 90.0823 33.1436 90.0822H43.1514C43.4631 90.0822 43.7547 90.2284 43.9414 90.4719L44.0147 90.5822C46.3133 94.5821 50.5747 97.0481 55.188 97.0481H56.1631C60.5364 97.0481 64.9557 94.1714 68.7686 89.7102C72.5573 85.2771 75.5967 79.4463 77.2285 73.9309Z" fill="var(--fill-0, #8E8A7F)"/>
<path d="M77.2285 73.9309L77.708 74.0727V74.0727L77.2285 73.9309ZM78.3252 73.2287L78.3969 72.7339L78.3967 72.7339L78.3252 73.2287ZM79.1777 74.2131L79.6777 74.2131V74.2131H79.1777ZM73.1768 113.71L73.6352 113.91L73.6352 113.91L73.1768 113.71ZM66.919 119.693L67.1518 120.135L67.1518 120.135L66.919 119.693ZM57.0957 123.058L57.204 123.546L57.204 123.546L57.0957 123.058ZM38.1475 124.906L38.1609 124.407C38.1519 124.406 38.143 124.406 38.1341 124.407L38.1475 124.906ZM19.1992 123.058L19.091 123.546H19.091L19.1992 123.058ZM9.37599 119.693L9.14312 120.135H9.14312L9.37599 119.693ZM3.11818 113.71L2.65976 113.91L2.65977 113.91L3.11818 113.71ZM-2.8828 74.2131H-3.3828V74.2131L-2.8828 74.2131ZM-2.03026 73.2287L-2.10193 72.7339L-2.10205 72.7339L-2.03026 73.2287ZM-0.933581 73.9309L-1.41304 74.0727L-1.41304 74.0727L-0.933581 73.9309ZM7.52638 89.7102L7.14628 90.035H7.14628L7.52638 89.7102ZM20.1318 97.0481L20.1318 97.5481H20.1318V97.0481ZM32.2803 90.5822L31.8637 90.3057C31.8578 90.3147 31.8521 90.3238 31.8468 90.3331L32.2803 90.5822ZM32.3535 90.4719L31.9568 90.1676C31.9498 90.1766 31.9432 90.1859 31.9369 90.1954L32.3535 90.4719ZM33.1436 90.0822V89.5822H33.1435L33.1436 90.0822ZM43.9414 90.4719L44.358 90.1954C44.3517 90.1859 44.3451 90.1766 44.3382 90.1676L43.9414 90.4719ZM44.0147 90.5822L44.4482 90.3331C44.4428 90.3238 44.4372 90.3147 44.4313 90.3057L44.0147 90.5822ZM68.7686 89.7102L69.1487 90.035V90.035L68.7686 89.7102ZM77.2285 73.9309L77.708 74.0727C77.7776 73.8373 78.0099 73.6883 78.2537 73.7236L78.3252 73.2287L78.3967 72.7339C77.6621 72.6277 76.9599 73.0764 76.7491 73.789L77.2285 73.9309ZM78.3252 73.2287L78.2535 73.7236C78.4973 73.7589 78.6777 73.9675 78.6777 74.2131H79.1777H79.6777C79.6777 73.4699 79.1317 72.8403 78.3969 72.7339L78.3252 73.2287ZM79.1777 74.2131L78.6777 74.2131C78.6777 93.1375 77.6768 102.125 72.7184 113.511L73.1768 113.71L73.6352 113.91C78.6772 102.333 79.6777 93.1776 79.6777 74.2131L79.1777 74.2131ZM73.1768 113.71L72.7184 113.51C71.6709 115.915 69.4598 117.79 66.6861 119.25L66.919 119.693L67.1518 120.135C70.0207 118.625 72.4585 116.611 73.6352 113.91L73.1768 113.71ZM66.919 119.693L66.6861 119.25C63.9059 120.713 60.5043 121.79 56.9875 122.57L57.0957 123.058L57.204 123.546C60.7677 122.756 64.2635 121.655 67.1518 120.135L66.919 119.693ZM57.0957 123.058L56.9875 122.57C49.9685 124.126 42.3984 124.52 38.1609 124.407L38.1475 124.906L38.1341 125.406C42.4374 125.522 50.0909 125.123 57.204 123.546L57.0957 123.058ZM38.1475 124.906L38.1341 124.407C33.8964 124.52 26.3265 124.126 19.3075 122.57L19.1992 123.058L19.091 123.546C26.2041 125.123 33.8574 125.522 38.1609 125.406L38.1475 124.906ZM19.1992 123.058L19.3075 122.57C15.7905 121.79 12.3891 120.713 9.60885 119.25L9.37599 119.693L9.14312 120.135C12.0314 121.655 15.5272 122.756 19.091 123.546L19.1992 123.058ZM9.37599 119.693L9.60886 119.25C6.8351 117.79 4.62396 115.915 3.57658 113.511L3.11818 113.71L2.65977 113.91C3.83637 116.611 6.27421 118.625 9.14312 120.135L9.37599 119.693ZM3.11818 113.71L3.57659 113.511C-1.3818 102.125 -2.38279 93.1375 -2.3828 74.2131L-2.8828 74.2131L-3.3828 74.2131C-3.38279 93.1776 -2.38224 102.333 2.65976 113.91L3.11818 113.71ZM-2.8828 74.2131H-2.3828C-2.3828 73.9677 -2.20231 73.7589 -1.95847 73.7235L-2.03026 73.2287L-2.10205 72.7339C-2.83659 72.8405 -3.3828 73.4698 -3.3828 74.2131H-2.8828ZM-2.03026 73.2287L-1.95859 73.7236C-1.71496 73.6883 -1.48276 73.8371 -1.41304 74.0727L-0.933581 73.9309L-0.454125 73.789C-0.664943 73.0765 -1.36692 72.6274 -2.10193 72.7339L-2.03026 73.2287ZM-0.933581 73.9309L-1.41304 74.0727C0.237044 79.6498 3.30831 85.5443 7.14628 90.035L7.52638 89.7102L7.90648 89.3853C4.16699 85.0098 1.15945 79.2427 -0.454126 73.789L-0.933581 73.9309ZM7.52638 89.7102L7.14628 90.035C10.9964 94.5399 15.5422 97.548 20.1318 97.5481L20.1318 97.0481L20.1319 96.5481C15.9749 96.548 11.6821 93.8031 7.90648 89.3853L7.52638 89.7102ZM20.1318 97.0481V97.5481H21.107V97.0481V96.5481H20.1318V97.0481ZM32.2803 90.5822L32.6969 90.8587L32.7701 90.7484L32.3535 90.4719L31.9369 90.1954L31.8637 90.3057L32.2803 90.5822ZM32.3535 90.4719L32.7503 90.7762C32.8431 90.6552 32.9886 90.5823 33.1437 90.5822L33.1436 90.0822L33.1435 89.5822C32.6752 89.5823 32.2374 89.8017 31.9568 90.1676L32.3535 90.4719ZM33.1436 90.0822V90.5822H43.1514V90.0822V89.5822H33.1436V90.0822ZM43.1514 90.0822V90.5822C43.3064 90.5822 43.4518 90.6551 43.5447 90.7762L43.9414 90.4719L44.3382 90.1676C44.0576 89.8018 43.6199 89.5822 43.1514 89.5822V90.0822ZM43.9414 90.4719L43.5248 90.7484L43.5981 90.8587L44.0147 90.5822L44.4313 90.3057L44.358 90.1954L43.9414 90.4719ZM55.188 97.0481V97.5481H56.1631V97.0481V96.5481H55.188V97.0481ZM56.1631 97.0481V97.5481C60.7528 97.5481 65.2986 94.5398 69.1487 90.035L68.7686 89.7102L68.3885 89.3853C64.6128 93.803 60.32 96.5481 56.1631 96.5481V97.0481ZM68.7686 89.7102L69.1487 90.035C72.9866 85.5443 76.0579 79.6498 77.708 74.0727L77.2285 73.9309L76.7491 73.789C75.1355 79.2427 72.1279 85.0099 68.3885 89.3853L68.7686 89.7102ZM44.0147 90.5822L43.5811 90.8314C45.969 94.9864 50.3957 97.5481 55.188 97.5481V97.0481V96.5481C50.7537 96.5481 46.6576 94.1777 44.4482 90.3331L44.0147 90.5822ZM21.107 97.0481V97.5481C25.8992 97.5481 30.326 94.9864 32.7138 90.8314L32.2803 90.5822L31.8468 90.3331C29.6373 94.1777 25.5413 96.5481 21.107 96.5481V97.0481Z" fill="var(--stroke-0, #171717)"/>
</g>
<path id="Rectangle 103" d="M48.3331 90.5L27.6671 90.5C27.0227 90.5 26.5001 89.9773 26.5001 89.333C26.5002 87.7685 27.7685 86.5002 29.3331 86.5L46.6671 86.5C48.2316 86.5002 49.4999 87.7685 49.5001 89.333C49.5001 89.9773 48.9774 90.5 48.3331 90.5Z" fill="var(--fill-0, #F43F38)" stroke="var(--stroke-0, #171717)"/>
<g id="Union_2">
<path d="M37.6408 77.1026C39.1013 77.0874 41.5918 77.0416 44.1301 77.4083C46.9549 77.8164 50.1152 78.7697 52.0217 81.1065C54.1989 83.7754 55.5192 86.8381 55.965 89.3751C56.1867 90.6369 56.2036 91.837 55.9474 92.8184C55.6909 93.801 55.1034 94.7274 54.0187 95.044C53.6634 95.1476 53.2793 95.045 53.0226 94.7784C52.3398 94.0684 51.6268 93.0093 50.882 91.9971C50.1047 90.9407 49.211 89.8103 48.0685 88.7657C45.8895 86.7733 42.7389 85.0281 37.6623 84.9161C32.5794 85.0258 29.4188 86.8809 27.2238 88.9444C26.0757 90.0237 25.1789 91.1721 24.3937 92.2159C23.648 93.2073 22.9153 94.2355 22.1808 94.8516C21.9263 95.065 21.5817 95.1369 21.2629 95.044C20.1781 94.7274 19.5907 93.801 19.3342 92.8184C19.078 91.8369 19.0948 90.637 19.3166 89.3751C19.7624 86.8381 21.0825 83.7754 23.2599 81.1065C25.1664 78.7697 28.3266 77.8164 31.1515 77.4083C33.6899 77.0416 36.1803 77.0874 37.6408 77.1026Z" fill="var(--fill-0, #8E8A7F)"/>
<path d="M37.6408 77.1026L37.6356 77.6027L37.646 77.6026L37.6408 77.1026ZM44.1301 77.4083L44.2015 76.9134L44.2015 76.9134L44.1301 77.4083ZM52.0217 81.1065L52.4091 80.7904L52.4091 80.7904L52.0217 81.1065ZM55.965 89.3751L56.4575 89.2885V89.2885L55.965 89.3751ZM55.9474 92.8184L56.4312 92.9447L56.4312 92.9447L55.9474 92.8184ZM54.0187 95.044L54.1587 95.524L54.1588 95.524L54.0187 95.044ZM53.0226 94.7784L52.6622 95.125L52.6624 95.1251L53.0226 94.7784ZM50.882 91.9971L51.2847 91.7008L51.2847 91.7008L50.882 91.9971ZM48.0685 88.7657L48.4059 88.3967L48.4059 88.3967L48.0685 88.7657ZM37.6623 84.9161L37.6733 84.4162C37.666 84.416 37.6588 84.416 37.6515 84.4162L37.6623 84.9161ZM27.2238 88.9444L26.8813 88.5801L26.8813 88.5801L27.2238 88.9444ZM24.3937 92.2159L23.9942 91.9153L23.9942 91.9153L24.3937 92.2159ZM22.1808 94.8516L22.5021 95.2348L22.5022 95.2347L22.1808 94.8516ZM21.2629 95.044L21.1228 95.524L21.123 95.5241L21.2629 95.044ZM19.3342 92.8184L18.8504 92.9447L18.8504 92.9447L19.3342 92.8184ZM19.3166 89.3751L18.8241 89.2885L18.8241 89.2885L19.3166 89.3751ZM23.2599 81.1065L22.8725 80.7904L22.8725 80.7904L23.2599 81.1065ZM31.1515 77.4083L31.0801 76.9134L31.08 76.9134L31.1515 77.4083ZM37.6408 77.1026L37.646 77.6026C39.1121 77.5873 41.5645 77.5429 44.0586 77.9031L44.1301 77.4083L44.2015 76.9134C41.6191 76.5404 39.0905 76.5875 37.6356 76.6026L37.6408 77.1026ZM44.1301 77.4083L44.0586 77.9031C46.8542 78.307 49.8517 79.2377 51.6342 81.4226L52.0217 81.1065L52.4091 80.7904C50.3787 78.3018 47.0557 77.3257 44.2015 76.9134L44.1301 77.4083ZM52.0217 81.1065L51.6342 81.4226C53.76 84.0282 55.0422 87.0128 55.4726 89.4616L55.965 89.3751L56.4575 89.2885C55.9962 86.6635 54.6379 83.5225 52.4091 80.7904L52.0217 81.1065ZM55.965 89.3751L55.4726 89.4616C55.6871 90.6825 55.6953 91.8045 55.4636 92.6921L55.9474 92.8184L56.4312 92.9447C56.7119 91.8695 56.6864 90.5914 56.4575 89.2885L55.965 89.3751ZM55.9474 92.8184L55.4637 92.6921C55.2311 93.5829 54.7291 94.3158 53.8786 94.564L54.0187 95.044L54.1588 95.524C55.4776 95.139 56.1507 94.0192 56.4312 92.9447L55.9474 92.8184ZM54.0187 95.044L53.8788 94.564C53.7022 94.6155 53.5107 94.5645 53.3829 94.4317L53.0226 94.7784L52.6624 95.1251C53.0478 95.5256 53.6246 95.6798 54.1587 95.524L54.0187 95.044ZM53.0226 94.7784L53.383 94.4318C52.7306 93.7534 52.0519 92.7434 51.2847 91.7008L50.882 91.9971L50.4793 92.2935C51.2017 93.2752 51.9491 94.3834 52.6622 95.125L53.0226 94.7784ZM50.882 91.9971L51.2847 91.7008C50.5006 90.6352 49.5842 89.4741 48.4059 88.3967L48.0685 88.7657L47.7311 89.1347C48.8377 90.1465 49.7087 91.2462 50.4793 92.2935L50.882 91.9971ZM48.0685 88.7657L48.4059 88.3967C46.1429 86.3275 42.878 84.531 37.6733 84.4162L37.6623 84.9161L37.6513 85.416C42.5997 85.5251 45.6361 87.2191 47.7311 89.1347L48.0685 88.7657ZM37.6623 84.9161L37.6515 84.4162C32.4311 84.5289 29.1556 86.4422 26.8813 88.5801L27.2238 88.9444L27.5663 89.3087C29.6821 87.3196 32.7278 85.5227 37.6731 85.416L37.6623 84.9161ZM27.2238 88.9444L26.8813 88.5801C25.7003 89.6904 24.7823 90.8676 23.9942 91.9153L24.3937 92.2159L24.7933 92.5165C25.5755 91.4766 26.4511 90.3571 27.5663 89.3087L27.2238 88.9444ZM24.3937 92.2159L23.9942 91.9153C23.2266 92.9358 22.5379 93.8995 21.8595 94.4686L22.1808 94.8516L22.5022 95.2347C23.2928 94.5715 24.0694 93.4788 24.7933 92.5164L24.3937 92.2159ZM22.1808 94.8516L21.8596 94.4685C21.7335 94.5742 21.5619 94.6103 21.4027 94.564L21.2629 95.044L21.123 95.5241C21.6015 95.6634 22.1192 95.5558 22.5021 95.2348L22.1808 94.8516ZM21.2629 95.044L21.4029 94.564C20.5524 94.3158 20.0506 93.583 19.8179 92.6921L19.3342 92.8184L18.8504 92.9447C19.1309 94.0191 19.8039 95.1391 21.1228 95.524L21.2629 95.044ZM19.3342 92.8184L19.8179 92.6921C19.5862 91.8044 19.5945 90.6825 19.809 89.4616L19.3166 89.3751L18.8241 89.2885C18.5952 90.5914 18.5697 91.8695 18.8504 92.9447L19.3342 92.8184ZM19.3166 89.3751L19.809 89.4616C20.2394 87.0127 21.5215 84.0283 23.6474 81.4226L23.2599 81.1065L22.8725 80.7904C20.6436 83.5225 19.2854 86.6635 18.8241 89.2885L19.3166 89.3751ZM23.2599 81.1065L23.6474 81.4226C25.4299 79.2376 28.4274 78.307 31.223 77.9031L31.1515 77.4083L31.08 76.9134C28.2258 77.3257 24.9029 78.3017 22.8725 80.7904L23.2599 81.1065ZM31.1515 77.4083L31.223 77.9031C33.7171 77.5429 36.1695 77.5874 37.6356 77.6026L37.6408 77.1026L37.646 76.6026C36.1912 76.5875 33.6626 76.5404 31.0801 76.9134L31.1515 77.4083Z" fill="var(--stroke-0, #171717)"/>
</g>
<path id="Ellipse 29" d="M37.9999 -6.5C42.208 -6.5 45.9951 -5.83443 48.7118 -4.77637C50.0716 -4.24673 51.1384 -3.62885 51.8563 -2.96777C52.5737 -2.30713 52.9051 -1.64151 52.9051 -1C52.9051 -0.358486 52.5737 0.307129 51.8563 0.967773C51.1384 1.62885 50.0716 2.24673 48.7118 2.77637C45.9951 3.83443 42.208 4.5 37.9999 4.5C33.7918 4.49999 30.0046 3.83442 27.2879 2.77637C25.9284 2.24683 24.8623 1.6287 24.1444 0.967773C23.4269 0.307108 23.0946 -0.358467 23.0946 -1C23.0946 -1.64153 23.4269 -2.30711 24.1444 -2.96777C24.8623 -3.6287 25.9284 -4.24683 27.2879 -4.77637C30.0046 -5.83442 33.7918 -6.49999 37.9999 -6.5Z" fill="var(--fill-0, #8E8A7F)" stroke="var(--stroke-0, #171717)"/>
</g>
<path id="Vector 70" d="M46 65C48.0708 67.3864 52.3699 72.9272 53 76" stroke="var(--stroke-0, #171717)" stroke-linecap="round" stroke-linejoin="round"/>
<path id="Vector 71" d="M30 65C27.9292 67.3864 23.6301 72.9272 23 76" stroke="var(--stroke-0, #171717)" stroke-linecap="round" stroke-linejoin="round"/>
</g>
</g>
</svg>
