<svg preserveAspectRatio="none" width="100%" height="100%" overflow="visible" style="display: block;" viewBox="0 0 12.572 6.24832" fill="none" xmlns="http://www.w3.org/2000/svg">
<g id="Group 71">
<path id="Ellipse 7" d="M6.28613 0.500106C7.96155 0.500122 9.45406 0.838219 10.5088 1.36241C11.5942 1.90187 12.0722 2.55448 12.0723 3.12413C12.0723 3.69379 11.5942 4.34637 10.5088 4.88585C9.45406 5.41004 7.96155 5.74814 6.28613 5.74815C4.61067 5.74815 3.11823 5.41005 2.06348 4.88585C0.977971 4.34635 0.5 3.69382 0.5 3.12413C0.500047 2.55445 0.978007 1.90188 2.06348 1.36241C3.11822 0.838219 4.61069 0.500106 6.28613 0.500106Z" fill="var(--fill-0, #FFFDFD)" stroke="var(--stroke-0, #171717)"/>
<g id="Mask group">
<mask id="mask0_411_11360" style="mask-type:alpha" maskUnits="userSpaceOnUse" x="0" y="0" width="13" height="7">
<path id="Ellipse 9" d="M6.28613 0.5C7.96155 0.500016 9.45406 0.838113 10.5088 1.3623C11.5942 1.90176 12.0722 2.55437 12.0723 3.12402C12.0723 3.69368 11.5942 4.34627 10.5088 4.88574C9.45406 5.40993 7.96155 5.74803 6.28613 5.74805C4.61067 5.74805 3.11823 5.40995 2.06348 4.88574C0.977971 4.34625 0.5 3.69372 0.5 3.12402C0.500047 2.55435 0.978007 1.90178 2.06348 1.3623C3.11822 0.838113 4.61069 0.5 6.28613 0.5Z" fill="var(--fill-0, #FFFDFD)" stroke="var(--stroke-0, #171717)"/>
</mask>
<g mask="url(#mask0_411_11360)">
<path id="Ellipse 8" d="M6.489 -0.5C7.73671 -0.499987 8.82783 0.628691 8.82787 2.12402C8.82787 3.6194 7.73673 4.74803 6.489 4.74805C5.24127 4.74805 4.15014 3.61941 4.15014 2.12402C4.15018 0.628682 5.24129 -0.5 6.489 -0.5Z" fill="var(--fill-0, #171717)" stroke="var(--stroke-0, #171717)"/>
</g>
</g>
</g>
</svg>
