<svg xmlns="http://www.w3.org/2000/svg" viewBox="0 0 92.5259 115.775" fill="none">
  <path d="M46.2617 1C54.2105 1 61.9082 1.8104 69.2197 3.32812C76.9485 4.93267 84.245 7.32697 90.9492 10.3877H90.9502C91.2977 10.5463 91.5263 10.8993 91.5264 11.2969V54.375C90.8869 81.6414 73.583 104.815 49.3428 114.2C47.3617 114.967 45.1627 114.967 43.1816 114.2C19.3406 104.97 2.20887 82.401 1.04297 55.7188L1 54.4443V10.7939C1 10.7042 1.05037 10.6281 1.12109 10.5947L1.12207 10.5957L1.57617 10.3857C8.28053 7.32539 15.5761 4.93253 23.3047 3.32812C30.6163 1.81036 38.3134 1.00001 46.2617 1Z" fill="#FFFDFD" stroke="#171717" stroke-width="2"/>
  <g transform="translate(17.76 25) scale(0.93569)">
    <circle cx="31.0984" cy="31.0984" r="30.0984" fill="#FFFDFD" stroke="#171717" stroke-width="2"/>
    <circle cx="31.0984" cy="31.011" r="25.8037" fill="#FFFDFD" stroke="#171717" stroke-width="2"/>
    <g fill="#FFFDFD" stroke="#171717" stroke-width="1.5" stroke-linejoin="round">
      <path d="M31.0798 10.3545V31.0164L36.4993 23.3952L31.0798 10.3545Z"/>
      <path d="M11.5632 24.0959L31.0215 31.0447L22.0216 33.5854L11.5632 24.0959Z"/>
      <path d="M18.0477 47.3452L31.2439 31.1713L31.0825 40.5095L18.0477 47.3452Z"/>
      <path d="M44.1152 47.3452L31.2577 31.1713L31.0805 40.5095L44.1152 47.3452Z"/>
      <path d="M50.6673 24.0959L31.209 31.0447L40.2089 33.5854L50.6673 24.0959Z"/>
      <path d="M31.0798 10.3545V31.0164L25.6603 23.3952L31.0798 10.3545Z"/>
      <path d="M11.5632 24.0959L31.0215 31.0447L25.6669 23.3778L11.5632 24.0959Z"/>
      <path d="M18.0479 47.224L31.2441 31.05L21.9205 33.6434L18.0479 47.224Z"/>
      <path d="M44.1152 47.3452L31.2577 31.0502L40.2426 33.6436L44.1152 47.3452Z"/>
      <path d="M50.6673 24.0959L31.209 31.0447L36.5636 23.3778L50.6673 24.0959Z"/>
    </g>
  </g>
</svg>
