<svg width="264" height="264" viewBox="0 0 264 264" fill="none" xmlns="http://www.w3.org/2000/svg">
<g clip-path="url(#clip0_450_11096)">
<rect width="264" height="264" rx="3.47368" fill="#E1F5FF"/>
<path d="M135.688 130.032C152.733 130.032 168.119 134.043 179.209 140.401C190.331 146.778 196.939 155.384 196.939 164.532C196.939 173.67 190.344 182.026 179.224 188.155C168.134 194.267 152.744 198.032 135.688 198.032C118.638 198.032 103.124 194.144 91.9082 187.907C80.6566 181.65 73.9395 173.167 73.9395 164.032C73.9395 154.897 80.6566 146.414 91.9082 140.157C103.124 133.92 118.638 130.032 135.688 130.032Z" fill="#00A168" stroke="#171717" stroke-width="2"/>
<path d="M79.0293 96.7308C80.6698 96.0106 82.7761 96.3785 84.9484 97.882C87.1052 99.3746 89.1797 101.903 90.5993 105.136C92.019 108.37 92.4767 111.609 92.116 114.207C91.7526 116.824 90.598 118.623 88.9575 119.344C87.317 120.064 85.2107 119.696 83.0383 118.192C80.8815 116.7 78.8067 114.171 77.387 110.937C75.9675 107.704 75.51 104.466 75.8708 101.868C76.2342 99.2508 77.3887 97.4511 79.0293 96.7308Z" fill="#FFA4A4" stroke="#171717" stroke-width="2"/>
<path d="M188.293 96.7308C186.652 96.0106 184.546 96.3785 182.374 97.882C180.217 99.3746 178.143 101.903 176.723 105.136C175.303 108.37 174.846 111.609 175.206 114.207C175.57 116.824 176.724 118.623 178.365 119.344C180.005 120.064 182.112 119.696 184.284 118.192C186.441 116.7 188.516 114.171 189.935 110.937C191.355 107.704 191.812 104.466 191.451 101.868C191.088 99.2508 189.934 97.4511 188.293 96.7308Z" fill="#FFA4A4" stroke="#171717" stroke-width="2"/>
<rect x="113.939" y="150.032" width="42" height="34" fill="#FFA4A4" stroke="#171717" stroke-width="2"/>
<path d="M182.439 55.0317V112.532C182.439 138.765 161.173 160.032 134.939 160.032C108.706 160.032 87.4395 138.765 87.4395 112.532V55.0317H182.439Z" fill="#FFA4A4" stroke="#171717" stroke-width="2"/>
<path d="M123.24 90C118.553 88.8087 108.39 86.9025 105.24 88.8087" stroke="#171717" stroke-width="3" stroke-linecap="round"/>
<path d="M142.24 90C146.928 88.8087 157.09 86.9025 160.24 88.8087" stroke="#171717" stroke-width="3" stroke-linecap="round"/>
<path d="M128.939 105.032C126.976 110.249 123.638 121.519 125.994 124.858C128.35 128.197 137.273 126.249 141.439 124.858" stroke="#171717" stroke-width="2" stroke-linecap="round"/>
<path d="M88.9409 96.0315C87.3409 99.2315 81.9409 95.6982 79.4409 93.5315C72.4409 77.0313 80.9409 56.5315 83.1709 49.2477C84.9549 43.4207 94.4275 38.6758 98.9409 37.0318C101.341 14.6318 143.274 17.6984 163.941 22.0318V25.5318C171.541 26.7318 181.261 36.3651 185.171 41.0318L181.225 44.6324C189.009 54.7334 190.941 88.5313 185.171 94.9165C179.401 101.302 176.941 93.5315 178.164 84.4303C179.387 75.3291 172.441 62.5312 169.049 60.4095C165.657 58.2879 138.441 51.0312 147.826 60.1325C157.211 69.2339 156.441 67.0315 143.887 66.9775C131.333 66.9235 111.941 54.0315 100.941 56.5315C89.9409 59.0315 90.9409 92.0315 88.9409 96.0315Z" fill="#43280D" stroke="#171717" stroke-width="2" stroke-linejoin="round"/>
<mask id="path-11-inside-1_450_11096" fill="white">
<path d="M87.8732 167.816C88.5175 169.168 89.8816 170.029 91.3792 170.029H177.041C178.491 170.029 179.811 169.196 180.435 167.887C181.313 166.046 183.499 165.24 185.362 166.071L215.92 179.713C219.279 181.213 222.018 183.824 223.677 187.107L263.168 265.247C266.148 271.144 265.197 278.266 260.775 283.174L217.843 330.821C214.997 333.98 213.586 338.142 213.636 342.393C213.664 344.719 213.604 346.578 213.443 347.896C212.249 357.69 210.417 365.581 208.808 371.202C207.067 377.279 201.37 381.029 195.049 381.029H71.0028C66.2168 381.029 61.9179 378.676 60.4861 374.11C58.9421 369.185 57.046 361.039 55.4434 347.896C55.2819 346.571 55.1824 344.962 55.1392 343.099C55.0446 339.014 53.6568 335.041 50.9338 331.995L-0.884334 274.034C-0.884583 274.034 -0.884901 274.033 -0.885255 274.033C-0.886507 274.033 -0.887086 274.031 -0.886472 274.03L44.5248 187.706C46.1318 184.651 48.6835 182.198 51.7992 180.712L82.6958 165.981C84.6322 165.058 86.9504 165.88 87.8732 167.816Z"/>
</mask>
<path d="M87.8732 167.816C88.5175 169.168 89.8816 170.029 91.3792 170.029H177.041C178.491 170.029 179.811 169.196 180.435 167.887C181.313 166.046 183.499 165.24 185.362 166.071L215.92 179.713C219.279 181.213 222.018 183.824 223.677 187.107L263.168 265.247C266.148 271.144 265.197 278.266 260.775 283.174L217.843 330.821C214.997 333.98 213.586 338.142 213.636 342.393C213.664 344.719 213.604 346.578 213.443 347.896C212.249 357.69 210.417 365.581 208.808 371.202C207.067 377.279 201.37 381.029 195.049 381.029H71.0028C66.2168 381.029 61.9179 378.676 60.4861 374.11C58.9421 369.185 57.046 361.039 55.4434 347.896C55.2819 346.571 55.1824 344.962 55.1392 343.099C55.0446 339.014 53.6568 335.041 50.9338 331.995L-0.884334 274.034C-0.884583 274.034 -0.884901 274.033 -0.885255 274.033C-0.886507 274.033 -0.887086 274.031 -0.886472 274.03L44.5248 187.706C46.1318 184.651 48.6835 182.198 51.7992 180.712L82.6958 165.981C84.6322 165.058 86.9504 165.88 87.8732 167.816Z" fill="#00A168"/>
<path d="M213.443 347.896L215.429 348.138V348.138L213.443 347.896ZM55.4434 347.896L53.4581 348.138V348.138L55.4434 347.896ZM82.6958 165.981L81.8351 164.176L82.6958 165.981ZM87.8732 167.816L89.6787 166.956L87.8732 167.816ZM50.9338 331.995L52.4248 330.662L50.9338 331.995ZM60.4861 374.11L62.3945 373.511L60.4861 374.11ZM208.808 371.202L210.73 371.753L208.808 371.202ZM217.843 330.821L216.358 329.482L217.843 330.821ZM263.168 265.247L261.383 266.149L263.168 265.247ZM260.775 283.174L259.289 281.835L260.775 283.174ZM215.92 179.713L215.104 181.54L215.92 179.713ZM223.677 187.107L221.892 188.009L223.677 187.107ZM180.435 167.887L178.63 167.027L180.435 167.887ZM185.362 166.071L184.546 167.898L185.362 166.071ZM-0.885255 274.033L-1.51771 275.931L-0.885255 274.033ZM-0.886472 274.03L0.883557 274.961L-0.886472 274.03ZM-0.884334 274.034L-2.37535 275.367L-0.884334 274.034ZM91.3792 170.029V172.029H177.041V170.029V168.029H91.3792V170.029ZM185.362 166.071L184.546 167.898L215.104 181.54L215.92 179.713L216.735 177.887L186.177 164.245L185.362 166.071ZM223.677 187.107L221.892 188.009L261.383 266.149L263.168 265.247L264.953 264.345L225.462 186.205L223.677 187.107ZM260.775 283.174L259.289 281.835L216.358 329.482L217.843 330.821L219.329 332.16L262.26 284.513L260.775 283.174ZM213.636 342.393L211.636 342.417C211.664 344.717 211.602 346.47 211.458 347.654L213.443 347.896L215.429 348.138C215.606 346.686 215.664 344.722 215.636 342.369L213.636 342.393ZM213.443 347.896L211.458 347.654C210.278 357.333 208.469 365.12 206.885 370.652L208.808 371.202L210.73 371.753C212.366 366.042 214.22 358.048 215.429 348.138L213.443 347.896ZM195.049 381.029V379.029H71.0028V381.029V383.029H195.049V381.029ZM60.4861 374.11L62.3945 373.511C60.8969 368.735 59.0212 360.714 57.4287 347.654L55.4434 347.896L53.4581 348.138C55.0709 361.364 56.9874 369.636 58.5777 374.708L60.4861 374.11ZM55.4434 347.896L57.4287 347.654C57.2778 346.416 57.181 344.877 57.1387 343.052L55.1392 343.099L53.1398 343.145C53.1838 345.046 53.2859 346.726 53.4581 348.138L55.4434 347.896ZM50.9338 331.995L52.4248 330.662L0.606681 272.701L-0.884334 274.034L-2.37535 275.367L49.4428 333.328L50.9338 331.995ZM-0.886472 274.03L0.883557 274.961L46.2948 188.637L44.5248 187.706L42.7547 186.774L-2.6565 273.099L-0.886472 274.03ZM51.7992 180.712L52.66 182.517L83.5565 167.787L82.6958 165.981L81.8351 164.176L50.9385 178.907L51.7992 180.712ZM82.6958 165.981L83.5565 167.787C84.4958 167.339 85.6201 167.738 86.0677 168.677L87.8732 167.816L89.6787 166.956C88.2807 164.022 84.7687 162.778 81.8351 164.176L82.6958 165.981ZM44.5248 187.706L46.2948 188.637C47.7009 185.964 49.9337 183.817 52.66 182.517L51.7992 180.712L50.9385 178.907C47.4334 180.578 44.5626 183.338 42.7547 186.774L44.5248 187.706ZM55.1392 343.099L57.1387 343.052C57.0344 338.554 55.5038 334.106 52.4248 330.662L50.9338 331.995L49.4428 333.328C51.8098 335.975 53.0547 339.474 53.1398 343.145L55.1392 343.099ZM71.0028 381.029V379.029C66.833 379.029 63.4951 377.022 62.3945 373.511L60.4861 374.11L58.5777 374.708C60.3407 380.331 65.6006 383.029 71.0028 383.029V381.029ZM208.808 371.202L206.885 370.652C205.423 375.756 200.603 379.029 195.049 379.029V381.029V383.029C202.137 383.029 208.712 378.803 210.73 371.753L208.808 371.202ZM217.843 330.821L216.358 329.482C213.142 333.051 211.58 337.715 211.636 342.417L213.636 342.393L215.636 342.369C215.591 338.568 216.853 334.908 219.329 332.16L217.843 330.821ZM263.168 265.247L261.383 266.149C263.991 271.309 263.159 277.541 259.289 281.835L260.775 283.174L262.26 284.513C267.236 278.991 268.306 270.979 264.953 264.345L263.168 265.247ZM215.92 179.713L215.104 181.54C218.043 182.852 220.441 185.136 221.892 188.009L223.677 187.107L225.462 186.205C223.596 182.511 220.514 179.574 216.735 177.887L215.92 179.713ZM180.435 167.887L182.24 168.748C182.651 167.886 183.674 167.508 184.546 167.898L185.362 166.071L186.177 164.245C183.323 162.971 179.974 164.205 178.63 167.027L180.435 167.887ZM-0.885255 274.033L-0.252799 272.136C0.916388 272.526 1.45733 273.871 0.883557 274.961L-0.886472 274.03L-2.6565 273.099C-3.23151 274.192 -2.6894 275.54 -1.51771 275.931L-0.885255 274.033ZM177.041 170.029V172.029C179.262 172.029 181.285 170.753 182.24 168.748L180.435 167.887L178.63 167.027C178.338 167.639 177.72 168.029 177.041 168.029V170.029ZM-0.884334 274.034L0.606681 272.701C0.376038 272.443 0.0805051 272.247 -0.252799 272.136L-0.885255 274.033L-1.51771 275.931C-1.85031 275.82 -2.1452 275.624 -2.37535 275.367L-0.884334 274.034ZM91.3792 170.029V168.029C90.6528 168.029 89.9912 167.612 89.6787 166.956L87.8732 167.816L86.0677 168.677C87.0437 170.725 89.1104 172.029 91.3792 172.029V170.029Z" fill="#171717" mask="url(#path-11-inside-1_450_11096)"/>
<path d="M68.4546 223.032C62.1091 269.181 54.4331 331.157 56.4375 347.874C58.0083 360.975 59.8655 369.114 61.3815 374.048C62.7947 378.648 67.1027 381.032 71.9146 381.032H193.585C199.939 381.032 205.655 377.244 207.373 371.127C208.952 365.507 210.745 357.635 211.915 347.874C213.457 335.015 205.663 270.682 199.431 223.032" stroke="#171717" stroke-width="2" stroke-linecap="round"/>
<path d="M73.4395 164.032C73.4395 183.362 95.9739 199.032 129.939 199.032L111.939 164.032H73.4395Z" fill="#00A168"/>
<path d="M119.439 199.032C86.1309 199.032 73.9355 183.362 73.9355 164.032" stroke="#171717" stroke-width="2" stroke-linecap="round"/>
<path d="M129.939 199.032L111.939 164.032" stroke="#171717" stroke-width="2" stroke-linecap="round"/>
<path d="M111.939 189.032L107.439 225.032" stroke="#171717" stroke-width="2" stroke-linecap="round"/>
<path d="M197.439 164.032C197.439 183.362 174.506 199.032 139.939 199.032L158.258 164.032H197.439Z" fill="#00A168"/>
<path d="M150.625 199.032C184.523 199.032 196.935 183.362 196.935 164.032" stroke="#171717" stroke-width="2" stroke-linecap="round"/>
<path d="M139.939 199.032L158.258 164.032" stroke="#171717" stroke-width="2" stroke-linecap="round"/>
<path d="M155.439 189.032L159.939 225.032" stroke="#171717" stroke-width="2" stroke-linecap="round"/>
<path d="M113.24 95.6426C115.647 95.6426 117.795 96.1318 119.316 96.8926C120.877 97.6727 121.598 98.632 121.598 99.5C121.598 100.368 120.877 101.327 119.316 102.107C117.795 102.868 115.647 103.357 113.24 103.357C110.833 103.357 108.686 102.868 107.164 102.107C105.604 101.327 104.883 100.368 104.883 99.5C104.883 98.632 105.604 97.6727 107.164 96.8926C108.686 96.1318 110.833 95.6426 113.24 95.6426Z" fill="#FFFDFD" stroke="#171717" stroke-width="1.28571"/>
<circle cx="113.24" cy="99.5" r="3.85714" fill="#171717" stroke="#171717" stroke-width="1.28571"/>
<path d="M151.24 95.6426C153.647 95.6426 155.795 96.1318 157.316 96.8926C158.877 97.6727 159.598 98.632 159.598 99.5C159.598 100.368 158.877 101.327 157.316 102.107C155.795 102.868 153.647 103.357 151.24 103.357C148.833 103.357 146.686 102.868 145.164 102.107C143.604 101.327 142.883 100.368 142.883 99.5C142.883 98.632 143.604 97.6727 145.164 96.8926C146.686 96.1318 148.833 95.6426 151.24 95.6426Z" fill="#FFFDFD" stroke="#171717" stroke-width="1.28571"/>
<circle cx="151.24" cy="99.5" r="3.85714" fill="#171717" stroke="#171717" stroke-width="1.28571"/>
<path d="M132.24 133C136.512 133 140.351 133.633 142.545 134.084C144.166 134.417 145.24 135.854 145.24 137.448C145.24 139.41 143.65 141 141.688 141H122.792C120.831 141 119.24 139.41 119.24 137.448C119.24 135.854 120.314 134.417 121.936 134.084C124.13 133.633 127.968 133 132.24 133Z" fill="#FFFDFD" stroke="#171717" stroke-width="2"/>
</g>
<defs>
<clipPath id="clip0_450_11096">
<rect width="264" height="264" rx="3.47368" fill="white"/>
</clipPath>
</defs>
</svg>
