<svg width="264" height="264" viewBox="0 0 264 264" fill="none" xmlns="http://www.w3.org/2000/svg">
<g clip-path="url(#clip0_464_13671)">
<rect width="264" height="264" rx="3.47368" fill="#E1F5FF"/>
<rect x="111" y="143.032" width="42" height="41" fill="#FFA4A4" stroke="#171717" stroke-width="2"/>
<mask id="path-3-inside-1_464_13671" fill="white">
<path d="M194.31 165.603C209.226 165.603 222.15 175.865 225.347 190.436C234.745 233.275 252.523 317.982 249.7 333.469C247.66 344.664 244.373 353.373 241.761 359.047C239.523 363.91 234.524 366.603 229.171 366.603H31.1238C27.4552 366.603 23.9478 365.212 22.1945 361.989C19.7333 357.466 16.3101 348.921 13.4933 333.469C9.78788 313.142 27.8597 231.298 37.5665 189.875C40.9199 175.566 53.7096 165.603 68.4064 165.603H194.31Z"/>
</mask>
<path d="M194.31 165.603C209.226 165.603 222.15 175.865 225.347 190.436C234.745 233.275 252.523 317.982 249.7 333.469C247.66 344.664 244.373 353.373 241.761 359.047C239.523 363.91 234.524 366.603 229.171 366.603H31.1238C27.4552 366.603 23.9478 365.212 22.1945 361.989C19.7333 357.466 16.3101 348.921 13.4933 333.469C9.78788 313.142 27.8597 231.298 37.5665 189.875C40.9199 175.566 53.7096 165.603 68.4064 165.603H194.31Z" fill="#FFE732"/>
<path d="M194.31 165.603L194.31 163.603H194.31V165.603ZM225.347 190.436L227.3 190.007V190.007L225.347 190.436ZM249.7 333.469L251.668 333.827V333.827L249.7 333.469ZM13.4933 333.469L11.5257 333.827H11.5257L13.4933 333.469ZM37.5665 189.875L35.6193 189.419L35.6193 189.419L37.5665 189.875ZM68.4064 165.603V163.603H68.4063L68.4064 165.603ZM241.761 359.047L243.578 359.883L241.761 359.047ZM194.31 165.603L194.31 167.603C208.3 167.603 220.401 177.224 223.393 190.864L225.347 190.436L227.3 190.007C223.9 174.507 210.153 163.603 194.31 163.603L194.31 165.603ZM225.347 190.436L223.393 190.864C228.091 212.277 234.88 244.138 240.14 272.573C242.771 286.793 245.015 300.133 246.425 310.871C247.13 316.241 247.623 320.937 247.853 324.754C248.087 328.618 248.039 331.429 247.733 333.11L249.7 333.469L251.668 333.827C252.067 331.637 252.082 328.413 251.846 324.513C251.608 320.566 251.102 315.768 250.391 310.35C248.967 299.511 246.709 286.093 244.073 271.846C238.801 243.346 232.001 211.434 227.3 190.007L225.347 190.436ZM249.7 333.469L247.733 333.11C245.727 344.114 242.499 352.662 239.945 358.211L241.761 359.047L243.578 359.883C246.248 354.084 249.592 345.215 251.668 333.827L249.7 333.469ZM229.171 366.603V364.603H31.1238V366.603V368.603H229.171V366.603ZM22.1945 361.989L23.9512 361.033C21.6194 356.748 18.2516 348.419 15.4609 333.11L13.4933 333.469L11.5257 333.827C14.3686 349.423 17.8472 358.184 20.4377 362.945L22.1945 361.989ZM13.4933 333.469L15.4609 333.11C14.5957 328.364 14.9846 319.722 16.3126 308.517C17.6299 297.402 19.8359 284.02 22.4663 269.95C27.7261 241.815 34.6628 211.032 39.5138 190.331L37.5665 189.875L35.6193 189.419C30.7634 210.14 23.8108 240.991 18.5344 269.215C15.8966 283.325 13.6727 296.805 12.3404 308.046C11.0187 319.198 10.5381 328.41 11.5257 333.827L13.4933 333.469ZM37.5665 189.875L39.5138 190.331C42.6513 176.943 54.6214 167.603 68.4064 167.603L68.4064 165.603L68.4063 163.603C52.7977 163.603 39.1884 174.189 35.6193 189.419L37.5665 189.875ZM68.4064 165.603V167.603H194.31V165.603V163.603H68.4064V165.603ZM31.1238 366.603V364.603C27.9004 364.603 25.2357 363.394 23.9512 361.033L22.1945 361.989L20.4377 362.945C22.6599 367.029 27.01 368.603 31.1238 368.603V366.603ZM241.761 359.047L239.945 358.211C238.087 362.247 233.881 364.603 229.171 364.603V366.603V368.603C235.167 368.603 240.959 365.572 243.578 359.883L241.761 359.047Z" fill="#171717" mask="url(#path-3-inside-1_464_13671)"/>
<path d="M67.0253 213.823C60.8426 259.972 53.3634 321.948 55.3164 338.665C56.8312 351.632 58.6195 359.738 60.0882 364.687C61.4775 369.368 65.8333 371.823 70.7164 371.823H188.571C194.979 371.823 200.731 367.973 202.417 361.79C203.947 356.178 205.676 348.352 206.807 338.665C208.31 325.806 200.716 261.473 194.643 213.823" stroke="#171717" stroke-width="2"/>
<path d="M76.9238 89.7308C78.5643 89.0106 80.6706 89.3785 82.843 90.882C84.9997 92.3746 87.0742 94.9031 88.4939 98.1363C89.9135 101.37 90.3713 104.609 90.0105 107.207C89.6471 109.824 88.4925 111.623 86.852 112.344C85.2115 113.064 83.1052 112.696 80.9328 111.192C78.776 109.7 76.7012 107.171 75.2816 103.937C73.862 100.704 73.4046 97.4655 73.7653 94.8675C74.1287 92.2508 75.2833 90.4511 76.9238 89.7308Z" fill="#FFA4A4" stroke="#171717" stroke-width="2"/>
<path d="M186.188 89.7308C184.547 89.0106 182.441 89.3785 180.268 90.882C178.112 92.3746 176.037 94.9031 174.617 98.1363C173.198 101.37 172.74 104.609 173.101 107.207C173.464 109.824 174.619 111.623 176.259 112.344C177.9 113.064 180.006 112.696 182.178 111.192C184.335 109.7 186.41 107.171 187.83 103.937C189.249 100.704 189.707 97.4655 189.346 94.8675C188.983 92.2508 187.828 90.4511 186.188 89.7308Z" fill="#FFA4A4" stroke="#171717" stroke-width="2"/>
<rect x="87" y="30" width="91" height="123" rx="45.5" fill="#FFA4A4" stroke="#171717" stroke-width="2"/>
<mask id="mask0_464_13671" style="mask-type:alpha" maskUnits="userSpaceOnUse" x="87" y="31" width="91" height="121">
<rect x="87.5" y="31.5" width="90" height="120" rx="45" fill="#FFA4A4" stroke="black"/>
</mask>
<g mask="url(#mask0_464_13671)">
<path d="M174.406 64.6695C174.895 60.2464 173.391 55.363 170.993 50.7071C168.923 46.6868 172.834 41.9077 175.576 45.5151C180.875 52.486 181.896 60.936 182.912 71.6021C183.602 78.8477 182.272 84.3005 180.475 88.1765C179.035 91.2812 174.591 89.7312 173.285 86.4761C172.673 84.9482 171.995 83.5152 171.37 82.3123C170.676 80.9759 170.72 79.4328 171.388 78.1284C172.387 76.1768 173.501 72.8461 174.406 64.6695Z" fill="#8E8A7F" stroke="#171717" stroke-width="2" stroke-linecap="round" stroke-linejoin="round"/>
<path d="M91.1839 64.671C90.6944 60.2479 92.1982 55.3644 94.5959 50.7086C96.6664 46.6882 92.7553 41.9092 90.0131 45.5165C84.7141 52.4875 83.6934 60.9375 82.6772 71.6036C81.9869 78.8491 83.317 84.302 85.1147 88.178C86.5547 91.2827 90.9981 89.7326 92.3039 86.4775C92.9167 84.9497 93.5942 83.5167 94.2192 82.3138C94.9135 80.9774 94.8693 79.4343 94.2014 78.1299C93.2022 76.1783 92.0886 72.8475 91.1839 64.671Z" fill="#8E8A7F" stroke="#171717" stroke-width="2" stroke-linecap="round" stroke-linejoin="round"/>
<rect x="122" y="139" width="21" height="24" rx="7" fill="#8E8A7F" stroke="black" stroke-width="2"/>
</g>
<path d="M123 80C118.313 78.8087 108.15 76.9025 105 78.8087" stroke="#171717" stroke-width="3" stroke-linecap="round"/>
<path d="M142 80C146.687 78.8087 156.85 76.9025 160 78.8087" stroke="#171717" stroke-width="3" stroke-linecap="round"/>
<path d="M131.617 95C130.772 99.5746 129.334 109.456 130.349 112.383C131.364 115.311 135.206 113.603 137 112.383" stroke="#171717" stroke-width="2" stroke-linecap="round"/>
<path d="M113 85.6426C115.407 85.6426 117.554 86.1318 119.076 86.8926C120.637 87.6727 121.357 88.632 121.357 89.5C121.357 90.368 120.637 91.3273 119.076 92.1074C117.554 92.8682 115.407 93.3574 113 93.3574C110.593 93.3574 108.446 92.8682 106.924 92.1074C105.363 91.3273 104.643 90.368 104.643 89.5C104.643 88.632 105.363 87.6727 106.924 86.8926C108.446 86.1318 110.593 85.6426 113 85.6426Z" fill="#FFFDFD" stroke="#171717" stroke-width="1.28571"/>
<circle cx="113" cy="89.5" r="3.85714" fill="#005286" stroke="#171717" stroke-width="1.28571"/>
<path d="M151 85.6426C153.407 85.6426 155.554 86.1318 157.076 86.8926C158.637 87.6727 159.357 88.632 159.357 89.5C159.357 90.368 158.637 91.3273 157.076 92.1074C155.554 92.8682 153.407 93.3574 151 93.3574C148.593 93.3574 146.446 92.8682 144.924 92.1074C143.363 91.3273 142.643 90.368 142.643 89.5C142.643 88.632 143.363 87.6727 144.924 86.8926C146.446 86.1318 148.593 85.6426 151 85.6426Z" fill="#FFFDFD" stroke="#171717" stroke-width="1.28571"/>
<circle cx="151" cy="89.5" r="3.85714" fill="#005286" stroke="#171717" stroke-width="1.28571"/>
<path d="M132 133C123.408 133 115.768 131.715 112.094 130.979C110.254 130.61 109 128.987 109 127.153L109 125.285C109 122.933 111.02 121.089 113.362 121.302L131.819 122.979C131.94 122.99 132.06 122.99 132.181 122.979L150.638 121.302C152.98 121.089 155 122.933 155 125.285L155 127.153L154.985 127.494C154.841 129.185 153.631 130.633 151.906 130.979C148.232 131.715 140.592 133 132 133Z" fill="#FFFDFD" stroke="#171717" stroke-width="2"/>
</g>
<defs>
<clipPath id="clip0_464_13671">
<rect width="264" height="264" rx="3.47368" fill="white"/>
</clipPath>
</defs>
</svg>
