<svg width="264" height="264" viewBox="0 0 264 264" fill="none" xmlns="http://www.w3.org/2000/svg">
<g clip-path="url(#clip0_450_11098)">
<rect width="264" height="264" rx="3.47368" fill="#E1F5FF"/>
<rect x="60" y="16" width="148" height="234" rx="74" fill="#171717" stroke="#171717" stroke-width="2"/>
<path d="M81.0293 96.7308C82.6698 96.0106 84.7761 96.3785 86.9484 97.882C89.1052 99.3746 91.1797 101.903 92.5993 105.136C94.019 108.37 94.4767 111.609 94.116 114.207C93.7526 116.824 92.598 118.623 90.9575 119.344C89.317 120.064 87.2107 119.696 85.0383 118.192C82.8815 116.7 80.8067 114.171 79.387 110.937C77.9675 107.704 77.51 104.466 77.8708 101.868C78.2342 99.2508 79.3887 97.4511 81.0293 96.7308Z" fill="#F8CBCB" stroke="#171717" stroke-width="2"/>
<path d="M188.293 96.7308C186.652 96.0106 184.546 96.3785 182.374 97.882C180.217 99.3746 178.143 101.903 176.723 105.136C175.303 108.37 174.846 111.609 175.206 114.207C175.57 116.824 176.724 118.623 178.365 119.344C180.005 120.064 182.112 119.696 184.284 118.192C186.441 116.7 188.516 114.171 189.935 110.937C191.355 107.704 191.812 104.466 191.451 101.868C191.088 99.2508 189.934 97.4511 188.293 96.7308Z" fill="#F8CBCB" stroke="#171717" stroke-width="2"/>
<rect x="113.939" y="150.032" width="42" height="34" fill="#F8CBCB" stroke="#171717" stroke-width="2"/>
<path d="M106.439 55.0317H163.439C173.933 55.0317 182.439 63.5383 182.439 74.0317V112.532C182.439 138.765 161.173 160.032 134.939 160.032C108.706 160.032 87.4395 138.765 87.4395 112.532V74.0317C87.4395 63.5383 95.946 55.0317 106.439 55.0317Z" fill="#F8CBCB" stroke="#171717" stroke-width="2"/>
<path d="M123.24 90C118.553 88.8087 108.39 86.9025 105.24 88.8087" stroke="#171717" stroke-width="2" stroke-linecap="round"/>
<path d="M142.24 90C146.928 88.8087 157.09 86.9025 160.24 88.8087" stroke="#171717" stroke-width="2" stroke-linecap="round"/>
<path d="M131.079 105C129.992 107.889 128.144 114.13 129.449 115.979C130.753 117.828 135.693 116.749 138 115.979" stroke="#171717" stroke-width="2" stroke-linecap="round"/>
<mask id="path-10-inside-1_450_11098" fill="white">
<path d="M165.875 165C194.549 165 219.218 185.256 224.386 213.46C233.177 261.433 244.818 329.592 242.603 342.866C240.791 353.725 237.905 362.244 235.551 367.924C233.415 373.077 228.249 376 222.67 376H43.3469C39.438 376 35.7518 374.421 34.057 370.898C31.8247 366.258 28.8187 357.779 26.3296 342.866C23.4287 325.486 35.105 259.144 44.1069 212.599C49.4858 184.787 73.9605 165 102.288 165H165.875Z"/>
</mask>
<path d="M165.875 165C194.549 165 219.218 185.256 224.386 213.46C233.177 261.433 244.818 329.592 242.603 342.866C240.791 353.725 237.905 362.244 235.551 367.924C233.415 373.077 228.249 376 222.67 376H43.3469C39.438 376 35.7518 374.421 34.057 370.898C31.8247 366.258 28.8187 357.779 26.3296 342.866C23.4287 325.486 35.105 259.144 44.1069 212.599C49.4858 184.787 73.9605 165 102.288 165H165.875Z" fill="#FFA4A4"/>
<path d="M165.875 165L165.876 163H165.875V165ZM224.386 213.46L226.353 213.099V213.099L224.386 213.46ZM242.603 342.866L244.576 343.195V343.195L242.603 342.866ZM26.3296 342.866L24.3569 343.195H24.3569L26.3296 342.866ZM44.1069 212.599L42.1433 212.219L42.1433 212.219L44.1069 212.599ZM102.288 165V163H102.288L102.288 165ZM34.057 370.898L35.8593 370.031V370.031L34.057 370.898ZM235.551 367.924L233.704 367.158L235.551 367.924ZM165.875 165V167C193.599 167 217.428 186.581 222.419 213.82L224.386 213.46L226.353 213.099C221.009 183.931 195.5 163 165.876 163L165.875 165ZM224.386 213.46L222.419 213.82C226.813 237.8 231.917 266.809 235.644 291.474C237.508 303.809 239.025 315.036 239.938 323.995C240.861 333.061 241.132 339.532 240.63 342.537L242.603 342.866L244.576 343.195C245.182 339.564 244.828 332.537 243.917 323.59C242.995 314.537 241.468 303.237 239.599 290.876C235.862 266.15 230.75 237.093 226.353 213.099L224.386 213.46ZM242.603 342.866L240.63 342.537C238.847 353.224 236.009 361.597 233.704 367.158L235.551 367.924L237.399 368.69C239.802 362.892 242.735 354.226 244.576 343.195L242.603 342.866ZM222.67 376V374H43.3469V376V378H222.67V376ZM34.057 370.898L35.8593 370.031C33.7316 365.609 30.7702 357.323 28.3023 342.537L26.3296 342.866L24.3569 343.195C26.8671 358.235 29.9178 366.908 32.2548 371.765L34.057 370.898ZM26.3296 342.866L28.3023 342.537C27.6241 338.473 27.7815 331.303 28.6099 321.901C29.4322 312.567 30.8946 301.235 32.7326 288.966C36.4081 264.431 41.5715 236.241 46.0706 212.978L44.1069 212.599L42.1433 212.219C37.6404 235.502 32.4647 263.756 28.7768 288.373C26.9331 300.68 25.4577 312.101 24.6253 321.549C23.799 330.928 23.5847 338.569 24.3569 343.195L26.3296 342.866ZM44.1069 212.599L46.0706 212.978C51.2637 186.127 74.8982 167 102.288 167L102.288 165L102.288 163C73.0229 163 47.708 183.446 42.1433 212.219L44.1069 212.599ZM102.288 165V167H165.875V165V163H102.288V165ZM43.3469 376V374C39.9185 374 37.1119 372.635 35.8593 370.031L34.057 370.898L32.2548 371.765C34.3916 376.207 38.9574 378 43.3469 378V376ZM235.551 367.924L233.704 367.158C231.927 371.445 227.577 374 222.67 374V376V378C228.92 378 234.904 374.71 237.399 368.69L235.551 367.924Z" fill="#171717" mask="url(#path-10-inside-1_450_11098)"/>
<path d="M68.4546 223.032C62.1091 269.181 54.4331 331.157 56.4375 347.874C58.0083 360.975 59.8655 369.114 61.3815 374.048C62.7947 378.648 67.1027 381.032 71.9146 381.032H193.585C199.939 381.032 205.655 377.244 207.373 371.127C208.952 365.507 210.745 357.635 211.915 347.874C213.457 335.015 205.663 270.682 199.431 223.032" stroke="#171717" stroke-width="2" stroke-linecap="round"/>
<path d="M113.24 95.6426C115.647 95.6426 117.795 96.1318 119.316 96.8926C120.877 97.6727 121.598 98.632 121.598 99.5C121.598 100.368 120.877 101.327 119.316 102.107C117.795 102.868 115.647 103.357 113.24 103.357C110.833 103.357 108.686 102.868 107.164 102.107C105.604 101.327 104.883 100.368 104.883 99.5C104.883 98.632 105.604 97.6727 107.164 96.8926C108.686 96.1318 110.833 95.6426 113.24 95.6426Z" fill="#FFFDFD" stroke="#171717" stroke-width="1.28571"/>
<circle cx="113.24" cy="99.5" r="3.85714" fill="#171717" stroke="#171717" stroke-width="1.28571"/>
<path d="M151.24 95.6426C153.647 95.6426 155.795 96.1318 157.316 96.8926C158.877 97.6727 159.598 98.632 159.598 99.5C159.598 100.368 158.877 101.327 157.316 102.107C155.795 102.868 153.647 103.357 151.24 103.357C148.833 103.357 146.686 102.868 145.164 102.107C143.604 101.327 142.883 100.368 142.883 99.5C142.883 98.632 143.604 97.6727 145.164 96.8926C146.686 96.1318 148.833 95.6426 151.24 95.6426Z" fill="#FFFDFD" stroke="#171717" stroke-width="1.28571"/>
<circle cx="151.24" cy="99.5" r="3.85714" fill="#171717" stroke="#171717" stroke-width="1.28571"/>
<path d="M132.24 141C127.968 141 124.13 140.367 121.936 139.916C120.314 139.583 119.24 138.146 119.24 136.552C119.24 134.59 120.831 133 122.792 133L141.688 133C143.65 133 145.24 134.59 145.24 136.552C145.24 138.146 144.166 139.583 142.545 139.916C140.351 140.367 136.512 141 132.24 141Z" fill="#FFFDFD" stroke="#171717" stroke-width="2"/>
</g>
<defs>
<clipPath id="clip0_450_11098">
<rect width="264" height="264" rx="3.47368" fill="white"/>
</clipPath>
</defs>
</svg>
