<svg width="264" height="264" viewBox="0 0 264 264" fill="none" xmlns="http://www.w3.org/2000/svg">
<g clip-path="url(#clip0_211_11391)">
<rect width="264" height="264" rx="3.47368" fill="#E1F5FF"/>
<path d="M79.0293 96.7308C80.6698 96.0106 82.7761 96.3785 84.9484 97.882C87.1052 99.3746 89.1797 101.903 90.5993 105.136C92.019 108.37 92.4767 111.609 92.116 114.207C91.7526 116.824 90.598 118.623 88.9575 119.344C87.317 120.064 85.2107 119.696 83.0383 118.192C80.8815 116.7 78.8067 114.171 77.387 110.937C75.9675 107.704 75.51 104.466 75.8708 101.868C76.2342 99.2508 77.3887 97.4511 79.0293 96.7308Z" fill="#FFA4A4" stroke="#171717" stroke-width="2"/>
<path d="M188.293 96.7308C186.652 96.0106 184.546 96.3785 182.374 97.882C180.217 99.3746 178.143 101.903 176.723 105.136C175.303 108.37 174.846 111.609 175.206 114.207C175.57 116.824 176.724 118.623 178.365 119.344C180.005 120.064 182.112 119.696 184.284 118.192C186.441 116.7 188.516 114.171 189.935 110.937C191.355 107.704 191.812 104.466 191.451 101.868C191.088 99.2508 189.934 97.4511 188.293 96.7308Z" fill="#FFA4A4" stroke="#171717" stroke-width="2"/>
<rect x="113.939" y="150.032" width="42" height="34" fill="#FFA4A4" stroke="#171717" stroke-width="2"/>
<path d="M182.439 55.0317V112.532C182.439 138.765 161.173 160.032 134.939 160.032C108.706 160.032 87.4395 138.765 87.4395 112.532V55.0317H182.439Z" fill="#FFA4A4" stroke="#171717" stroke-width="2"/>
<path d="M123.24 92C118.553 90.8087 108.39 88.9025 105.24 90.8087" stroke="#171717" stroke-width="3" stroke-linecap="round"/>
<path d="M142.24 92C146.928 90.8087 157.09 88.9025 160.24 90.8087" stroke="#171717" stroke-width="3" stroke-linecap="round"/>
<path d="M128.939 105.032C126.976 110.249 123.638 121.519 125.994 124.858C128.35 128.197 137.273 126.249 141.439 124.858" stroke="#171717" stroke-width="2" stroke-linecap="round"/>
<path d="M88.9409 96.0315C87.3409 99.2315 81.9409 95.6982 79.4409 93.5315C72.4409 77.0313 80.9409 56.5315 83.1709 49.2477C84.9549 43.4207 94.4275 38.6758 98.9409 37.0318C101.341 14.6318 143.274 17.6984 163.941 22.0318V25.5318C171.541 26.7318 181.261 36.3651 185.171 41.0318L181.225 44.6324C189.009 54.7334 190.941 88.5313 185.171 94.9165C179.401 101.302 176.941 93.5315 178.164 84.4303C179.387 75.3291 172.441 62.5312 169.049 60.4095C165.657 58.2879 138.441 51.0312 147.826 60.1325C157.211 69.2339 156.441 67.0315 143.887 66.9775C131.333 66.9235 111.941 54.0315 100.941 56.5315C89.9409 59.0315 90.9409 92.0315 88.9409 96.0315Z" fill="#FFF0AC" stroke="#171717" stroke-width="2" stroke-linejoin="round"/>
<mask id="path-11-inside-1_211_11391" fill="white">
<path fill-rule="evenodd" clip-rule="evenodd" d="M197.309 175.779C212.226 175.779 225.15 186.042 228.347 200.612C237.745 243.452 255.523 328.159 252.7 343.646C250.66 354.84 247.374 363.548 244.762 369.222C242.523 374.086 237.523 376.779 232.169 376.779H34.1079C30.449 376.779 26.9525 375.394 25.2023 372.18C22.7406 367.661 19.3131 359.114 16.4933 343.646C12.7879 323.319 30.8588 241.475 40.5656 200.052C43.9189 185.742 56.7095 175.779 71.4064 175.779H197.309Z"/>
</mask>
<path fill-rule="evenodd" clip-rule="evenodd" d="M197.309 175.779C212.226 175.779 225.15 186.042 228.347 200.612C237.745 243.452 255.523 328.159 252.7 343.646C250.66 354.84 247.374 363.548 244.762 369.222C242.523 374.086 237.523 376.779 232.169 376.779H34.1079C30.449 376.779 26.9525 375.394 25.2023 372.18C22.7406 367.661 19.3131 359.114 16.4933 343.646C12.7879 323.319 30.8588 241.475 40.5656 200.052C43.9189 185.742 56.7095 175.779 71.4064 175.779H197.309Z" fill="#FFFDF3"/>
<path d="M228.347 200.612L230.3 200.184V200.184L228.347 200.612ZM252.7 343.646L254.668 344.004V344.004L252.7 343.646ZM16.4933 343.646L14.5257 344.004H14.5257L16.4933 343.646ZM40.5656 200.052L38.6183 199.595L38.6183 199.595L40.5656 200.052ZM71.4064 175.779V173.779H71.4064L71.4064 175.779ZM25.2023 372.18L23.4459 373.137L25.2023 372.18ZM244.762 369.222L242.945 368.386L244.762 369.222ZM197.309 175.779V177.779C211.299 177.779 223.401 187.401 226.393 201.041L228.347 200.612L230.3 200.184C226.9 184.684 213.152 173.779 197.309 173.779V175.779ZM228.347 200.612L226.393 201.041C231.091 222.454 237.88 254.315 243.14 282.75C245.771 296.97 248.015 310.31 249.425 321.048C250.13 326.418 250.623 331.114 250.853 334.931C251.087 338.795 251.039 341.605 250.733 343.287L252.7 343.646L254.668 344.004C255.067 341.814 255.082 338.59 254.846 334.69C254.608 330.743 254.102 325.945 253.391 320.527C251.967 309.688 249.709 296.27 247.073 282.022C241.801 253.522 235.001 221.611 230.3 200.184L228.347 200.612ZM252.7 343.646L250.733 343.287C248.727 354.29 245.499 362.838 242.945 368.386L244.762 369.222L246.579 370.058C249.248 364.259 252.592 355.39 254.668 344.004L252.7 343.646ZM232.169 376.779V374.779H34.1079V376.779V378.779H232.169V376.779ZM25.2023 372.18L26.9587 371.224C24.6266 366.942 21.2546 358.612 18.4609 343.287L16.4933 343.646L14.5257 344.004C17.3716 359.616 20.8546 368.38 23.4459 373.137L25.2023 372.18ZM16.4933 343.646L18.4609 343.287C17.5958 338.541 17.9846 329.899 19.3125 318.694C20.6297 307.579 22.8356 294.197 25.4658 280.127C30.7254 251.992 37.6619 221.209 42.5128 200.508L40.5656 200.052L38.6183 199.595C33.7625 220.317 26.8101 251.168 21.5339 279.392C18.8963 293.502 16.6725 306.981 15.3403 318.223C14.0187 329.375 13.5381 338.587 14.5257 344.004L16.4933 343.646ZM40.5656 200.052L42.5128 200.508C45.6503 187.12 57.6212 177.779 71.4064 177.779L71.4064 175.779L71.4064 173.779C55.7977 173.779 42.1874 184.365 38.6183 199.595L40.5656 200.052ZM71.4064 175.779V177.779H197.309V175.779V173.779H71.4064V175.779ZM34.1079 376.779V374.779C30.8941 374.779 28.2398 373.576 26.9587 371.224L25.2023 372.18L23.4459 373.137C25.6651 377.211 30.004 378.779 34.1079 378.779V376.779ZM244.762 369.222L242.945 368.386C241.087 372.423 236.88 374.779 232.169 374.779V376.779V378.779C238.166 378.779 243.96 375.749 246.579 370.058L244.762 369.222Z" fill="#171717" mask="url(#path-11-inside-1_211_11391)"/>
<path d="M70.0253 224C63.8426 270.149 56.3634 332.125 58.3164 348.842C59.8312 361.809 61.6195 369.915 63.0882 374.864C64.4775 379.545 68.8333 382 73.7164 382H191.571C197.979 382 203.731 378.149 205.417 371.967C206.947 366.355 208.676 358.529 209.807 348.842C211.31 335.982 203.716 271.65 197.643 224" stroke="#171717" stroke-width="2"/>
<path d="M113.24 95.6426C115.647 95.6426 117.795 96.1318 119.316 96.8926C120.877 97.6727 121.598 98.632 121.598 99.5C121.598 100.368 120.877 101.327 119.316 102.107C117.795 102.868 115.647 103.357 113.24 103.357C110.833 103.357 108.686 102.868 107.164 102.107C105.604 101.327 104.883 100.368 104.883 99.5C104.883 98.632 105.604 97.6727 107.164 96.8926C108.686 96.1318 110.833 95.6426 113.24 95.6426Z" fill="#FFFDFD" stroke="#171717" stroke-width="1.28571"/>
<circle cx="113.24" cy="99.5" r="3.85714" fill="#005286" stroke="#171717" stroke-width="1.28571"/>
<path d="M151.24 95.6426C153.647 95.6426 155.795 96.1318 157.316 96.8926C158.877 97.6727 159.598 98.632 159.598 99.5C159.598 100.368 158.877 101.327 157.316 102.107C155.795 102.868 153.647 103.357 151.24 103.357C148.833 103.357 146.686 102.868 145.164 102.107C143.604 101.327 142.883 100.368 142.883 99.5C142.883 98.632 143.604 97.6727 145.164 96.8926C146.686 96.1318 148.833 95.6426 151.24 95.6426Z" fill="#FFFDFD" stroke="#171717" stroke-width="1.28571"/>
<circle cx="151.24" cy="99.5" r="3.85714" fill="#005286" stroke="#171717" stroke-width="1.28571"/>
<rect width="158" height="62" transform="translate(53 193)" fill="#171717"/>
<path d="M119.083 212.124V206.472H117.475C117.379 206.472 117.283 206.388 117.283 206.28V205.776C117.283 205.668 117.379 205.596 117.475 205.596H121.711C121.807 205.596 121.903 205.668 121.903 205.776V206.28C121.903 206.388 121.807 206.472 121.711 206.472H120.031V212.124H121.711C121.807 212.124 121.903 212.208 121.903 212.316V212.82C121.903 212.928 121.807 213 121.711 213H117.475C117.379 213 117.283 212.928 117.283 212.82V212.316C117.283 212.208 117.379 212.124 117.475 212.124H119.083ZM125.136 212.124H126.348C127.14 212.124 127.848 211.536 127.848 210.828V207.756C127.848 207.048 127.14 206.472 126.348 206.472H125.136V212.124ZM124.452 205.596H126.372C127.704 205.596 128.796 206.568 128.796 207.768V210.828C128.796 212.028 127.704 213 126.372 213H124.452C124.32 213 124.2 212.88 124.2 212.748V205.848C124.2 205.716 124.32 205.596 124.452 205.596ZM139.297 205.776V212.784C139.297 212.904 139.201 213 139.081 213H138.421L135.625 207.612V212.82C135.625 212.916 135.553 213 135.433 213H134.869C134.749 213 134.677 212.916 134.677 212.82V205.824C134.677 205.704 134.773 205.596 134.893 205.596H135.565L138.349 210.984V205.776C138.349 205.68 138.421 205.596 138.541 205.596H139.105C139.225 205.596 139.297 205.68 139.297 205.776ZM141.696 210.984V207.636C141.696 206.436 142.788 205.476 144.12 205.476C145.5 205.476 146.592 206.436 146.592 207.636V210.984C146.592 212.184 145.5 213.144 144.12 213.144C142.788 213.144 141.696 212.184 141.696 210.984ZM145.644 210.996V207.624C145.644 206.916 144.936 206.34 144.144 206.34C143.352 206.34 142.644 206.916 142.644 207.624V210.996C142.644 211.704 143.352 212.28 144.144 212.28C144.936 212.28 145.644 211.704 145.644 210.996Z" fill="#FFFDFD"/>
<path d="M93.2739 228.54C93.2739 226.956 92.2179 225.658 90.7879 225.658C89.3799 225.658 88.3239 226.956 88.3239 228.54C88.3239 230.102 89.3799 231.378 90.7879 231.378C92.2179 231.378 93.2739 230.102 93.2739 228.54ZM88.4779 238.22H88.0379C87.7739 238.22 87.6199 238.066 87.6199 237.802V237.274C87.6199 237.01 87.7739 236.878 88.0379 236.878C90.8979 236.878 93.2739 234.7 93.5159 231.4C92.8999 232.434 91.6459 232.962 90.6339 232.962C88.3679 232.962 86.5859 230.938 86.5859 228.54C86.5859 226.12 88.3679 224.14 90.6559 224.14C92.0639 224.14 93.2079 224.69 94.0439 225.79C94.9019 226.934 95.2979 228.408 95.2979 230.234C95.2979 232.654 94.6819 234.568 93.4059 236.042C92.2179 237.406 90.5019 238.22 88.4779 238.22ZM100.251 227.99C100.251 229.288 101.351 230.366 102.715 230.366C104.101 230.366 105.201 229.288 105.201 227.99C105.201 226.67 104.101 225.592 102.715 225.592C101.351 225.592 100.251 226.67 100.251 227.99ZM100.141 234.326C100.141 235.69 101.307 236.79 102.715 236.79C104.145 236.79 105.311 235.69 105.311 234.326C105.311 232.94 104.145 231.84 102.715 231.84C101.307 231.84 100.141 232.94 100.141 234.326ZM98.3808 234.304C98.3808 232.918 99.1068 231.708 100.449 231.07C99.2388 230.388 98.5348 229.222 98.5348 227.946C98.5348 225.856 100.383 224.14 102.715 224.14C105.069 224.14 106.939 225.856 106.939 227.946C106.939 229.222 106.235 230.388 105.025 231.07C106.367 231.708 107.071 232.918 107.071 234.304C107.071 236.504 105.135 238.308 102.715 238.308C100.317 238.308 98.3808 236.504 98.3808 234.304ZM112.882 237.494L116.534 226.032H111.496V226.912C111.496 227.11 111.342 227.264 111.144 227.264H110.506C110.308 227.264 110.154 227.11 110.154 226.912V224.888C110.154 224.646 110.374 224.426 110.616 224.426H117.524C118.118 224.426 118.514 224.954 118.338 225.57L114.708 237.626C114.62 237.956 114.4 238 114.136 238H113.234C112.948 238 112.794 237.78 112.882 237.494ZM123.479 233.908C123.479 235.492 124.535 236.79 125.965 236.79C127.373 236.79 128.429 235.492 128.429 233.908C128.429 232.346 127.373 231.07 125.965 231.07C124.535 231.07 123.479 232.346 123.479 233.908ZM128.275 224.206H128.715C128.979 224.206 129.133 224.36 129.133 224.624V225.152C129.133 225.416 128.979 225.548 128.715 225.548C125.855 225.548 123.479 227.748 123.237 231.048C123.853 230.014 125.107 229.486 126.119 229.486C128.385 229.486 130.167 231.51 130.167 233.908C130.167 236.328 128.385 238.308 126.097 238.308C124.689 238.308 123.545 237.758 122.709 236.658C121.851 235.514 121.455 234.04 121.455 232.214C121.455 229.794 122.071 227.858 123.347 226.384C124.535 225.02 126.251 224.206 128.275 224.206ZM134.482 235.338C135.252 236.24 136.242 236.68 137.232 236.68C138.992 236.68 140.18 235.272 140.18 233.71C140.18 231.884 138.838 230.806 137.298 230.806C136.594 230.806 135.868 231.004 135.186 231.466C134.922 231.642 134.68 231.664 134.416 231.51L133.756 231.136V224.8C133.756 224.58 133.932 224.426 134.13 224.426H140.466C140.664 224.426 140.84 224.58 140.84 224.822V225.636C140.84 225.856 140.664 226.032 140.466 226.032H135.428V229.75C136.11 229.42 136.836 229.266 137.54 229.266C139.806 229.266 141.896 230.96 141.896 233.688C141.896 236.614 139.652 238.308 137.32 238.308C135.89 238.308 134.394 237.67 133.382 236.284C133.206 236.042 133.228 235.778 133.448 235.58L133.778 235.294C133.998 235.096 134.284 235.118 134.482 235.338ZM146.609 232.896H150.701V226.12L146.609 232.896ZM150.591 224.228L151.933 224.426C152.197 224.47 152.373 224.646 152.373 224.932V232.896H153.781C153.979 232.896 154.133 233.05 154.133 233.248V234.04C154.133 234.238 153.979 234.392 153.781 234.392H152.373V236.482H153.781C153.979 236.482 154.133 236.636 154.133 236.834V237.648C154.133 237.846 153.979 238 153.781 238H148.479C148.281 238 148.127 237.846 148.127 237.648V236.834C148.127 236.636 148.281 236.482 148.479 236.482H150.701V234.392H145.421C145.179 234.392 144.959 234.172 144.959 233.93V232.72L149.931 224.536C150.107 224.25 150.305 224.184 150.591 224.228ZM163.211 226.032H158.041C157.843 226.032 157.667 225.856 157.667 225.636V224.822C157.667 224.58 157.843 224.426 158.041 224.426H164.685C164.883 224.426 165.059 224.58 165.059 224.8V226.164L162.133 229.354C164.135 229.64 165.851 231.136 165.851 233.688C165.851 236.614 163.607 238.308 161.275 238.308C159.845 238.308 158.349 237.67 157.337 236.284C157.161 236.042 157.183 235.778 157.403 235.58L157.733 235.294C157.953 235.096 158.239 235.118 158.437 235.338C159.207 236.24 160.197 236.68 161.187 236.68C162.947 236.68 164.135 235.272 164.135 233.71C164.135 231.884 162.793 230.806 161.253 230.806H160.681C160.461 230.806 160.307 230.762 160.263 230.564L160.021 229.508L163.211 226.032ZM175.844 236.394V235.646C175.844 235.448 175.998 235.294 176.196 235.294H176.834C177.032 235.294 177.186 235.448 177.186 235.646V237.714C177.186 237.868 177.032 238 176.9 238H169.42C169.178 238 168.958 237.78 168.958 237.538V236.262L173.688 231.356C175.162 229.816 175.514 229.024 175.492 227.924C175.47 226.604 174.26 225.812 173.16 225.812C171.598 225.812 170.828 226.648 170.234 227.616C170.08 227.858 169.816 227.924 169.574 227.77L169.112 227.484C168.892 227.352 168.87 227.11 168.958 226.868C169.662 225.064 171.4 224.162 173.16 224.162C175.162 224.162 177.296 225.526 177.34 227.88C177.384 229.508 176.526 230.894 175.206 232.17L170.828 236.394H175.844Z" fill="#FFFDFD"/>
<mask id="path-20-inside-2_211_11391" fill="white">
<path fill-rule="evenodd" clip-rule="evenodd" d="M223.675 237.11C225.359 237.866 226.8 239.227 227.465 240.879L234.751 258.978C235.87 261.758 234.365 264.31 231.39 264.677C228.415 265.044 225.097 263.088 223.977 260.307L218.922 247.748L209.22 244.146C205.903 242.915 203.124 239.048 203.015 235.511C202.905 231.974 205.506 230.105 208.824 231.337L221.964 236.216C222.555 236.436 223.13 236.74 223.675 237.11Z"/>
</mask>
<path fill-rule="evenodd" clip-rule="evenodd" d="M223.675 237.11C225.359 237.866 226.8 239.227 227.465 240.879L234.751 258.978C235.87 261.758 234.365 264.31 231.39 264.677C228.415 265.044 225.097 263.088 223.977 260.307L218.922 247.748L209.22 244.146C205.903 242.915 203.124 239.048 203.015 235.511C202.905 231.974 205.506 230.105 208.824 231.337L221.964 236.216C222.555 236.436 223.13 236.74 223.675 237.11Z" fill="#F38E8E"/>
<path d="M223.675 237.11L222.551 238.765L222.696 238.863L222.856 238.935L223.675 237.11ZM227.465 240.879L229.32 240.132L229.32 240.132L227.465 240.879ZM234.751 258.978L236.606 258.231L236.606 258.231L234.751 258.978ZM231.39 264.677L231.635 266.662L231.635 266.662L231.39 264.677ZM223.977 260.307L222.122 261.054L222.122 261.054L223.977 260.307ZM218.922 247.748L220.777 247.001L220.447 246.181L219.618 245.873L218.922 247.748ZM209.22 244.146L208.524 246.021L208.524 246.021L209.22 244.146ZM203.015 235.511L201.016 235.573L201.016 235.573L203.015 235.511ZM208.824 231.337L209.52 229.462L209.52 229.462L208.824 231.337ZM221.964 236.216L221.268 238.091L221.268 238.091L221.964 236.216ZM223.675 237.11L222.856 238.935C224.148 239.515 225.168 240.529 225.61 241.626L227.465 240.879L229.32 240.132C228.432 237.926 226.57 236.217 224.494 235.286L223.675 237.11ZM227.465 240.879L225.61 241.626L232.895 259.725L234.751 258.978L236.606 258.231L229.32 240.132L227.465 240.879ZM234.751 258.978L232.895 259.724C233.254 260.617 233.135 261.289 232.883 261.716C232.63 262.144 232.1 262.574 231.145 262.692L231.39 264.677L231.635 266.662C233.655 266.413 235.364 265.383 236.328 263.748C237.292 262.113 237.366 260.119 236.606 258.231L234.751 258.978ZM231.39 264.677L231.145 262.692C229.07 262.948 226.613 261.5 225.832 259.56L223.977 260.307L222.122 261.054C223.58 264.676 227.761 267.14 231.635 266.662L231.39 264.677ZM223.977 260.307L225.833 259.561L220.777 247.001L218.922 247.748L217.067 248.495L222.122 261.054L223.977 260.307ZM218.922 247.748L219.618 245.873L209.916 242.271L209.22 244.146L208.524 246.021L218.226 249.623L218.922 247.748ZM209.22 244.146L209.917 242.271C208.705 241.821 207.48 240.837 206.539 239.526C205.597 238.216 205.054 236.741 205.014 235.449L203.015 235.511L201.016 235.573C201.085 237.818 201.986 240.046 203.29 241.86C204.595 243.675 206.419 245.24 208.524 246.021L209.22 244.146ZM203.015 235.511L205.014 235.449C204.974 234.178 205.414 233.538 205.801 233.26C206.188 232.982 206.935 232.769 208.128 233.212L208.824 231.337L209.52 229.462C207.395 228.673 205.183 228.779 203.467 230.012C201.751 231.244 200.945 233.307 201.016 235.573L203.015 235.511ZM208.824 231.337L208.128 233.212L221.268 238.091L221.964 236.216L222.66 234.341L209.52 229.462L208.824 231.337ZM221.964 236.216L221.268 238.091C221.692 238.248 222.123 238.474 222.551 238.765L223.675 237.11L224.799 235.456C224.136 235.006 223.419 234.623 222.66 234.341L221.964 236.216Z" fill="black" mask="url(#path-20-inside-2_211_11391)"/>
<mask id="path-22-inside-3_211_11391" fill="white">
<path fill-rule="evenodd" clip-rule="evenodd" d="M219.864 242.172C221.698 242.996 223.267 244.479 223.991 246.277L231.926 265.989C233.145 269.018 231.506 271.797 228.266 272.197C225.026 272.597 221.411 270.465 220.192 267.437L214.686 253.759L204.12 249.837C200.507 248.495 197.481 244.284 197.362 240.431C197.242 236.579 200.075 234.543 203.689 235.885L218.001 241.199C218.645 241.438 219.27 241.769 219.864 242.172Z"/>
</mask>
<path fill-rule="evenodd" clip-rule="evenodd" d="M219.864 242.172C221.698 242.996 223.267 244.479 223.991 246.277L231.926 265.989C233.145 269.018 231.506 271.797 228.266 272.197C225.026 272.597 221.411 270.465 220.192 267.437L214.686 253.759L204.12 249.837C200.507 248.495 197.481 244.284 197.362 240.431C197.242 236.579 200.075 234.543 203.689 235.885L218.001 241.199C218.645 241.438 219.27 241.769 219.864 242.172Z" fill="#F38E8E"/>
<path d="M219.864 242.172L218.74 243.827L218.885 243.925L219.045 243.997L219.864 242.172ZM223.991 246.277L222.135 247.024L222.135 247.024L223.991 246.277ZM231.926 265.989L233.782 265.243L233.781 265.242L231.926 265.989ZM228.266 272.197L228.511 274.182L228.511 274.182L228.266 272.197ZM220.192 267.437L218.337 268.184L218.337 268.184L220.192 267.437ZM214.686 253.759L216.542 253.012L216.211 252.192L215.382 251.884L214.686 253.759ZM204.12 249.837L203.424 251.711L203.424 251.711L204.12 249.837ZM197.362 240.431L195.362 240.493L195.362 240.493L197.362 240.431ZM203.689 235.885L204.385 234.01L204.385 234.01L203.689 235.885ZM218.001 241.199L218.698 239.324L218.698 239.324L218.001 241.199ZM219.864 242.172L219.045 243.997C220.486 244.644 221.635 245.78 222.135 247.024L223.991 246.277L225.846 245.53C224.899 243.177 222.909 241.347 220.683 240.348L219.864 242.172ZM223.991 246.277L222.135 247.024L230.071 266.736L231.926 265.989L233.781 265.242L225.846 245.53L223.991 246.277ZM231.926 265.989L230.071 266.736C230.48 267.752 230.352 268.544 230.045 269.063C229.739 269.583 229.109 270.078 228.021 270.212L228.266 272.197L228.511 274.182C230.664 273.916 232.473 272.822 233.491 271.095C234.509 269.367 234.591 267.255 233.782 265.243L231.926 265.989ZM228.266 272.197L228.021 270.212C225.681 270.501 222.928 268.878 222.048 266.69L220.192 267.437L218.337 268.184C219.895 272.053 224.371 274.693 228.511 274.182L228.266 272.197ZM220.192 267.437L222.048 266.69L216.542 253.012L214.686 253.759L212.831 254.506L218.337 268.184L220.192 267.437ZM214.686 253.759L215.382 251.884L204.816 247.962L204.12 249.837L203.424 251.711L213.99 255.634L214.686 253.759ZM204.12 249.837L204.817 247.962C203.457 247.457 202.097 246.358 201.055 244.908C200.013 243.458 199.406 241.819 199.361 240.369L197.362 240.431L195.362 240.493C195.437 242.896 196.402 245.288 197.807 247.242C199.211 249.197 201.171 250.875 203.424 251.711L204.12 249.837ZM197.362 240.431L199.361 240.369C199.316 238.94 199.812 238.18 200.292 237.834C200.773 237.489 201.652 237.262 202.993 237.76L203.689 235.885L204.385 234.01C202.112 233.166 199.768 233.286 197.958 234.586C196.149 235.886 195.288 238.07 195.362 240.493L197.362 240.431ZM203.689 235.885L202.993 237.76L217.305 243.074L218.001 241.199L218.698 239.324L204.385 234.01L203.689 235.885ZM218.001 241.199L217.305 243.074C217.781 243.251 218.264 243.503 218.74 243.827L219.864 242.172L220.988 240.518C220.277 240.035 219.51 239.626 218.698 239.324L218.001 241.199Z" fill="black" mask="url(#path-22-inside-3_211_11391)"/>
<mask id="path-24-inside-4_211_11391" fill="white">
<path fill-rule="evenodd" clip-rule="evenodd" d="M220.554 251.316C221.24 252.002 221.794 252.802 222.147 253.678L230.081 273.391C231.3 276.419 229.663 279.199 226.422 279.598C223.182 279.998 219.567 277.867 218.348 274.839L212.676 260.747L203.705 258.523C199.804 257.555 196.204 253.542 195.664 249.56C195.124 245.577 197.848 243.132 201.75 244.099L214.73 247.318C216.933 247.864 219.04 249.382 220.554 251.316Z"/>
</mask>
<path fill-rule="evenodd" clip-rule="evenodd" d="M220.554 251.316C221.24 252.002 221.794 252.802 222.147 253.678L230.081 273.391C231.3 276.419 229.663 279.199 226.422 279.598C223.182 279.998 219.567 277.867 218.348 274.839L212.676 260.747L203.705 258.523C199.804 257.555 196.204 253.542 195.664 249.56C195.124 245.577 197.848 243.132 201.75 244.099L214.73 247.318C216.933 247.864 219.04 249.382 220.554 251.316Z" fill="#F38E8E"/>
<path d="M220.554 251.316L218.979 252.549L219.054 252.645L219.14 252.731L220.554 251.316ZM222.147 253.678L224.002 252.931L224.002 252.931L222.147 253.678ZM230.081 273.391L228.226 274.137L228.226 274.137L230.081 273.391ZM226.422 279.598L226.667 281.583L226.668 281.583L226.422 279.598ZM218.348 274.839L216.493 275.586L216.493 275.586L218.348 274.839ZM212.676 260.747L214.532 260L214.15 259.052L213.158 258.806L212.676 260.747ZM203.705 258.523L203.224 260.464L203.224 260.464L203.705 258.523ZM195.664 249.56L193.682 249.828L193.682 249.828L195.664 249.56ZM201.75 244.099L202.231 242.158L202.231 242.158L201.75 244.099ZM214.73 247.318L215.211 245.377L215.211 245.377L214.73 247.318ZM220.554 251.316L219.14 252.731C219.66 253.25 220.051 253.829 220.291 254.425L222.147 253.678L224.002 252.931C223.537 251.776 222.821 250.754 221.968 249.902L220.554 251.316ZM222.147 253.678L220.291 254.425L228.226 274.137L230.081 273.391L231.937 272.644L224.002 252.931L222.147 253.678ZM230.081 273.391L228.226 274.137C228.635 275.154 228.507 275.945 228.201 276.465C227.895 276.984 227.265 277.479 226.177 277.614L226.422 279.598L226.668 281.583C228.82 281.318 230.629 280.223 231.647 278.496C232.665 276.768 232.746 274.656 231.937 272.644L230.081 273.391ZM226.422 279.598L226.178 277.614C223.837 277.902 221.084 276.279 220.203 274.092L218.348 274.839L216.493 275.586C218.05 279.455 222.528 282.094 226.667 281.583L226.422 279.598ZM218.348 274.839L220.203 274.092L214.532 260L212.676 260.747L210.821 261.494L216.493 275.586L218.348 274.839ZM212.676 260.747L213.158 258.806L204.186 256.582L203.705 258.523L203.224 260.464L212.195 262.688L212.676 260.747ZM203.705 258.523L204.187 256.582C202.701 256.213 201.158 255.224 199.913 253.836C198.668 252.448 197.851 250.807 197.646 249.291L195.664 249.56L193.682 249.828C194.016 252.294 195.271 254.652 196.936 256.507C198.601 258.363 200.808 259.865 203.224 260.464L203.705 258.523ZM195.664 249.56L197.646 249.291C197.443 247.796 197.878 246.909 198.377 246.461C198.876 246.014 199.804 245.677 201.268 246.04L201.75 244.099L202.231 242.158C199.794 241.553 197.409 241.955 195.705 243.484C194.002 245.013 193.345 247.341 193.682 249.828L195.664 249.56ZM201.75 244.099L201.268 246.04L214.248 249.259L214.73 247.318L215.211 245.377L202.231 242.158L201.75 244.099ZM214.73 247.318L214.248 249.259C215.933 249.677 217.681 250.89 218.979 252.549L220.554 251.316L222.129 250.084C220.399 247.873 217.933 246.052 215.211 245.377L214.73 247.318Z" fill="black" mask="url(#path-24-inside-4_211_11391)"/>
<mask id="path-26-inside-5_211_11391" fill="white">
<path fill-rule="evenodd" clip-rule="evenodd" d="M216.497 259.527C217.126 260.158 217.634 260.894 217.958 261.698L225.286 279.903C226.412 282.7 224.898 285.266 221.906 285.635C218.914 286.005 215.576 284.037 214.451 281.24L209.211 268.225L200.93 266.172C197.327 265.278 194.002 261.573 193.503 257.894C193.004 254.216 195.52 251.958 199.123 252.851L211.11 255.824C213.148 256.33 215.098 257.735 216.497 259.527Z"/>
</mask>
<path fill-rule="evenodd" clip-rule="evenodd" d="M216.497 259.527C217.126 260.158 217.634 260.894 217.958 261.698L225.286 279.903C226.412 282.7 224.898 285.266 221.906 285.635C218.914 286.005 215.576 284.037 214.451 281.24L209.211 268.225L200.93 266.172C197.327 265.278 194.002 261.573 193.503 257.894C193.004 254.216 195.52 251.958 199.123 252.851L211.11 255.824C213.148 256.33 215.098 257.735 216.497 259.527Z" fill="#F38E8E"/>
<path d="M216.497 259.527L214.92 260.758L214.995 260.853L215.08 260.938L216.497 259.527ZM217.958 261.698L219.814 260.952L219.814 260.952L217.958 261.698ZM225.286 279.903L223.431 280.65L223.431 280.65L225.286 279.903ZM221.906 285.635L222.151 287.62L222.151 287.62L221.906 285.635ZM214.451 281.24L212.595 281.987L212.595 281.987L214.451 281.24ZM209.211 268.225L211.067 267.479L210.685 266.53L209.693 266.284L209.211 268.225ZM200.93 266.172L200.448 268.113L200.448 268.113L200.93 266.172ZM193.503 257.894L191.521 258.163L191.521 258.163L193.503 257.894ZM199.123 252.851L199.605 250.91L199.604 250.91L199.123 252.851ZM211.11 255.824L210.629 257.765L210.629 257.765L211.11 255.824ZM216.497 259.527L215.08 260.938C215.545 261.404 215.891 261.919 216.103 262.445L217.958 261.698L219.814 260.952C219.377 259.868 218.708 258.912 217.913 258.115L216.497 259.527ZM217.958 261.698L216.103 262.445L223.431 280.65L225.286 279.903L227.141 279.156L219.814 260.952L217.958 261.698ZM225.286 279.903L223.431 280.65C223.793 281.55 223.673 282.23 223.418 282.664C223.162 283.097 222.625 283.532 221.661 283.651L221.906 285.635L222.151 287.62C224.18 287.37 225.896 286.337 226.863 284.695C227.831 283.054 227.905 281.052 227.141 279.156L225.286 279.903ZM221.906 285.635L221.661 283.651C219.569 283.909 217.093 282.449 216.306 280.493L214.451 281.24L212.595 281.987C214.06 285.624 218.259 288.101 222.151 287.62L221.906 285.635ZM214.451 281.24L216.306 280.493L211.067 267.479L209.211 268.225L207.356 268.972L212.595 281.987L214.451 281.24ZM209.211 268.225L209.693 266.284L201.411 264.231L200.93 266.172L200.448 268.113L208.73 270.167L209.211 268.225ZM200.93 266.172L201.411 264.231C200.075 263.899 198.675 263.006 197.541 261.742C196.407 260.478 195.67 258.99 195.485 257.626L193.503 257.894L191.521 258.163C191.835 260.477 193.01 262.681 194.564 264.413C196.118 266.145 198.182 267.551 200.448 268.113L200.93 266.172ZM193.503 257.894L195.485 257.626C195.303 256.283 195.696 255.519 196.111 255.147C196.525 254.775 197.327 254.466 198.642 254.792L199.123 252.851L199.604 250.91C197.317 250.343 195.059 250.716 193.439 252.17C191.82 253.623 191.204 255.828 191.521 258.163L193.503 257.894ZM199.123 252.851L198.642 254.792L210.629 257.765L211.11 255.824L211.592 253.883L199.605 250.91L199.123 252.851ZM211.11 255.824L210.629 257.765C212.147 258.142 213.737 259.242 214.92 260.758L216.497 259.527L218.073 258.296C216.458 256.228 214.149 254.517 211.592 253.883L211.11 255.824Z" fill="black" mask="url(#path-26-inside-5_211_11391)"/>
<mask id="path-28-inside-6_211_11391" fill="white">
<path fill-rule="evenodd" clip-rule="evenodd" d="M48.6609 237.11C46.9766 237.866 45.5353 239.228 44.8703 240.88L37.5852 258.977C36.4659 261.758 37.9703 264.31 40.9451 264.678C43.9199 265.045 47.2393 263.088 48.3586 260.307L53.4136 247.748L63.1148 244.147C66.4323 242.915 69.2109 239.049 69.3206 235.512C69.4302 231.974 66.8294 230.105 63.5118 231.337L50.3711 236.217C49.7799 236.436 49.2058 236.74 48.6609 237.11Z"/>
</mask>
<path fill-rule="evenodd" clip-rule="evenodd" d="M48.6609 237.11C46.9766 237.866 45.5353 239.228 44.8703 240.88L37.5852 258.977C36.4659 261.758 37.9703 264.31 40.9451 264.678C43.9199 265.045 47.2393 263.088 48.3586 260.307L53.4136 247.748L63.1148 244.147C66.4323 242.915 69.2109 239.049 69.3206 235.512C69.4302 231.974 66.8294 230.105 63.5118 231.337L50.3711 236.217C49.7799 236.436 49.2058 236.74 48.6609 237.11Z" fill="#F38E8E"/>
<path fill-rule="evenodd" clip-rule="evenodd" d="M48.6609 237.11L49.7845 238.765L49.6396 238.863L49.4797 238.935L48.6609 237.11ZM44.8703 240.88L43.015 240.133L43.015 240.133L44.8703 240.88ZM37.5852 258.977L39.4405 259.724L39.4405 259.724L37.5852 258.977ZM40.9451 264.678L40.7002 266.662L40.7002 266.662L40.9451 264.678ZM48.3586 260.307L50.2139 261.054L50.2139 261.054L48.3586 260.307ZM53.4136 247.748L51.5583 247.001L51.8885 246.18L52.7177 245.873L53.4136 247.748ZM63.1148 244.147L63.811 246.022L63.8107 246.022L63.1148 244.147ZM69.3206 235.512L71.3196 235.574L71.3196 235.574L69.3206 235.512ZM63.5118 231.337L62.8156 229.462L62.8157 229.462L63.5118 231.337ZM50.3711 236.217L51.0674 238.092L51.0673 238.092L50.3711 236.217ZM48.6609 237.11L49.4797 238.935C48.1879 239.514 47.1672 240.53 46.7256 241.627L44.8703 240.88L43.015 240.133C43.9033 237.926 45.7654 236.217 47.8421 235.285L48.6609 237.11ZM44.8703 240.88L46.7256 241.627L39.4405 259.724L37.5852 258.977L35.7299 258.231L43.015 240.133L44.8703 240.88ZM37.5852 258.977L39.4405 259.724C39.0813 260.617 39.2007 261.289 39.4528 261.717C39.705 262.145 40.2354 262.575 41.1901 262.693L40.9451 264.678L40.7002 266.662C38.6801 266.413 36.9709 265.384 36.0069 263.748C35.0429 262.113 34.9699 260.119 35.7299 258.231L37.5852 258.977ZM40.9451 264.678L41.19 262.693C43.2649 262.949 45.7225 261.5 46.5032 259.56L48.3586 260.307L50.2139 261.054C48.7561 264.675 44.5749 267.141 40.7002 266.662L40.9451 264.678ZM48.3586 260.307L46.5032 259.56L51.5583 247.001L53.4136 247.748L55.269 248.494L50.2139 261.054L48.3586 260.307ZM53.4136 247.748L52.7177 245.873L62.4189 242.272L63.1148 244.147L63.8107 246.022L54.1095 249.623L53.4136 247.748ZM63.1148 244.147L62.4186 242.272C63.6306 241.822 64.8547 240.837 65.7965 239.527C66.7383 238.216 67.2815 236.742 67.3216 235.45L69.3206 235.512L71.3196 235.574C71.25 237.819 70.349 240.046 69.0447 241.861C67.7404 243.676 65.9166 245.24 63.811 246.022L63.1148 244.147ZM69.3206 235.512L67.3216 235.45C67.361 234.178 66.9209 233.538 66.5341 233.26C66.1474 232.982 65.4006 232.769 64.208 233.212L63.5118 231.337L62.8157 229.462C64.9407 228.673 67.153 228.779 68.8687 230.012C70.5843 231.245 71.3898 233.308 71.3196 235.574L69.3206 235.512ZM63.5118 231.337L64.2081 233.212L51.0674 238.092L50.3711 236.217L49.6749 234.342L62.8156 229.462L63.5118 231.337ZM50.3711 236.217L51.0673 238.092C50.6431 238.249 50.2115 238.475 49.7845 238.765L48.6609 237.11L47.5372 235.455C48.2001 235.005 48.9166 234.623 49.675 234.342L50.3711 236.217Z" fill="black" mask="url(#path-28-inside-6_211_11391)"/>
<mask id="path-30-inside-7_211_11391" fill="white">
<path fill-rule="evenodd" clip-rule="evenodd" d="M52.4714 242.172C50.6377 242.995 49.0687 244.478 48.3447 246.277L40.41 265.99C39.1911 269.018 40.8294 271.797 44.0693 272.197C47.3094 272.596 50.9248 270.466 52.1439 267.437L57.6496 253.758L68.215 249.836C71.8285 248.494 74.8553 244.284 74.9746 240.431C75.0939 236.579 72.2609 234.543 68.6475 235.885L54.3347 241.199C53.6906 241.438 53.0651 241.769 52.4714 242.172Z"/>
</mask>
<path fill-rule="evenodd" clip-rule="evenodd" d="M52.4714 242.172C50.6377 242.995 49.0687 244.478 48.3447 246.277L40.41 265.99C39.1911 269.018 40.8294 271.797 44.0693 272.197C47.3094 272.596 50.9248 270.466 52.1439 267.437L57.6496 253.758L68.215 249.836C71.8285 248.494 74.8553 244.284 74.9746 240.431C75.0939 236.579 72.2609 234.543 68.6475 235.885L54.3347 241.199C53.6906 241.438 53.0651 241.769 52.4714 242.172Z" fill="#F38E8E"/>
<path fill-rule="evenodd" clip-rule="evenodd" d="M52.4714 242.172L53.5951 243.827L53.4503 243.925L53.2906 243.997L52.4714 242.172ZM48.3447 246.277L46.4893 245.53L46.4893 245.53L48.3447 246.277ZM40.41 265.99L38.5547 265.243L38.5547 265.243L40.41 265.99ZM44.0693 272.197L43.8243 274.182L43.8243 274.182L44.0693 272.197ZM52.1439 267.437L53.9993 268.184L53.9992 268.184L52.1439 267.437ZM57.6496 253.758L55.7943 253.011L56.1245 252.191L56.9536 251.883L57.6496 253.758ZM68.215 249.836L68.9112 251.711L68.911 251.711L68.215 249.836ZM74.9746 240.431L76.9737 240.493L76.9737 240.493L74.9746 240.431ZM68.6475 235.885L67.9513 234.01L67.9513 234.01L68.6475 235.885ZM54.3347 241.199L55.0309 243.074L55.0309 243.074L54.3347 241.199ZM52.4714 242.172L53.2906 243.997C51.8492 244.644 50.7007 245.78 50.2 247.024L48.3447 246.277L46.4893 245.53C47.4367 243.177 49.4263 241.347 51.6522 240.348L52.4714 242.172ZM48.3447 246.277L50.2 247.024L42.2653 266.736L40.41 265.99L38.5547 265.243L46.4893 245.53L48.3447 246.277ZM40.41 265.99L42.2654 266.736C41.8562 267.753 41.9844 268.544 42.2905 269.063C42.5966 269.582 43.2267 270.077 44.3143 270.212L44.0693 272.197L43.8243 274.182C41.672 273.916 39.863 272.822 38.8447 271.094C37.8265 269.367 37.7449 267.255 38.5547 265.243L40.41 265.99ZM44.0693 272.197L44.3143 270.212C46.6548 270.5 49.4081 268.878 50.2886 266.69L52.1439 267.437L53.9992 268.184C52.4415 272.054 47.9641 274.692 43.8243 274.182L44.0693 272.197ZM52.1439 267.437L50.2886 266.69L55.7943 253.011L57.6496 253.758L59.505 254.505L53.9993 268.184L52.1439 267.437ZM57.6496 253.758L56.9536 251.883L67.519 247.961L68.215 249.836L68.911 251.711L58.3456 255.633L57.6496 253.758ZM68.215 249.836L67.5189 247.961C68.8789 247.456 70.2391 246.358 71.2811 244.908C72.3231 243.458 72.9307 241.819 72.9756 240.369L74.9746 240.431L76.9737 240.493C76.8992 242.896 75.9337 245.288 74.5291 247.243C73.1246 249.197 71.1646 250.874 68.9112 251.711L68.215 249.836ZM74.9746 240.431L72.9756 240.369C73.0199 238.94 72.5243 238.18 72.0438 237.834C71.5633 237.489 70.6843 237.262 69.3437 237.76L68.6475 235.885L67.9513 234.01C70.2241 233.166 72.5683 233.286 74.3779 234.586C76.1874 235.886 77.0487 238.07 76.9737 240.493L74.9746 240.431ZM68.6475 235.885L69.3437 237.76L55.0309 243.074L54.3347 241.199L53.6386 239.324L67.9513 234.01L68.6475 235.885ZM54.3347 241.199L55.0309 243.074C54.5533 243.251 54.0701 243.504 53.5951 243.827L52.4714 242.172L51.3477 240.518C52.06 240.034 52.828 239.625 53.6386 239.324L54.3347 241.199Z" fill="black" mask="url(#path-30-inside-7_211_11391)"/>
<mask id="path-32-inside-8_211_11391" fill="white">
<path fill-rule="evenodd" clip-rule="evenodd" d="M51.784 251.313C51.0964 252 50.542 252.802 50.1889 253.679L42.2535 273.391C41.0346 276.419 42.6736 279.199 45.9135 279.598C49.1536 279.998 52.7683 277.867 53.9874 274.838L59.6603 260.746L68.63 258.522C72.5312 257.555 76.1314 253.542 76.6715 249.559C77.2115 245.576 74.4865 243.132 70.5851 244.099L57.6049 247.318C55.4034 247.864 53.298 249.38 51.784 251.313Z"/>
</mask>
<path fill-rule="evenodd" clip-rule="evenodd" d="M51.784 251.313C51.0964 252 50.542 252.802 50.1889 253.679L42.2535 273.391C41.0346 276.419 42.6736 279.199 45.9135 279.598C49.1536 279.998 52.7683 277.867 53.9874 274.838L59.6603 260.746L68.63 258.522C72.5312 257.555 76.1314 253.542 76.6715 249.559C77.2115 245.576 74.4865 243.132 70.5851 244.099L57.6049 247.318C55.4034 247.864 53.298 249.38 51.784 251.313Z" fill="#F38E8E"/>
<path fill-rule="evenodd" clip-rule="evenodd" d="M51.784 251.313L53.3586 252.546L53.2835 252.642L53.1974 252.728L51.784 251.313ZM50.1889 253.679L52.0442 254.426L52.0442 254.426L50.1889 253.679ZM42.2535 273.391L40.3981 272.644L40.3981 272.644L42.2535 273.391ZM45.9135 279.598L45.6687 281.583L45.6686 281.583L45.9135 279.598ZM53.9874 274.838L52.132 274.092L52.132 274.092L53.9874 274.838ZM59.6603 260.746L57.8049 259.999L58.1867 259.051L59.179 258.805L59.6603 260.746ZM68.63 258.522L69.1114 260.463L69.1113 260.463L68.63 258.522ZM76.6715 249.559L78.6534 249.828L78.6534 249.828L76.6715 249.559ZM70.5851 244.099L71.0665 246.04L71.0665 246.04L70.5851 244.099ZM57.6049 247.318L57.1234 245.377L57.1235 245.377L57.6049 247.318ZM51.784 251.313L53.1974 252.728C52.6771 253.248 52.2848 253.828 52.0442 254.426L50.1889 253.679L48.3336 252.932C48.7991 251.775 49.5157 250.752 50.3707 249.898L51.784 251.313ZM50.1889 253.679L52.0442 254.426L44.1088 274.138L42.2535 273.391L40.3981 272.644L48.3336 252.932L50.1889 253.679ZM42.2535 273.391L44.1088 274.138C43.6998 275.154 43.8279 275.945 44.1343 276.464C44.4406 276.984 45.071 277.479 46.1585 277.613L45.9135 279.598L45.6686 281.583C43.5161 281.318 41.707 280.223 40.6886 278.496C39.6702 276.769 39.5883 274.656 40.3981 272.644L42.2535 273.391ZM45.9135 279.598L46.1584 277.613C48.4985 277.902 51.2514 276.279 52.132 274.092L53.9874 274.838L55.8427 275.585C54.2851 279.455 49.8086 282.094 45.6687 281.583L45.9135 279.598ZM53.9874 274.838L52.132 274.092L57.8049 259.999L59.6603 260.746L61.5156 261.493L55.8427 275.585L53.9874 274.838ZM59.6603 260.746L59.179 258.805L68.1487 256.581L68.63 258.522L69.1113 260.463L60.1415 262.687L59.6603 260.746ZM68.63 258.522L68.1486 256.581C69.6342 256.213 71.1771 255.224 72.4225 253.836C73.6679 252.448 74.484 250.807 74.6896 249.29L76.6715 249.559L78.6534 249.828C78.319 252.294 77.0649 254.651 75.3999 256.507C73.7348 258.363 71.527 259.864 69.1114 260.463L68.63 258.522ZM76.6715 249.559L74.6896 249.29C74.8924 247.795 74.457 246.909 73.9583 246.461C73.4597 246.014 72.5313 245.677 71.0665 246.04L70.5851 244.099L70.1037 242.158C72.5403 241.554 74.9251 241.955 76.6293 243.484C78.3336 245.013 78.9907 247.34 78.6534 249.828L76.6715 249.559ZM70.5851 244.099L71.0665 246.04L58.0863 249.259L57.6049 247.318L57.1235 245.377L70.1037 242.158L70.5851 244.099ZM57.6049 247.318L58.0864 249.259C56.4035 249.677 54.6571 250.888 53.3586 252.546L51.784 251.313L50.2095 250.08C51.9389 247.872 54.4033 246.052 57.1234 245.377L57.6049 247.318Z" fill="black" mask="url(#path-32-inside-8_211_11391)"/>
<mask id="path-34-inside-9_211_11391" fill="white">
<path fill-rule="evenodd" clip-rule="evenodd" d="M55.8435 259.521C55.2118 260.154 54.7028 260.891 54.3779 261.698L47.0495 279.902C45.9237 282.699 47.4365 285.266 50.4287 285.636C53.421 286.005 56.7591 284.036 57.8849 281.24L63.1243 268.225L71.4058 266.171C75.0087 265.278 78.3338 261.572 78.8326 257.894C79.3312 254.215 76.8147 251.958 73.2118 252.851L61.2245 255.824C59.1887 256.329 57.2421 257.733 55.8435 259.521Z"/>
</mask>
<path fill-rule="evenodd" clip-rule="evenodd" d="M55.8435 259.521C55.2118 260.154 54.7028 260.891 54.3779 261.698L47.0495 279.902C45.9237 282.699 47.4365 285.266 50.4287 285.636C53.421 286.005 56.7591 284.036 57.8849 281.24L63.1243 268.225L71.4058 266.171C75.0087 265.278 78.3338 261.572 78.8326 257.894C79.3312 254.215 76.8147 251.958 73.2118 252.851L61.2245 255.824C59.1887 256.329 57.2421 257.733 55.8435 259.521Z" fill="#F38E8E"/>
<path fill-rule="evenodd" clip-rule="evenodd" d="M55.8435 259.521L57.419 260.753L57.3444 260.848L57.2588 260.934L55.8435 259.521ZM54.3779 261.698L52.5226 260.951L52.5226 260.951L54.3779 261.698ZM47.0495 279.902L45.1942 279.155L45.1942 279.155L47.0495 279.902ZM50.4287 285.636L50.1838 287.621L50.1838 287.621L50.4287 285.636ZM57.8849 281.24L56.0296 280.493L56.0296 280.493L57.8849 281.24ZM63.1243 268.225L61.269 267.478L61.6507 266.53L62.6429 266.284L63.1243 268.225ZM71.4058 266.171L71.8872 268.113L71.8872 268.113L71.4058 266.171ZM78.8326 257.894L80.8144 258.162L80.8144 258.162L78.8326 257.894ZM73.2118 252.851L72.7304 250.91L72.7304 250.91L73.2118 252.851ZM61.2245 255.824L60.7431 253.883L60.7431 253.883L61.2245 255.824ZM55.8435 259.521L57.2588 260.934C56.7938 261.4 56.4461 261.916 56.2332 262.445L54.3779 261.698L52.5226 260.951C52.9594 259.866 53.6297 258.908 54.4283 258.108L55.8435 259.521ZM54.3779 261.698L56.2332 262.445L48.9048 280.649L47.0495 279.902L45.1942 279.155L52.5226 260.951L54.3779 261.698ZM47.0495 279.902L48.9049 280.649C48.5423 281.55 48.6623 282.23 48.9179 282.664C49.1734 283.098 49.7103 283.532 50.6737 283.651L50.4287 285.636L50.1838 287.621C48.1549 287.37 46.4392 286.336 45.4718 284.695C44.5044 283.053 44.431 281.052 45.1942 279.155L47.0495 279.902ZM50.4287 285.636L50.6737 283.651C52.7658 283.909 55.2422 282.449 56.0296 280.493L57.8849 281.24L59.7403 281.986C58.276 285.624 54.0762 288.101 50.1838 287.621L50.4287 285.636ZM57.8849 281.24L56.0296 280.493L61.269 267.478L63.1243 268.225L64.9796 268.972L59.7402 281.986L57.8849 281.24ZM63.1243 268.225L62.6429 266.284L70.9244 264.23L71.4058 266.171L71.8872 268.113L63.6056 270.166L63.1243 268.225ZM71.4058 266.171L70.9244 264.23C72.2609 263.899 73.6605 263.005 74.7946 261.741C75.9288 260.477 76.6657 258.989 76.8507 257.625L78.8326 257.894L80.8144 258.162C80.5007 260.476 79.3257 262.681 77.7719 264.413C76.218 266.144 74.1536 267.551 71.8872 268.113L71.4058 266.171ZM78.8326 257.894L76.8507 257.625C77.0328 256.282 76.6391 255.519 76.2247 255.147C75.8103 254.775 75.0087 254.466 73.6932 254.793L73.2118 252.851L72.7304 250.91C75.0178 250.343 77.2759 250.716 78.8958 252.169C80.5157 253.623 81.1311 255.827 80.8144 258.162L78.8326 257.894ZM73.2118 252.851L73.6933 254.793L61.706 257.766L61.2245 255.824L60.7431 253.883L72.7304 250.91L73.2118 252.851ZM61.2245 255.824L61.706 257.766C60.1895 258.142 58.6022 259.24 57.419 260.753L55.8435 259.521L54.2681 258.289C55.882 256.225 58.1879 254.517 60.7431 253.883L61.2245 255.824Z" fill="black" mask="url(#path-34-inside-9_211_11391)"/>
<line x1="107.5" y1="137" x2="157.5" y2="137" stroke="#171717" stroke-width="2" stroke-linecap="round"/>
</g>
<rect x="0.868421" y="0.868421" width="262.263" height="262.263" rx="2.60526" stroke="#171717" stroke-width="1.73684"/>
<defs>
<clipPath id="clip0_211_11391">
<rect width="264" height="264" rx="3.47368" fill="white"/>
</clipPath>
</defs>
</svg>
