<svg width="201" height="201" viewBox="0 0 201 201" fill="none" xmlns="http://www.w3.org/2000/svg">
<path d="M91.4141 9.06543C96.6484 4.60029 104.352 4.60029 109.586 9.06543L114.599 13.3418C118.438 16.6171 123.599 17.8883 128.521 16.7725L134.947 15.3164C141.657 13.7955 148.477 17.3746 151.037 23.7607L153.488 29.877C155.366 34.5614 159.344 38.0854 164.221 39.3848L170.588 41.0811C177.236 42.8523 181.612 49.192 180.911 56.0361L180.239 62.5918C179.725 67.6122 181.609 72.5813 185.323 75.998L190.173 80.459C195.236 85.1169 196.165 92.7636 192.363 98.498L188.723 103.99C185.934 108.197 185.293 113.472 186.994 118.224L189.215 124.428C191.534 130.905 188.803 138.108 182.771 141.419L176.995 144.59C172.571 147.018 169.552 151.392 168.85 156.39L167.934 162.915C166.977 169.728 161.211 174.836 154.332 174.965L147.743 175.089C142.697 175.183 137.992 177.653 135.048 181.752L131.204 187.104C127.19 192.692 119.71 194.535 113.56 191.452L107.669 188.5C103.157 186.239 97.8429 186.239 93.3311 188.5L87.4404 191.452C81.2896 194.535 73.8096 192.692 69.7959 187.104L65.9521 181.752C63.008 177.653 58.3026 175.183 53.2568 175.089L46.668 174.965C39.7892 174.836 34.0235 169.728 33.0664 162.915L32.1504 156.39C31.4484 151.392 28.4289 147.018 24.0049 144.59L18.2285 141.419C12.1975 138.108 9.46632 130.905 11.7852 124.428L14.0059 118.224C15.7067 113.472 15.0659 108.197 12.2773 103.99L8.63672 98.498C4.83518 92.7636 5.76367 85.1169 10.8271 80.459L15.6768 75.998C19.3909 72.5813 21.2751 67.6122 20.7607 62.5918L20.0889 56.0361C19.3878 49.192 23.764 42.8523 30.4121 41.0811L36.7793 39.3848C41.6559 38.0854 45.6341 34.5614 47.5117 29.877L49.9629 23.7607C52.5226 17.3747 59.343 13.7955 66.0527 15.3164L72.4795 16.7725C77.4014 17.8883 82.5618 16.6171 86.4014 13.3418L91.4141 9.06543Z" fill="#FFE732" stroke="#171717" stroke-width="2"/>
<path d="M91.4141 20.0654C96.6484 15.6003 104.352 15.6003 109.586 20.0654L112.358 22.4307C116.198 25.706 121.358 26.9781 126.28 25.8623L129.835 25.0557C136.545 23.5346 143.365 27.1148 145.925 33.501L147.281 36.8838C149.159 41.5683 153.137 45.0923 158.014 46.3916L161.535 47.3301C168.183 49.1014 172.56 55.4409 171.858 62.2852L171.486 65.9111C170.972 70.9316 172.857 75.9006 176.571 79.3174L179.253 81.7852C184.316 86.4432 185.245 94.0898 181.443 99.8242L179.43 102.862C176.641 107.069 176 112.344 177.701 117.096L178.93 120.527C181.248 127.005 178.517 134.208 172.486 137.519L169.291 139.272C164.867 141.701 161.849 146.075 161.146 151.072L160.639 154.682C159.681 161.495 153.916 166.603 147.037 166.731L143.394 166.8C138.348 166.894 133.641 169.364 130.697 173.463L128.571 176.423C124.558 182.011 117.079 183.855 110.928 180.772L107.669 179.139C103.157 176.877 97.8428 176.877 93.3311 179.139L90.0723 180.772C83.9215 183.855 76.4423 182.011 72.4287 176.423L70.3027 173.463C67.3586 169.364 62.6524 166.894 57.6064 166.8L53.9629 166.731C47.0841 166.603 41.3185 161.495 40.3613 154.682L39.8535 151.072C39.1515 146.075 36.1329 141.701 31.709 139.272L28.5137 137.519C22.4826 134.208 19.7515 127.005 22.0703 120.527L23.2988 117.096C24.9998 112.344 24.3589 107.069 21.5703 102.862L19.5566 99.8242C15.755 94.0898 16.6836 86.4432 21.7471 81.7852L24.4287 79.3174C28.143 75.9006 30.0281 70.9316 29.5137 65.9111L29.1416 62.2852C28.4404 55.4409 32.8167 49.1014 39.4648 47.3301L42.9863 46.3916C47.863 45.0923 51.8411 41.5683 53.7188 36.8838L55.0752 33.501C57.6349 27.1148 64.4552 23.5346 71.165 25.0557L74.7197 25.8613C79.6416 26.9771 84.802 25.706 88.6416 22.4307L91.4141 20.0654Z" fill="#FFF0AC" stroke="#171717" stroke-width="2"/>
<rect x="110.171" y="42.3428" width="12.2565" height="49.7738" rx="6.12827" transform="rotate(16.5912 110.171 42.3428)" fill="#FFE732" stroke="#171717" stroke-width="2"/>
<path d="M120.127 47.6656L108.115 50.0547" stroke="#171717" stroke-width="2"/>
<path d="M119.764 53.9443L106.201 56.482" stroke="#171717" stroke-width="2"/>
<path d="M117.743 60.7238L104.181 63.2615" stroke="#171717" stroke-width="2"/>
<path d="M95.3074 83.1648C101.727 78.6033 111.287 81.5002 113.939 89.0443L114.061 89.4065L114.392 90.468C117.801 101.569 120.959 116.869 119.018 129.013C118.008 135.337 115.343 142.447 108.771 146.829C101.967 151.366 93.4062 151.396 84.4986 148.742C75.6322 146.101 68.3855 141.375 65.3736 133.655C62.4869 126.255 64.6127 118.855 67.4993 113.179C73.2731 101.826 85.4842 90.6482 94.9902 83.3984L95.0717 83.3371L95.2265 83.2243L95.3074 83.1648ZM102.462 93.0254C102.353 92.9897 102.262 92.9852 102.212 92.9886C93.0125 100.012 82.6804 109.812 78.2004 118.621C75.9716 123.004 75.4869 126.543 76.559 129.291C77.652 132.093 80.7579 135.101 87.9265 137.237C95.0641 139.364 99.4612 138.607 102.111 136.84C104.706 135.109 106.402 131.886 107.164 127.118C108.702 117.493 106.035 103.881 102.642 93.1157C102.608 93.0913 102.549 93.054 102.462 93.0254Z" fill="#FFE732"/>
<path d="M95.3074 83.1648L94.7282 82.3497L94.7216 82.3543L94.7152 82.3591L95.3074 83.1648ZM113.939 89.0443L114.888 88.7266L114.885 88.7196L114.883 88.7126L113.939 89.0443ZM114.061 89.4065L115.016 89.109L115.012 89.0989L115.009 89.0889L114.061 89.4065ZM114.392 90.468L115.348 90.1744L115.346 90.1705L114.392 90.468ZM119.018 129.013L120.006 129.171L120.006 129.171L119.018 129.013ZM108.771 146.829L109.326 147.661L109.326 147.661L108.771 146.829ZM84.4986 148.742L84.213 149.701L84.2131 149.701L84.4986 148.742ZM65.3736 133.655L64.442 134.019L64.442 134.019L65.3736 133.655ZM67.4993 113.179L66.6079 112.726L66.6079 112.726L67.4993 113.179ZM94.9902 83.3984L94.3887 82.5995L94.3838 82.6033L94.9902 83.3984ZM95.0716 83.3371L94.4829 82.5288L94.4765 82.5335L94.4701 82.5382L95.0716 83.3371ZM95.2265 83.2243L95.8153 84.0326L95.8188 84.03L95.2265 83.2243ZM102.462 93.0254L102.774 92.0754L102.773 92.0752L102.462 93.0254ZM102.212 92.9886L102.144 91.9909L101.844 92.0112L101.605 92.1938L102.212 92.9886ZM78.2004 118.621L77.309 118.168L77.309 118.168L78.2004 118.621ZM76.559 129.291L75.6274 129.655L75.6274 129.655L76.559 129.291ZM87.9265 137.237L87.6409 138.196L87.6409 138.196L87.9265 137.237ZM102.111 136.84L102.666 137.672L102.666 137.672L102.111 136.84ZM107.164 127.118L108.151 127.276L108.151 127.276L107.164 127.118ZM102.642 93.1157L103.595 92.8151L103.495 92.498L103.225 92.3039L102.642 93.1157ZM95.3074 83.1648L95.8867 83.98C101.774 79.7964 110.568 82.4711 112.996 89.376L113.939 89.0443L114.883 88.7126C112.006 80.5294 101.679 77.4103 94.7282 82.3497L95.3074 83.1648ZM113.939 89.0443L112.991 89.3619L113.113 89.7242L114.061 89.4065L115.009 89.0889L114.888 88.7266L113.939 89.0443ZM114.061 89.4065L113.106 89.704L113.437 90.7655L114.392 90.468L115.346 90.1705L115.016 89.109L114.061 89.4065ZM114.392 90.468L113.436 90.7616C116.834 101.828 119.934 116.946 118.031 128.855L119.018 129.013L120.006 129.171C121.984 116.792 118.767 101.309 115.348 90.1744L114.392 90.468ZM119.018 129.013L118.031 128.855C117.041 135.051 114.456 141.836 108.217 145.997L108.771 146.829L109.326 147.661C116.23 143.057 118.975 135.623 120.006 129.171L119.018 129.013ZM108.771 146.829L108.217 145.997C101.759 150.303 93.546 150.394 84.7841 147.784L84.4986 148.742L84.2131 149.701C93.2663 152.398 102.175 152.429 109.326 147.661L108.771 146.829ZM84.4986 148.742L84.7841 147.784C76.057 145.184 69.1567 140.6 66.3052 133.292L65.3736 133.655L64.442 134.019C67.6143 142.15 75.2074 147.017 84.213 149.701L84.4986 148.742ZM65.3736 133.655L66.3052 133.292C63.57 126.28 65.5581 119.202 68.3906 113.632L67.4993 113.179L66.6079 112.726C63.6673 118.508 61.4037 126.23 64.442 134.019L65.3736 133.655ZM67.4993 113.179L68.3906 113.632C74.0576 102.489 86.1152 91.4245 95.5966 84.1936L94.9902 83.3984L94.3838 82.6033C84.8532 89.8718 72.4887 101.162 66.6079 112.726L67.4993 113.179ZM94.9902 83.3984L95.5917 84.1973L95.6732 84.136L95.0716 83.3371L94.4701 82.5382L94.3887 82.5996L94.9902 83.3984ZM95.0716 83.3371L95.6604 84.1454L95.8153 84.0326L95.2265 83.2243L94.6377 82.416L94.4829 82.5288L95.0716 83.3371ZM95.2265 83.2243L95.8188 84.03L95.8997 83.9706L95.3074 83.1648L94.7152 82.3591L94.6343 82.4185L95.2265 83.2243ZM102.462 93.0254L102.773 92.0752C102.537 91.9976 102.317 91.9793 102.144 91.9909L102.212 92.9886L102.279 93.9864C102.239 93.9891 102.211 93.9871 102.195 93.9851C102.176 93.9829 102.162 93.9794 102.15 93.9756L102.462 93.0254ZM102.212 92.9886L101.605 92.1938C92.3816 99.236 81.8959 109.149 77.309 118.168L78.2004 118.621L79.0917 119.075C83.4648 110.476 93.6435 100.789 102.819 93.7834L102.212 92.9886ZM78.2004 118.621L77.309 118.168C75.0239 122.662 74.4049 126.521 75.6274 129.655L76.559 129.291L77.4906 128.928C76.5689 126.565 76.9192 123.347 79.0917 119.075L78.2004 118.621ZM76.559 129.291L75.6274 129.655C76.8792 132.863 80.327 136.016 87.6409 138.196L87.9265 137.237L88.212 136.279C81.1888 134.186 78.4247 131.322 77.4906 128.928L76.559 129.291ZM87.9265 137.237L87.6409 138.196C94.9291 140.367 99.6717 139.668 102.666 137.672L102.111 136.84L101.556 136.008C99.2507 137.545 95.1991 138.361 88.212 136.279L87.9265 137.237ZM102.111 136.84L102.666 137.672C105.591 135.722 107.368 132.176 108.151 127.276L107.164 127.118L106.176 126.961C105.435 131.595 103.822 134.497 101.556 136.008L102.111 136.84ZM107.164 127.118L108.151 127.276C109.728 117.41 106.999 103.613 103.595 92.8151L102.642 93.1157L101.688 93.4163C105.071 104.15 107.676 117.575 106.176 126.961L107.164 127.118ZM102.642 93.1157L103.225 92.3039C103.132 92.2365 102.982 92.1437 102.774 92.0754L102.462 93.0254L102.149 93.9754C102.133 93.9702 102.117 93.9631 102.1 93.9542C102.084 93.9453 102.069 93.9357 102.058 93.9275L102.642 93.1157Z" fill="#171717"/>
<path d="M93.3675 100.495L90.4767 87.1062" stroke="#171717" stroke-width="2"/>
<path d="M99.2142 95.1896L96.3233 81.8013" stroke="#171717" stroke-width="2"/>
<path d="M87.3337 105.743L84.7667 92.4513" stroke="#171717" stroke-width="2"/>
<path d="M82.2504 112.841L79.1351 97.8196" stroke="#171717" stroke-width="2"/>
<path d="M78.2409 118.658L72.3897 105.205" stroke="#171717" stroke-width="2"/>
<path d="M76.2363 125.142L67.2891 113.864" stroke="#171717" stroke-width="2"/>
<path d="M77.6127 131.033L64.4321 124.025" stroke="#171717" stroke-width="2"/>
<path d="M79.702 133.221L67.0943 136.119" stroke="#171717" stroke-width="2"/>
<path d="M83.9442 136.05L73.6492 144.336" stroke="#171717" stroke-width="2"/>
<path d="M97.679 138.577L90.7877 149.833" stroke="#171717" stroke-width="2"/>
<path d="M89.0745 137.579L82.3974 148.116" stroke="#171717" stroke-width="2"/>
<path d="M105.968 131.651L110.7 144.805" stroke="#171717" stroke-width="2"/>
<path d="M107.206 124.084L116.828 136.062" stroke="#171717" stroke-width="2"/>
<path d="M107.548 115.963L119.256 125.91" stroke="#171717" stroke-width="2"/>
<path d="M106.019 105.33L119.415 116.867" stroke="#171717" stroke-width="2"/>
<path d="M103.431 92.9932L118.439 105.693" stroke="#171717" stroke-width="2"/>
<path d="M105.001 133.712L99.4808 149.98" stroke="#171717" stroke-width="2"/>
<rect x="93.7812" y="78.9558" width="23.5117" height="10.0055" rx="5.00276" transform="rotate(16.5912 93.7812 78.9558)" fill="#FFE732" stroke="#171717" stroke-width="2"/>
<path d="M101.524 81.002L93.7049 88.8506" stroke="#171717" stroke-width="2"/>
<path d="M107.743 82.4636L99.2468 91.2849" stroke="#171717" stroke-width="2"/>
<path d="M113.748 84.6445L105.36 93.1063" stroke="#171717" stroke-width="2"/>
<rect x="99.7802" y="58.8208" width="23.5117" height="10.0055" rx="5.00276" transform="rotate(16.5912 99.7802 58.8208)" fill="#FFE732" stroke="#171717" stroke-width="2"/>
<path d="M107.523 60.867L99.704 68.7156" stroke="#171717" stroke-width="2"/>
<path d="M113.742 62.3285L105.246 71.1499" stroke="#171717" stroke-width="2"/>
<path d="M119.747 64.5095L111.359 72.9713" stroke="#171717" stroke-width="2"/>
<rect x="96.7812" y="68.8882" width="23.5117" height="10.0055" rx="5.00276" transform="rotate(16.5912 96.7812 68.8882)" fill="#FFE732" stroke="#171717" stroke-width="2"/>
<path d="M117.972 75.7246L110.153 83.5732" stroke="#171717" stroke-width="2"/>
<path d="M101.646 70.0775L95.0824 76.3426" stroke="#171717" stroke-width="2"/>
<path d="M107.147 71.3246L98.6511 80.146" stroke="#171717" stroke-width="2"/>
<path d="M112.433 73.2912L104.044 81.753" stroke="#171717" stroke-width="2"/>
</svg>
