<svg preserveAspectRatio="none" width="100%" height="100%" overflow="visible" style="display: block;" viewBox="0 0 512.991 243.642" fill="none" xmlns="http://www.w3.org/2000/svg">
<g id="Group 83">
<g id="Union">
<path d="M346.266 2.45602C347.119 1.03592 348.962 0.575681 350.382 1.42868C351.803 2.28198 352.262 4.12564 351.409 5.54587L339.573 25.2451C384.896 42.9276 423.188 74.6617 449.092 115.094L467.083 102.729C468.449 101.791 470.317 102.136 471.255 103.502C472.194 104.867 471.847 106.735 470.482 107.674L452.264 120.193C472.74 154.08 484.662 193.714 485.042 236.104L508.938 235.679C510.594 235.649 511.961 236.968 511.991 238.625C512.02 240.281 510.701 241.648 509.044 241.678L455.053 242.642C453.397 242.671 452.03 241.353 452 239.696C451.971 238.04 453.29 236.672 454.947 236.643L479.043 236.212C478.684 195.042 467.143 156.542 447.31 123.599L425.979 138.26C424.614 139.198 422.746 138.852 421.807 137.486C420.869 136.121 421.215 134.254 422.581 133.315L444.143 118.495C418.735 78.7599 381.05 47.6332 336.435 30.4658L323.598 51.834C322.745 53.2538 320.902 53.7135 319.482 52.8603C318.062 52.007 317.602 50.1634 318.456 48.7431L330.707 28.3515C307.513 20.1554 282.554 15.6953 256.553 15.6953C229.598 15.6953 203.762 20.4897 179.852 29.2705L191.552 48.7441C192.405 50.1643 191.946 52.0071 190.526 52.8603C189.106 53.7135 187.263 53.2539 186.41 51.834L174.162 31.4492C130.093 49.0267 92.9644 80.286 68.023 119.978L87.4272 133.315C88.7926 134.254 89.1388 136.121 88.2007 137.486C87.2622 138.852 85.3943 139.198 84.0288 138.26L64.894 125.108C45.6299 157.687 34.4369 195.603 34.064 236.104L57.937 235.679C59.5936 235.649 60.9611 236.968 60.9907 238.625C61.0202 240.281 59.701 241.648 58.0444 241.678L4.05323 242.642C2.39671 242.671 1.0302 241.353 1.00049 239.696C0.970911 238.04 2.28931 236.672 3.9458 236.643L28.062 236.212C28.4175 194.408 39.9987 155.283 59.938 121.702L39.5259 107.674C38.1606 106.735 37.814 104.867 38.7524 103.502C39.6909 102.137 41.5589 101.791 42.9243 102.729L63.0728 116.577C88.5138 76.1884 126.252 44.3247 171.032 26.2392L158.599 5.54587C157.746 4.12564 158.205 2.28296 159.625 1.42966C161.046 0.576371 162.888 1.0358 163.742 2.45602L176.707 24.0341C201.562 14.7632 228.466 9.69532 256.553 9.69528C283.686 9.69528 309.715 14.4244 333.86 23.1035L346.266 2.45602Z" fill="url(#paint0_linear_435_19974)"/>
<path d="M346.266 2.45602L347.123 2.97106V2.97104L346.266 2.45602ZM350.382 1.42868L350.897 0.571497L350.897 0.571426L350.382 1.42868ZM351.409 5.54587L352.266 6.06089V6.06088L351.409 5.54587ZM339.573 25.2451L338.716 24.7301L338.105 25.7459L339.209 26.1767L339.573 25.2451ZM449.092 115.094L448.25 115.633L448.807 116.503L449.659 115.918L449.092 115.094ZM467.083 102.729L467.65 103.554L467.65 103.554L467.083 102.729ZM471.255 103.502L472.08 102.936V102.936L471.255 103.502ZM470.482 107.674L471.048 108.498L471.048 108.498L470.482 107.674ZM452.264 120.193L451.698 119.369L450.921 119.903L451.408 120.71L452.264 120.193ZM485.042 236.104L484.043 236.113L484.052 237.122L485.06 237.104L485.042 236.104ZM508.938 235.679L508.92 234.679H508.92L508.938 235.679ZM511.991 238.625L512.991 238.607V238.607L511.991 238.625ZM509.044 241.678L509.062 242.678V242.678L509.044 241.678ZM455.053 242.642L455.071 243.641H455.071L455.053 242.642ZM452 239.696L451.001 239.714V239.714L452 239.696ZM454.947 236.643L454.965 237.642H454.965L454.947 236.643ZM479.043 236.212L479.061 237.212L480.052 237.194L480.043 236.203L479.043 236.212ZM447.31 123.599L448.167 123.083L447.619 122.173L446.744 122.774L447.31 123.599ZM425.979 138.26L426.545 139.084H426.545L425.979 138.26ZM421.807 137.486L420.983 138.053L420.983 138.053L421.807 137.486ZM422.581 133.315L422.014 132.491V132.491L422.581 133.315ZM444.143 118.495L444.71 119.319L445.507 118.771L444.986 117.956L444.143 118.495ZM336.435 30.4658L336.794 29.5325L336.01 29.2309L335.578 29.9508L336.435 30.4658ZM323.598 51.834L324.455 52.3491L324.455 52.3489L323.598 51.834ZM319.482 52.8603L318.967 53.7175L318.967 53.7175L319.482 52.8603ZM318.456 48.7431L319.313 49.2581L319.313 49.2581L318.456 48.7431ZM330.707 28.3515L331.564 28.8665L332.194 27.8167L331.04 27.4087L330.707 28.3515ZM256.553 15.6953V14.6953V14.6953V15.6953ZM179.852 29.2705L179.507 28.3318L178.372 28.7487L178.995 29.7855L179.852 29.2705ZM191.552 48.7441L192.409 48.2292L192.409 48.2291L191.552 48.7441ZM190.526 52.8603L191.041 53.7175L191.041 53.7175L190.526 52.8603ZM186.41 51.834L185.552 52.349L185.553 52.3491L186.41 51.834ZM174.162 31.4492L175.019 30.9342L174.581 30.2053L173.791 30.5203L174.162 31.4492ZM68.023 119.978L67.1762 119.446L66.6656 120.259L67.4565 120.803L68.023 119.978ZM87.4272 133.315L86.8608 134.14L86.8608 134.14L87.4272 133.315ZM88.2007 137.486L89.0248 138.053L89.0249 138.053L88.2007 137.486ZM84.0288 138.26L83.4624 139.084H83.4624L84.0288 138.26ZM64.894 125.108L65.4605 124.284L64.5782 123.678L64.0333 124.599L64.894 125.108ZM34.064 236.104L33.064 236.095L33.0545 237.123L34.0818 237.104L34.064 236.104ZM57.937 235.679L57.9548 236.679H57.9549L57.937 235.679ZM60.9907 238.625L61.9906 238.607V238.607L60.9907 238.625ZM58.0444 241.678L58.0623 242.678H58.0623L58.0444 241.678ZM4.05323 242.642L4.03538 241.642H4.03537L4.05323 242.642ZM1.00049 239.696L0.000650794 239.714L0.000652105 239.714L1.00049 239.696ZM3.9458 236.643L3.92795 235.643H3.92788L3.9458 236.643ZM28.062 236.212L28.0799 237.212L29.0537 237.194L29.062 236.22L28.062 236.212ZM59.938 121.702L60.7978 122.213L61.2756 121.408L60.5044 120.878L59.938 121.702ZM39.5259 107.674L38.9594 108.498L38.9595 108.498L39.5259 107.674ZM38.7524 103.502L37.9283 102.935L37.9283 102.936L38.7524 103.502ZM42.9243 102.729L43.4907 101.905L43.4907 101.905L42.9243 102.729ZM63.0728 116.577L62.5064 117.401L63.3641 117.991L63.9189 117.11L63.0728 116.577ZM171.032 26.2392L171.406 27.1665L172.492 26.728L171.889 25.7242L171.032 26.2392ZM158.599 5.54587L159.456 5.03087L159.456 5.03086L158.599 5.54587ZM159.625 1.42966L159.11 0.572471L159.11 0.572474L159.625 1.42966ZM163.742 2.45602L162.885 2.97104V2.97105L163.742 2.45602ZM176.707 24.0341L175.849 24.5492L176.277 25.2615L177.056 24.9711L176.707 24.0341ZM256.553 9.69528V8.69528V8.69528V9.69528ZM333.86 23.1035L333.522 24.0445L334.294 24.3223L334.717 23.6185L333.86 23.1035ZM346.266 2.45602L347.123 2.97104C347.692 2.02399 348.921 1.71746 349.867 2.28594L350.382 1.42868L350.897 0.571426C349.003 -0.566096 346.546 0.0478474 345.409 1.94101L346.266 2.45602ZM350.382 1.42868L349.867 2.28586C350.814 2.85464 351.12 4.08388 350.552 5.03086L351.409 5.54587L352.266 6.06088C353.404 4.1674 352.791 1.70932 350.897 0.571497L350.382 1.42868ZM351.409 5.54587L350.552 5.03085L338.716 24.7301L339.573 25.2451L340.43 25.7601L352.266 6.06089L351.409 5.54587ZM339.573 25.2451L339.209 26.1767C384.333 43.7814 422.459 75.377 448.25 115.633L449.092 115.094L449.934 114.554C423.917 73.9465 385.459 42.0738 339.936 24.3135L339.573 25.2451ZM449.092 115.094L449.659 115.918L467.65 103.554L467.083 102.729L466.517 101.905L448.526 114.27L449.092 115.094ZM467.083 102.729L467.65 103.554C468.561 102.928 469.806 103.158 470.431 104.068L471.255 103.502L472.08 102.936C470.828 101.115 468.337 100.654 466.517 101.905L467.083 102.729ZM471.255 103.502L470.431 104.068C471.057 104.978 470.826 106.224 469.916 106.85L470.482 107.674L471.048 108.498C472.869 107.247 473.331 104.756 472.08 102.936L471.255 103.502ZM470.482 107.674L469.916 106.85L451.698 119.369L452.264 120.193L452.831 121.017L471.048 108.498L470.482 107.674ZM452.264 120.193L451.408 120.71C471.794 154.448 483.664 193.907 484.043 236.113L485.042 236.104L486.042 236.095C485.661 193.52 473.686 153.712 453.12 119.676L452.264 120.193ZM485.042 236.104L485.06 237.104L508.956 236.679L508.938 235.679L508.92 234.679L485.025 235.105L485.042 236.104ZM508.938 235.679L508.956 236.679C510.06 236.659 510.971 237.538 510.991 238.643L511.991 238.625L512.991 238.607C512.951 236.399 511.129 234.64 508.92 234.679L508.938 235.679ZM511.991 238.625L510.991 238.643C511.011 239.747 510.131 240.658 509.027 240.678L509.044 241.678L509.062 242.678C511.271 242.638 513.03 240.816 512.991 238.607L511.991 238.625ZM509.044 241.678L509.027 240.678L455.035 241.642L455.053 242.642L455.071 243.641L509.062 242.678L509.044 241.678ZM455.053 242.642L455.035 241.642C453.931 241.661 453.02 240.782 453 239.678L452 239.696L451.001 239.714C451.04 241.923 452.863 243.681 455.071 243.641L455.053 242.642ZM452 239.696L453 239.678C452.981 238.574 453.86 237.662 454.965 237.642L454.947 236.643L454.929 235.643C452.72 235.682 450.961 237.505 451.001 239.714L452 239.696ZM454.947 236.643L454.965 237.642L479.061 237.212L479.043 236.212L479.026 235.212L454.929 235.643L454.947 236.643ZM479.043 236.212L480.043 236.203C479.682 194.85 468.09 156.175 448.167 123.083L447.31 123.599L446.453 124.114C466.197 156.909 477.686 195.235 478.043 236.221L479.043 236.212ZM447.31 123.599L446.744 122.774L425.413 137.436L425.979 138.26L426.545 139.084L447.876 124.423L447.31 123.599ZM425.979 138.26L425.413 137.436C424.502 138.061 423.257 137.83 422.631 136.92L421.807 137.486L420.983 138.053C422.234 139.873 424.725 140.335 426.545 139.084L425.979 138.26ZM421.807 137.486L422.631 136.92C422.006 136.01 422.237 134.765 423.147 134.139L422.581 133.315L422.014 132.491C420.194 133.742 419.732 136.232 420.983 138.053L421.807 137.486ZM422.581 133.315L423.147 134.14L444.71 119.319L444.143 118.495L443.577 117.671L422.014 132.491L422.581 133.315ZM444.143 118.495L444.986 117.956C419.464 78.0438 381.61 46.7775 336.794 29.5325L336.435 30.4658L336.076 31.3991C380.489 48.4889 418.006 79.4761 443.301 119.034L444.143 118.495ZM336.435 30.4658L335.578 29.9508L322.741 51.319L323.598 51.834L324.455 52.3489L337.292 30.9808L336.435 30.4658ZM323.598 51.834L322.741 51.3188C322.172 52.2655 320.944 52.5718 319.997 52.0031L319.482 52.8603L318.967 53.7175C320.861 54.8551 323.317 54.2422 324.455 52.3491L323.598 51.834ZM319.482 52.8603L319.997 52.0031C319.05 51.4344 318.744 50.2051 319.313 49.2581L318.456 48.7431L317.598 48.2281C316.461 50.1216 317.073 52.5797 318.967 53.7175L319.482 52.8603ZM318.456 48.7431L319.313 49.2581L331.564 28.8665L330.707 28.3515L329.849 27.8365L317.598 48.2281L318.456 48.7431ZM330.707 28.3515L331.04 27.4087C307.74 19.1752 282.669 14.6953 256.553 14.6953V15.6953V16.6953C282.439 16.6953 307.285 21.1355 330.373 29.2944L330.707 28.3515ZM256.553 15.6953V14.6953C229.479 14.6953 203.526 19.5111 179.507 28.3318L179.852 29.2705L180.197 30.2092C203.998 21.4684 229.717 16.6953 256.553 16.6953V15.6953ZM179.852 29.2705L178.995 29.7855L190.695 49.2591L191.552 48.7441L192.409 48.2291L180.709 28.7555L179.852 29.2705ZM191.552 48.7441L190.695 49.259C191.264 50.206 190.957 51.4344 190.011 52.0031L190.526 52.8603L191.041 53.7175C192.935 52.5798 193.547 50.1226 192.409 48.2292L191.552 48.7441ZM190.526 52.8603L190.011 52.0031C189.064 52.5719 187.836 52.2656 187.267 51.3188L186.41 51.834L185.553 52.3491C186.69 54.2423 189.147 54.8552 191.041 53.7175L190.526 52.8603ZM186.41 51.834L187.267 51.3189L175.019 30.9342L174.162 31.4492L173.304 31.9642L185.552 52.349L186.41 51.834ZM174.162 31.4492L173.791 30.5203C129.524 48.1772 92.2291 79.5766 67.1762 119.446L68.023 119.978L68.8697 120.511C93.6997 80.9953 130.663 49.8761 174.532 32.378L174.162 31.4492ZM68.023 119.978L67.4565 120.803L86.8608 134.14L87.4272 133.315L87.9937 132.491L68.5894 119.154L68.023 119.978ZM87.4272 133.315L86.8608 134.14C87.7711 134.765 88.0019 136.01 87.3765 136.92L88.2007 137.486L89.0249 138.053C90.2758 136.232 89.814 133.742 87.9937 132.491L87.4272 133.315ZM88.2007 137.486L87.3766 136.92C86.7509 137.83 85.5054 138.061 84.5952 137.436L84.0288 138.26L83.4624 139.084C85.2831 140.335 87.7736 139.873 89.0248 138.053L88.2007 137.486ZM84.0288 138.26L84.5952 137.436L65.4605 124.284L64.894 125.108L64.3276 125.932L83.4624 139.084L84.0288 138.26ZM64.894 125.108L64.0333 124.599C44.682 157.325 33.4386 195.413 33.064 236.095L34.064 236.104L35.0639 236.114C35.4352 195.793 46.5778 158.048 65.7548 125.617L64.894 125.108ZM34.064 236.104L34.0818 237.104L57.9548 236.679L57.937 235.679L57.9192 234.679L34.0461 235.105L34.064 236.104ZM57.937 235.679L57.9549 236.679C59.0594 236.659 59.9712 237.539 59.9909 238.643L60.9907 238.625L61.9906 238.607C61.9511 236.398 60.1278 234.639 57.9192 234.679L57.937 235.679ZM60.9907 238.625L59.9909 238.643C60.0105 239.747 59.1311 240.658 58.0266 240.678L58.0444 241.678L58.0623 242.678C60.2708 242.638 62.0299 240.816 61.9906 238.607L60.9907 238.625ZM58.0444 241.678L58.0266 240.678L4.03538 241.642L4.05323 242.642L4.07108 243.641L58.0623 242.678L58.0444 241.678ZM4.05323 242.642L4.03537 241.642C2.93099 241.661 2.02013 240.783 2.00033 239.678L1.00049 239.696L0.000652105 239.714C0.0402596 241.923 1.86243 243.681 4.07108 243.641L4.05323 242.642ZM1.00049 239.696L2.00033 239.678C1.9806 238.574 2.85986 237.662 3.96373 237.642L3.9458 236.643L3.92788 235.643C1.71876 235.682 -0.0387819 237.506 0.000650794 239.714L1.00049 239.696ZM3.9458 236.643L3.96366 237.642L28.0799 237.212L28.062 236.212L28.0442 235.212L3.92795 235.643L3.9458 236.643ZM28.062 236.212L29.062 236.22C29.4159 194.598 40.9463 155.646 60.7978 122.213L59.938 121.702L59.0781 121.192C39.0511 154.92 27.4191 194.218 27.0621 236.203L28.062 236.212ZM59.938 121.702L60.5044 120.878L40.0923 106.85L39.5259 107.674L38.9595 108.498L59.3716 122.526L59.938 121.702ZM39.5259 107.674L40.0924 106.85C39.182 106.224 38.9511 104.978 39.5766 104.068L38.7524 103.502L37.9283 102.936C36.677 104.756 37.1393 107.247 38.9594 108.498L39.5259 107.674ZM38.7524 103.502L39.5766 104.068C40.202 103.158 41.4473 102.928 42.3579 103.554L42.9243 102.729L43.4907 101.905C41.6705 100.654 39.1799 101.115 37.9283 102.935L38.7524 103.502ZM42.9243 102.729L42.3579 103.554L62.5064 117.401L63.0728 116.577L63.6392 115.753L43.4907 101.905L42.9243 102.729ZM63.0728 116.577L63.9189 117.11C89.2493 76.897 126.823 45.1724 171.406 27.1665L171.032 26.2392L170.657 25.312C125.681 43.477 87.7784 75.4797 62.2266 116.044L63.0728 116.577ZM171.032 26.2392L171.889 25.7242L159.456 5.03087L158.599 5.54587L157.742 6.06087L170.175 26.7542L171.032 26.2392ZM158.599 5.54587L159.456 5.03086C158.887 4.08401 159.194 2.85569 160.141 2.28684L159.625 1.42966L159.11 0.572474C157.217 1.71022 156.604 4.16727 157.742 6.06088L158.599 5.54587ZM159.625 1.42966L160.14 2.28684C161.087 1.71796 162.316 2.02426 162.885 2.97104L163.742 2.45602L164.599 1.94101C163.461 0.0473457 161.004 -0.565222 159.11 0.572471L159.625 1.42966ZM163.742 2.45602L162.885 2.97105L175.849 24.5492L176.707 24.0341L177.564 23.5191L164.599 1.941L163.742 2.45602ZM176.707 24.0341L177.056 24.9711C201.802 15.7412 228.587 10.6953 256.553 10.6953V9.69528V8.69528C228.345 8.69532 201.323 13.7852 176.357 23.0972L176.707 24.0341ZM256.553 9.69528V10.6953C283.569 10.6953 309.484 15.4039 333.522 24.0445L333.86 23.1035L334.198 22.1624C309.947 13.4449 283.803 8.69528 256.553 8.69528V9.69528ZM333.86 23.1035L334.717 23.6185L347.123 2.97106L346.266 2.45602L345.409 1.94099L333.003 22.5884L333.86 23.1035Z" fill="var(--stroke-0, #171717)"/>
</g>
</g>
<defs>
<linearGradient id="paint0_linear_435_19974" x1="1.03662" y1="111.326" x2="512.025" y2="111.326" gradientUnits="userSpaceOnUse">
<stop stop-color="#F43F38"/>
<stop offset="0.485577" stop-color="#FFE732"/>
<stop offset="1" stop-color="#00A168"/>
</linearGradient>
</defs>
</svg>
