<svg width="81" height="80" viewBox="0 0 81 80" fill="none" xmlns="http://www.w3.org/2000/svg">
<rect width="81" height="80" rx="5" fill="#E1F5FF"/>
<path d="M41.5 7.65039C55.6588 7.65039 67.3496 21.7794 67.3496 39.5C67.3496 57.2206 55.6588 71.3496 41.5 71.3496C27.3412 71.3496 15.6504 57.2206 15.6504 39.5C15.6504 21.7794 27.3412 7.65039 41.5 7.65039Z" fill="#FFA4A4" stroke="black" stroke-width="1.3"/>
<path d="M41.7598 57.3496C43.8258 57.3496 45.6806 57.6564 46.7402 57.874C47.6025 58.0512 48.1699 58.8144 48.1699 59.6553C48.1699 60.6906 47.3302 61.5303 46.2949 61.5303H37.2246C36.1893 61.5303 35.3496 60.6906 35.3496 59.6553C35.3496 58.8144 35.917 58.0512 36.7793 57.874C37.8389 57.6564 39.6937 57.3496 41.7598 57.3496Z" fill="#FFFDFD" stroke="#171717" stroke-width="1.3"/>
<path d="M65.832 30.9082C66.6414 30.8167 67.3494 31.4495 67.3496 32.2627V38.2324C67.3496 38.9176 66.8475 39.4838 66.1787 39.5605C61.723 40.0718 49.7534 41.3496 41.5 41.3496C33.2466 41.3496 21.277 40.0718 16.8213 39.5605C16.1525 39.4838 15.6504 38.9176 15.6504 38.2324V32.2627C15.6506 31.4495 16.3586 30.8167 17.168 30.9082C21.9582 31.4506 33.4526 32.6504 41.5 32.6504C49.5474 32.6504 61.0418 31.4506 65.832 30.9082Z" fill="#FFFDFD" stroke="#171717" stroke-width="1.3"/>
<path d="M65.832 34.9082C66.6414 34.8167 67.3494 35.4495 67.3496 36.2627V42.2324C67.3496 42.9176 66.8475 43.4838 66.1787 43.5605C61.723 44.0718 49.7534 45.3496 41.5 45.3496C33.2466 45.3496 21.277 44.0718 16.8213 43.5605C16.1525 43.4838 15.6504 42.9176 15.6504 42.2324V36.2627C15.6506 35.4495 16.3586 34.8167 17.168 34.9082C21.9582 35.4506 33.4526 36.6504 41.5 36.6504C49.5474 36.6504 61.0418 35.4506 65.832 34.9082Z" fill="#FFFDFD" stroke="#171717" stroke-width="1.3"/>
<mask id="mask0_664_51529" style="mask-type:alpha" maskUnits="userSpaceOnUse" x="14" y="31" width="55" height="6">
<path d="M15.8965 32.1543C22.6123 32.8121 34.6192 33.8809 41.748 33.8809C48.8347 33.8808 60.5057 32.8247 67.0977 32.166C68.1022 32.0658 68.667 33.3025 67.9492 33.9932C67.7861 34.15 67.5909 34.2447 67.377 34.2725C64.4993 34.6455 50.8449 36.3505 41.748 36.3506C32.6394 36.3506 18.5684 34.6419 15.627 34.2715C15.4102 34.2442 15.2119 34.1489 15.0469 33.9902C14.3239 33.295 14.891 32.056 15.8965 32.1543Z" fill="#FFFDFD" stroke="#171717" stroke-width="1.3"/>
</mask>
<g mask="url(#mask0_664_51529)">
<line x1="22.5" y1="32" x2="22.5" y2="36" stroke="#8E8A7F"/>
<line x1="27.5" y1="32" x2="27.5" y2="36" stroke="#8E8A7F"/>
<line x1="33.5" y1="33" x2="33.5" y2="36" stroke="#8E8A7F"/>
<line x1="38.5" y1="33" x2="38.5" y2="36" stroke="#8E8A7F"/>
<line x1="45.5" y1="33" x2="45.5" y2="36" stroke="#8E8A7F"/>
<line x1="51.5" y1="32" x2="51.5" y2="36" stroke="#8E8A7F"/>
<line x1="57.5" y1="32" x2="57.5" y2="36" stroke="#8E8A7F"/>
<line x1="63.5" y1="31" x2="63.5" y2="35" stroke="#8E8A7F"/>
</g>
<path d="M39.1656 46C38.6822 49.7129 38.9723 56.3431 44 53.1606" stroke="#171717" stroke-width="1.3" stroke-linecap="round"/>
<mask id="mask1_664_51529" style="mask-type:alpha" maskUnits="userSpaceOnUse" x="14" y="34" width="57" height="11">
<path d="M66.8193 34.9404C67.5037 34.8278 68.1613 35.2421 68.3545 35.9072L69.7207 40.6094C69.9534 41.4105 69.4166 42.2188 68.5977 42.3125C63.2348 42.9263 49.9081 44.3496 41.7432 44.3496C33.4004 44.3496 20.6406 42.8628 15.9131 42.2734C15.2205 42.1871 14.7158 41.5789 14.7568 40.8701L15.0234 36.2734C15.0702 35.4691 15.8076 34.8758 16.6104 35.0029C21.504 35.7783 33.5423 37.5449 41.7432 37.5449C50.1722 37.5449 62.3317 35.6792 66.8193 34.9404Z" fill="#FFFDFD" stroke="#171717" stroke-width="1.3"/>
</mask>
<g mask="url(#mask1_664_51529)">
<path d="M30 45C30 45.2761 30.2239 45.5 30.5 45.5C30.7761 45.5 31 45.2761 31 45L30.5 45L30 45ZM30.5 36L30 36L30 45L30.5 45L31 45L31 36L30.5 36Z" fill="#8E8A7F"/>
<path d="M35 45C35 45.2761 35.2239 45.5 35.5 45.5C35.7761 45.5 36 45.2761 36 45L35.5 45L35 45ZM35.5 36L35 36L35 45L35.5 45L36 45L36 36L35.5 36Z" fill="#8E8A7F"/>
<path d="M41 45C41 45.2761 41.2239 45.5 41.5 45.5C41.7761 45.5 42 45.2761 42 45L41.5 45L41 45ZM41.5 36L41 36L41 45L41.5 45L42 45L42 36L41.5 36Z" fill="#8E8A7F"/>
<path d="M48 45C48 45.2761 48.2239 45.5 48.5 45.5C48.7761 45.5 49 45.2761 49 45L48.5 45L48 45ZM48.5 36L48 36L48 45L48.5 45L49 45L49 36L48.5 36Z" fill="#8E8A7F"/>
<path d="M54 45C54 45.2761 54.2239 45.5 54.5 45.5C54.7761 45.5 55 45.2761 55 45L54.5 45L54 45ZM54.5 36L54 36L54 45L54.5 45L55 45L55 36L54.5 36Z" fill="#8E8A7F"/>
<path d="M61 44C61 44.2761 61.2239 44.5 61.5 44.5C61.7761 44.5 62 44.2761 62 44H61.5H61ZM61.5 36H61V44H61.5H62V36H61.5Z" fill="#8E8A7F"/>
<path d="M25 45C25 45.2761 25.2239 45.5 25.5 45.5C25.7761 45.5 26 45.2761 26 45L25.5 45L25 45ZM25.5 36L25 36L25 45L25.5 45L26 45L26 36L25.5 36Z" fill="#8E8A7F"/>
<path d="M20 44C20 44.2761 20.2239 44.5 20.5 44.5C20.7761 44.5 21 44.2761 21 44L20.5 44L20 44ZM20.5 35L20 35L20 44L20.5 44L21 44L21 35L20.5 35Z" fill="#8E8A7F"/>
</g>
<path d="M16.5 37.5L24.5 38.5" stroke="#171717" stroke-width="1.3" stroke-linecap="round"/>
<path d="M16 40.6631L21.5313 41.1709" stroke="#171717" stroke-width="1.3" stroke-linecap="round"/>
<path d="M59 38.834L67.0162 37.973" stroke="#171717" stroke-width="1.3" stroke-linecap="round"/>
<path d="M61.0337 41.3047L67.0455 41.3021" stroke="#171717" stroke-width="1.3" stroke-linecap="round"/>
<path d="M65.832 34.9082C66.6414 34.8167 67.3494 35.4495 67.3496 36.2627V42.2324C67.3496 42.9176 66.8475 43.4838 66.1787 43.5605C61.723 44.0718 49.7534 45.3496 41.5 45.3496C33.2466 45.3496 21.277 44.0718 16.8213 43.5605C16.1525 43.4838 15.6504 42.9176 15.6504 42.2324V36.2627C15.6506 35.4495 16.3586 34.8167 17.168 34.9082C21.9582 35.4506 33.4526 36.6504 41.5 36.6504C49.5474 36.6504 61.0418 35.4506 65.832 34.9082Z" stroke="#171717" stroke-width="1.3"/>
</svg>
