<svg width="81" height="80" viewBox="0 0 81 80" fill="none" xmlns="http://www.w3.org/2000/svg">
<rect x="0.9375" y="0.9375" width="79.125" height="78.125" rx="4.0625" fill="#E1F5FF"/>
<rect x="0.9375" y="0.9375" width="79.125" height="78.125" rx="4.0625" stroke="#171717" stroke-width="1.875"/>
<path d="M41.5 7.65039C55.6588 7.65039 67.3496 21.7794 67.3496 39.5C67.3496 57.2206 55.6588 71.3496 41.5 71.3496C27.3412 71.3496 15.6504 57.2206 15.6504 39.5C15.6504 21.7794 27.3412 7.65039 41.5 7.65039Z" fill="#FFA4A4" stroke="black" stroke-width="1.3"/>
<path d="M41.7598 57.3496C43.8258 57.3496 45.6806 57.6564 46.7402 57.874C47.6025 58.0512 48.1699 58.8144 48.1699 59.6553C48.1699 60.6906 47.3302 61.5303 46.2949 61.5303H37.2246C36.1893 61.5303 35.3496 60.6906 35.3496 59.6553C35.3496 58.8144 35.917 58.0512 36.7793 57.874C37.8389 57.6564 39.6937 57.3496 41.7598 57.3496Z" fill="#FFFDFD" stroke="#171717" stroke-width="1.3"/>
<path d="M65.832 30.9082C66.6414 30.8167 67.3494 31.4495 67.3496 32.2627V38.2324C67.3496 38.9176 66.8475 39.4838 66.1787 39.5605C61.723 40.0718 49.7534 41.3496 41.5 41.3496C33.2466 41.3496 21.277 40.0718 16.8213 39.5605C16.1525 39.4838 15.6504 38.9176 15.6504 38.2324V32.2627C15.6506 31.4495 16.3586 30.8167 17.168 30.9082C21.9582 31.4506 33.4526 32.6504 41.5 32.6504C49.5474 32.6504 61.0418 31.4506 65.832 30.9082Z" fill="#FFFDFD" stroke="#171717" stroke-width="1.3"/>
<path d="M65.832 34.9082C66.6414 34.8167 67.3494 35.4495 67.3496 36.2627V42.2324C67.3496 42.9176 66.8475 43.4838 66.1787 43.5605C61.723 44.0718 49.7534 45.3496 41.5 45.3496C33.2466 45.3496 21.277 44.0718 16.8213 43.5605C16.1525 43.4838 15.6504 42.9176 15.6504 42.2324V36.2627C15.6506 35.4495 16.3586 34.8167 17.168 34.9082C21.9582 35.4506 33.4526 36.6504 41.5 36.6504C49.5474 36.6504 61.0418 35.4506 65.832 34.9082Z" fill="#FFFDFD" stroke="#171717" stroke-width="1.3"/>
<path d="M39.1656 46C38.6822 49.7129 38.9723 56.3431 44 53.1606" stroke="#171717" stroke-width="1.3" stroke-linecap="round"/>
<path d="M15.5 37.5L23.5 38.5" stroke="#171717" stroke-width="1.3" stroke-linecap="round"/>
<path d="M16 40.6631L21.5313 41.1709" stroke="#171717" stroke-width="1.3" stroke-linecap="round"/>
<path d="M59 38.834L67.0162 37.973" stroke="#171717" stroke-width="1.3" stroke-linecap="round"/>
<path d="M61.0337 41.3047L67.0455 41.3021" stroke="#171717" stroke-width="1.3" stroke-linecap="round"/>
<line x1="30.5" y1="36" x2="30.5" y2="45" stroke="#8E8A7F"/>
<line x1="35.5" y1="36" x2="35.5" y2="45" stroke="#8E8A7F"/>
<line x1="41.5" y1="36" x2="41.5" y2="45" stroke="#8E8A7F"/>
<line x1="48.5" y1="36" x2="48.5" y2="45" stroke="#8E8A7F"/>
<line x1="54.5" y1="36" x2="54.5" y2="45" stroke="#8E8A7F"/>
<line x1="61.5" y1="36" x2="61.5" y2="44" stroke="#8E8A7F"/>
<line x1="25.5" y1="36" x2="25.5" y2="45" stroke="#8E8A7F"/>
<line x1="20.5" y1="35" x2="20.5" y2="44" stroke="#8E8A7F"/>
<line x1="22.5" y1="32" x2="22.5" y2="36" stroke="#8E8A7F"/>
<line x1="27.5" y1="32" x2="27.5" y2="36" stroke="#8E8A7F"/>
<line x1="33.5" y1="33" x2="33.5" y2="36" stroke="#8E8A7F"/>
<line x1="38.5" y1="33" x2="38.5" y2="36" stroke="#8E8A7F"/>
<line x1="45.5" y1="33" x2="45.5" y2="36" stroke="#8E8A7F"/>
<line x1="51.5" y1="32" x2="51.5" y2="36" stroke="#8E8A7F"/>
<line x1="57.5" y1="32" x2="57.5" y2="36" stroke="#8E8A7F"/>
<line x1="63.5" y1="31" x2="63.5" y2="35" stroke="#8E8A7F"/>
</svg>
