<svg width="81" height="80" viewBox="0 0 81 80" fill="none" xmlns="http://www.w3.org/2000/svg">
<g clip-path="url(#clip0_211_9676)">
<rect width="81" height="80" rx="5" fill="#E1F5FF"/>
<rect x="-0.0446429" y="0.580357" width="80.0893" height="80.0893" fill="#E1F5FF"/>
<path d="M63.473 38.595C64.356 38.9024 65.0131 39.9645 65.2206 41.684C65.4243 43.3718 65.1688 45.549 64.3839 47.8038C63.599 50.0586 62.4473 51.9238 61.2396 53.1203C60.0091 54.3393 58.8343 54.7647 57.9512 54.4573C57.0683 54.1497 56.4124 53.0871 56.2049 51.3677C56.0012 49.6799 56.2567 47.5027 57.0416 45.2479C57.8265 42.9931 58.9782 41.1278 60.1859 39.9314C61.4162 38.7127 62.59 38.2879 63.473 38.595Z" fill="#F38E8E" stroke="#171717" stroke-width="0.870536"/>
<path d="M15.4125 38.2466C16.2771 37.8906 17.4734 38.2491 18.7698 39.3977C20.0421 40.5251 21.2958 42.3235 22.2049 44.5311C23.114 46.7387 23.4903 48.8984 23.3808 50.5949C23.2692 52.3233 22.6727 53.4212 21.8081 53.7772C20.9435 54.133 19.7476 53.7734 18.4514 52.6248C17.179 51.4974 15.9253 49.6991 15.0162 47.4915C14.1071 45.2838 13.7308 43.1242 13.8403 41.4277C13.9519 39.6996 14.5481 38.6028 15.4125 38.2466Z" fill="#F38E8E" stroke="#171717" stroke-width="0.870536"/>
<path d="M29.8279 18.2148H49.6189C56.1095 18.2148 61.3708 23.4762 61.3708 29.9668V54.377C61.3707 64.2329 53.3811 72.2227 43.5251 72.2227H35.9216C26.0657 72.2227 18.0761 64.2329 18.0759 54.377V29.9668C18.0759 23.4762 23.3373 18.2148 29.8279 18.2148Z" fill="#F38E8E" stroke="#171717" stroke-width="0.870536"/>
<path d="M38.217 41.084C38.1558 43.368 36.853 47.1019 35.8688 48.6956C35.1339 49.8855 31.4842 54.9713 38.7973 55.3103C46.1105 55.6494 46.1233 54.1677 45.5061 51.4297" stroke="black" stroke-width="0.870536"/>
<path d="M46.8643 23.8866C42.6357 20.0339 38.8032 19.0866 37.0177 19.0866C37.32 19.0791 30.2316 18.9061 26.3991 20.9291C22.5667 22.9521 23.2778 26.3298 22.808 23.8866C21.3796 25.2856 20.8972 30.6715 20.8346 33.1896C20.8346 36.0087 20.5085 41.2457 19.204 39.6405C17.5733 37.6341 14.6325 33.1896 19.0529 22.138C23.4733 11.0863 33.4266 9.41517 39.2844 8.84002C45.1421 8.26488 54.9458 10.3549 59.9848 17.7408C65.0238 25.1267 63.8729 40.7073 60.711 40.3517C57.5491 39.9961 59.2684 32.3439 59.3624 28.961C59.4375 26.2547 55.1964 22.2578 53.0664 20.5977C52.6905 20.2844 52.5401 20.9736 54.9458 26.2359C53.0664 23.7551 48.7751 21.4434 46.8643 20.5977C48.2739 22.9783 50.2473 26.9689 46.8643 23.8866Z" fill="#231E1F" stroke="black" stroke-width="0.870536" stroke-linejoin="round"/>
<path d="M42.6355 43.1533C42.6355 43.1533 41.1638 42.6053 40.1923 42.5898C39.2207 42.5743 37.5611 43.1533 37.5611 43.1533" stroke="black" stroke-width="0.870536"/>
<path d="M45.2236 44.9932C45.2236 45.7576 45.8434 46.3774 46.6078 46.3774H49.8953C50.6598 46.3774 51.2795 45.7576 51.2795 44.9932" stroke="black" stroke-width="0.870536"/>
<path d="M29.479 44.9932C29.479 45.7576 30.0987 46.3774 30.8632 46.3774H34.1507C34.9151 46.3774 35.5349 45.7576 35.5349 44.9932" stroke="black" stroke-width="0.870536"/>
<path d="M32.335 43.1797C33.0321 43.1797 33.6433 43.2984 34.0635 43.4746C34.2744 43.5631 34.4169 43.6578 34.5 43.7402C34.5814 43.821 34.582 43.8645 34.582 43.8691C34.582 43.8753 34.5796 43.9181 34.5 43.9971C34.4169 44.0795 34.2744 44.1742 34.0635 44.2627C33.6433 44.4389 33.0321 44.5586 32.335 44.5586C31.638 44.5586 31.0276 44.4388 30.6074 44.2627C30.3964 44.1742 30.254 44.0795 30.1709 43.9971C30.0911 43.9179 30.0889 43.8753 30.0889 43.8691C30.0889 43.8645 30.0894 43.8211 30.1709 43.7402C30.2541 43.6578 30.3965 43.563 30.6074 43.4746C31.0275 43.2985 31.6381 43.1797 32.335 43.1797Z" fill="#D9D9D9" stroke="black" stroke-width="0.870536"/>
<path d="M48.2534 43.1797C48.9506 43.1797 49.5617 43.2984 49.9819 43.4746C50.1929 43.5631 50.3353 43.6578 50.4185 43.7402C50.4999 43.821 50.5005 43.8645 50.5005 43.8691C50.5004 43.8753 50.498 43.9181 50.4185 43.9971C50.3353 44.0795 50.1928 44.1742 49.9819 44.2627C49.5617 44.4389 48.9506 44.5586 48.2534 44.5586C47.5565 44.5586 46.946 44.4388 46.5259 44.2627C46.3149 44.1742 46.1725 44.0795 46.0894 43.9971C46.0095 43.9179 46.0074 43.8753 46.0073 43.8691C46.0073 43.8645 46.0078 43.8211 46.0894 43.7402C46.1725 43.6578 46.315 43.563 46.5259 43.4746C46.946 43.2985 47.5565 43.1797 48.2534 43.1797Z" fill="#D9D9D9" stroke="black" stroke-width="0.870536"/>
<path d="M32.4231 43.1797C32.8826 43.1797 33.1995 43.5182 33.1995 43.8691C33.1993 44.2199 32.8824 44.5586 32.4231 44.5586C31.9639 44.5585 31.6479 44.2199 31.6477 43.8691C31.6477 43.5183 31.9638 43.1798 32.4231 43.1797Z" fill="#231E1F" stroke="black" stroke-width="0.870536"/>
<path d="M48.3394 43.1797C48.7988 43.1797 49.1157 43.5182 49.1157 43.8691C49.1155 44.2199 48.7987 44.5586 48.3394 44.5586C47.8802 44.5585 47.5642 44.2199 47.564 43.8691C47.564 43.5183 47.88 43.1798 48.3394 43.1797Z" fill="#231E1F" stroke="black" stroke-width="0.870536"/>
<rect x="44.281" y="39.158" width="8.73924" height="0.657792" rx="0.328896" fill="#414141" stroke="black" stroke-width="0.657792"/>
<rect x="26.6143" y="39.158" width="8.73924" height="0.657792" rx="0.328896" fill="#414141" stroke="black" stroke-width="0.657792"/>
<path d="M29.2925 58.0586H50.3413C51.1389 58.0586 51.7856 58.7054 51.7856 59.5029C51.7854 61.8572 49.8763 63.7656 47.522 63.7656H32.1108C29.7566 63.7655 27.8484 61.8571 27.8481 59.5029C27.8481 58.7054 28.4949 58.0586 29.2925 58.0586Z" fill="#F15F60" stroke="black" stroke-width="0.870536"/>
<mask id="mask0_211_9676" style="mask-type:alpha" maskUnits="userSpaceOnUse" x="27" y="57" width="26" height="8">
<path d="M29.2935 58.0586H50.3423C51.1399 58.0586 51.7866 58.7054 51.7866 59.5029C51.7864 61.8572 49.8773 63.7656 47.5229 63.7656H32.1118C29.7576 63.7655 27.8494 61.8571 27.8491 59.5029C27.8491 58.7054 28.4959 58.0586 29.2935 58.0586Z" fill="#F15F60" stroke="black" stroke-width="0.870536"/>
</mask>
<g mask="url(#mask0_211_9676)">
<path d="M52.5461 60.8179C52.5461 60.8179 45.1384 59.9799 40.3598 59.9578C36.1647 59.9384 29.2792 60.616 27.6604 60.7817L22.2651 58.7155L27.312 56.0397L54.5156 55.1797L57.8391 59.0977L52.5461 60.8179Z" fill="white"/>
<path d="M27.312 60.8179C27.312 60.8179 27.4352 60.8048 27.6604 60.7817M27.6604 60.7817C29.2792 60.616 36.1647 59.9384 40.3598 59.9578C45.1384 59.9799 52.5461 60.8179 52.5461 60.8179L57.8391 59.0977L54.5156 55.1797L27.312 56.0397L22.2651 58.7155L27.6604 60.7817Z" stroke="black" stroke-width="0.870536"/>
</g>
<path d="M29.2925 58.0586H50.3413C51.1389 58.0586 51.7856 58.7054 51.7856 59.5029C51.7854 61.8572 49.8763 63.7656 47.522 63.7656H32.1108C29.7566 63.7655 27.8484 61.8571 27.8481 59.5029C27.8481 58.7054 28.4949 58.0586 29.2925 58.0586Z" stroke="black" stroke-width="0.870536"/>
<path d="M30.6313 40.6855H33.9009C35.9569 40.6857 37.6234 42.3521 37.6235 44.4082C37.6235 46.7378 35.7353 48.6269 33.4058 48.627H31.1265C28.7969 48.6269 26.9087 46.7378 26.9087 44.4082C26.9088 42.3521 28.5753 40.6856 30.6313 40.6855Z" stroke="black" stroke-width="0.870536"/>
<path d="M46.2966 40.6855H49.5662C51.6222 40.6857 53.2887 42.3521 53.2888 44.4082C53.2888 46.7378 51.4006 48.6269 49.071 48.627H46.7917C44.4622 48.6269 42.574 46.7378 42.574 44.4082C42.5741 42.3521 44.2406 40.6856 46.2966 40.6855Z" stroke="black" stroke-width="0.870536"/>
<path d="M32.6748 54.4297C32.017 54.9935 30.3255 56.1963 28.822 56.497" stroke="black" stroke-width="0.870536"/>
<path d="M46.7698 54.4297C47.4276 54.9935 49.119 56.1963 50.6226 56.497" stroke="black" stroke-width="0.870536"/>
</g>
<defs>
<clipPath id="clip0_211_9676">
<rect width="81" height="80" rx="5" fill="white"/>
</clipPath>
</defs>
</svg>
