<svg width="81" height="80" viewBox="0 0 81 80" fill="none" xmlns="http://www.w3.org/2000/svg">
<rect x="0.9375" y="0.9375" width="79.125" height="78.125" rx="4.0625" fill="#E1F5FF"/>
<path d="M50.8445 15.041C47.9921 18.3689 48.8637 21.1817 49.656 22.1721C53.4197 26.1339 61.4622 33.8819 63.5225 33.1802C66.0978 32.303 66.8898 27.5205 65.7013 25.1434C64.8576 23.4561 64.5754 20.3962 64.5225 18.6209C64.5104 18.2162 64.461 17.814 64.3588 17.4222L61.2202 5.39078C61.0519 4.74557 60.5448 4.24367 59.8979 4.08195C59.1112 3.88527 58.2911 4.23044 57.8706 4.92388C56.2184 7.64891 53.2971 12.1797 50.8445 15.041Z" fill="#594637" stroke="#171717" stroke-width="1.18852" stroke-linecap="round" stroke-linejoin="round"/>
<path d="M53.4578 16.7765C51.3097 20.2655 51.9661 23.2145 52.5628 24.2529C55.3971 28.4064 61.4536 36.5295 63.0051 35.7938C64.9444 34.8742 67.1903 28.8245 66.2953 26.3324C65.673 24.5997 65.4563 21.4867 65.4102 19.6107C65.398 19.1104 65.3212 18.6136 65.166 18.1378L61.2686 6.18433C61.1408 5.79222 60.837 5.4824 60.4475 5.34683C59.7889 5.11761 59.0664 5.43913 58.7885 6.07871C57.5517 8.92488 55.3245 13.7446 53.4578 16.7765Z" fill="#FFA4A4" stroke="#171717" stroke-width="1.18852" stroke-linecap="round" stroke-linejoin="round"/>
<path d="M29.6535 15.041C32.506 18.3689 31.6344 21.1817 30.842 22.1721C27.0783 26.1339 19.0358 33.8819 16.9756 33.1802C14.4003 32.303 13.6083 27.5205 14.7968 25.1434C15.6405 23.4561 15.9227 20.3962 15.9756 18.6209C15.9876 18.2162 16.037 17.814 16.1393 17.4222L19.2779 5.39078C19.4462 4.74557 19.9532 4.24367 20.6001 4.08195C21.3869 3.88527 22.2069 4.23044 22.6274 4.92388C24.2797 7.64891 27.2009 12.1797 29.6535 15.041Z" fill="#594637" stroke="#171717" stroke-width="1.18852" stroke-linecap="round" stroke-linejoin="round"/>
<path d="M27.0403 16.7765C29.1883 20.2655 28.532 23.2145 27.9353 24.2529C25.101 28.4064 19.0445 36.5295 17.493 35.7938C15.5536 34.8742 13.3077 28.8245 14.2028 26.3324C14.8251 24.5997 15.0417 21.4867 15.0878 19.6107C15.1001 19.1104 15.1768 18.6136 15.332 18.1378L19.2294 6.18433C19.3573 5.79222 19.661 5.4824 20.0506 5.34683C20.7092 5.11761 21.4317 5.43913 21.7096 6.07871C22.9464 8.92488 25.1736 13.7446 27.0403 16.7765Z" fill="#FFA4A4" stroke="#171717" stroke-width="1.18852" stroke-linecap="round" stroke-linejoin="round"/>
<rect x="16.7368" y="24.5493" width="45.1639" height="46.3525" rx="13.668" fill="#B58A5D" stroke="#171717" stroke-width="1.18852"/>
<rect x="21.6454" y="24.4579" width="35.8386" height="42.9697" rx="11.5653" fill="#7C5226" stroke="#171717" stroke-width="1.00567"/>
<g clip-path="url(#clip0_360_22812)">
<rect x="26.0742" y="45.3477" width="27.3361" height="30.9016" rx="9.5082" fill="#F43F38"/>
<path d="M49.6743 76.8164C48.6116 76.8164 47.7505 75.9543 47.7505 74.8916L47.7505 70.7803C47.7505 70.5597 47.7876 70.3405 47.8618 70.1328L48.8853 67.2676C49.15 66.5265 50.1986 66.5265 50.4634 67.2676L51.4868 70.1328C51.561 70.3405 51.5991 70.5597 51.5991 70.7803L51.5991 74.8916C51.5991 75.9544 50.7371 76.8164 49.6743 76.8164Z" fill="#FFFDFD" stroke="#171717" stroke-width="1.13193"/>
<path d="M45.5994 76.8164C44.5367 76.8164 43.6755 75.9543 43.6755 74.8916L43.6755 72.4961C43.6755 72.1974 43.7451 71.902 43.8787 71.6348L44.8503 69.6914C45.159 69.074 46.0397 69.074 46.3484 69.6914L47.321 71.6348C47.4546 71.902 47.5242 72.1974 47.5242 72.4961L47.5242 74.8916C47.5242 75.9544 46.6621 76.8164 45.5994 76.8164Z" fill="#FFFDFD" stroke="#171717" stroke-width="1.13193"/>
<path d="M41.5244 76.8164C40.4617 76.8164 39.6006 75.9543 39.6006 74.8916L39.6006 72.4961C39.6006 72.1974 39.6701 71.902 39.8037 71.6348L40.7754 69.6914C41.0841 69.074 41.9647 69.074 42.2734 69.6914L43.2461 71.6348C43.3797 71.902 43.4492 72.1974 43.4492 72.4961L43.4492 74.8916C43.4492 75.9544 42.5872 76.8164 41.5244 76.8164Z" fill="#FFFDFD" stroke="#171717" stroke-width="1.13193"/>
<path d="M37.4497 76.8164C36.387 76.8164 35.5259 75.9543 35.5259 74.8916L35.5259 72.4961C35.5259 72.1974 35.5954 71.902 35.729 71.6348L36.7007 69.6914C37.0094 69.074 37.89 69.074 38.1987 69.6914L39.1714 71.6348C39.305 71.902 39.3745 72.1974 39.3745 72.4961L39.3745 74.8916C39.3745 75.9544 38.5125 76.8164 37.4497 76.8164Z" fill="#FFFDFD" stroke="#171717" stroke-width="1.13193"/>
<path d="M33.3745 76.8164C32.3118 76.8164 31.4507 75.9543 31.4507 74.8916L31.4507 72.4961C31.4507 72.1974 31.5202 71.902 31.6538 71.6348L32.6255 69.6914C32.9342 69.074 33.8148 69.074 34.1235 69.6914L35.0962 71.6348C35.2298 71.902 35.2993 72.1974 35.2993 72.4961L35.2993 74.8916C35.2993 75.9544 34.4373 76.8164 33.3745 76.8164Z" fill="#FFFDFD" stroke="#171717" stroke-width="1.13193"/>
<path d="M29.2998 76.8164C28.2371 76.8164 27.376 75.9543 27.376 74.8916L27.376 70.7803C27.376 70.5597 27.4131 70.3405 27.4873 70.1328L28.5107 67.2676C28.7755 66.5265 29.8241 66.5265 30.0889 67.2676L31.1123 70.1328C31.1865 70.3405 31.2246 70.5597 31.2246 70.7803L31.2246 74.8916C31.2246 75.9544 30.3626 76.8164 29.2998 76.8164Z" fill="#FFFDFD" stroke="#171717" stroke-width="1.13193"/>
<path d="M47.5365 60.3146C47.1338 58.7039 47.3623 55.9179 47.7138 53.5236C47.9765 51.7347 46.7699 50.0123 44.967 50.149C44.1761 50.2089 43.3264 50.3352 42.5148 50.574C41.0461 51.0061 39.283 51.0061 37.8143 50.574C37.0331 50.3442 36.2167 50.2186 35.4514 50.156C33.6169 50.006 32.4012 51.7831 32.6671 53.6044C32.9881 55.8025 33.1751 58.4022 32.7926 60.3146C32.0166 64.1946 34.3446 70.4025 39.7765 70.4025C45.2085 70.4025 48.7078 65 47.5365 60.3146Z" fill="#FFA4A4" stroke="#171717" stroke-width="1.55199" stroke-linecap="round" stroke-linejoin="round"/>
<path d="M29.8096 48.3472C30.8723 48.3472 31.7334 49.2093 31.7334 50.272V54.3833C31.7334 54.6038 31.6962 54.8231 31.6221 55.0308L30.5986 57.896C30.3339 58.6371 29.2853 58.637 29.0205 57.896L27.9971 55.0308C27.9229 54.8231 27.8848 54.6038 27.8848 54.3833V50.272C27.8848 49.2092 28.7468 48.3472 29.8096 48.3472Z" fill="#FFFDFD" stroke="#171717" stroke-width="1.13193"/>
<path d="M33.8845 48.3472C34.9472 48.3472 35.8083 49.2093 35.8083 50.272V52.6675C35.8083 52.9662 35.7388 53.2616 35.6052 53.5288L34.6335 55.4722C34.3249 56.0895 33.4442 56.0895 33.1355 55.4722L32.1628 53.5288C32.0292 53.2616 31.9597 52.9662 31.9597 52.6675V50.272C31.9597 49.2092 32.8218 48.3472 33.8845 48.3472Z" fill="#FFFDFD" stroke="#171717" stroke-width="1.13193"/>
<path d="M37.9595 48.3472C39.0222 48.3472 39.8833 49.2093 39.8833 50.272V52.6675C39.8833 52.9662 39.8138 53.2616 39.6802 53.5288L38.7085 55.4722C38.3998 56.0895 37.5191 56.0895 37.2104 55.4722L36.2378 53.5288C36.1042 53.2616 36.0347 52.9662 36.0347 52.6675V50.272C36.0347 49.2092 36.8967 48.3472 37.9595 48.3472Z" fill="#FFFDFD" stroke="#171717" stroke-width="1.13193"/>
<path d="M42.0344 48.3472C43.0971 48.3472 43.9583 49.2093 43.9583 50.272V52.6675C43.9583 52.9662 43.8887 53.2616 43.7551 53.5288L42.7834 55.4722C42.4748 56.0895 41.5941 56.0895 41.2854 55.4722L40.3127 53.5288C40.1791 53.2616 40.1096 52.9662 40.1096 52.6675V50.272C40.1096 49.2092 40.9717 48.3472 42.0344 48.3472Z" fill="#FFFDFD" stroke="#171717" stroke-width="1.13193"/>
<path d="M46.1094 48.3472C47.1721 48.3472 48.0332 49.2093 48.0332 50.272V52.6675C48.0332 52.9662 47.9637 53.2616 47.8301 53.5288L46.8584 55.4722C46.5497 56.0895 45.669 56.0895 45.3604 55.4722L44.3877 53.5288C44.2541 53.2616 44.1846 52.9662 44.1846 52.6675V50.272C44.1846 49.2092 45.0466 48.3472 46.1094 48.3472Z" fill="#FFFDFD" stroke="#171717" stroke-width="1.13193"/>
<path d="M50.1843 48.3472C51.247 48.3472 52.1082 49.2093 52.1082 50.272V54.3833C52.1081 54.6038 52.071 54.8231 51.9968 55.0308L50.9734 57.896C50.7086 58.6371 49.6601 58.637 49.3953 57.896L48.3718 55.0308C48.2977 54.8231 48.2595 54.6038 48.2595 54.3833V50.272C48.2595 49.2092 49.1216 48.3472 50.1843 48.3472Z" fill="#FFFDFD" stroke="#171717" stroke-width="1.13193"/>
</g>
<rect x="26.6437" y="45.9172" width="26.1971" height="29.7626" rx="8.9387" stroke="#171717" stroke-width="1.139"/>
<path d="M35.4053 19.7949H43.7246C51.2732 19.795 57.3926 25.9143 57.3926 33.4629V40.5938C57.3925 46.8295 52.3374 51.8848 46.1016 51.8848H33.0283C26.7925 51.8848 21.7374 46.8295 21.7373 40.5938V33.4629C21.7373 25.9142 27.8566 19.7949 35.4053 19.7949Z" fill="#594637" stroke="#171717" stroke-width="1.18852"/>
<circle cx="50.4005" cy="34.6527" r="2.97149" fill="#FFFDFD" stroke="#171717" stroke-width="1.18859"/>
<circle cx="3.56578" cy="3.56578" r="2.97149" transform="matrix(-1 0 0 1 33.0176 31.0869)" fill="#FFFDFD" stroke="#171717" stroke-width="1.18859"/>
<circle cx="1.18852" cy="1.18852" r="1.18852" transform="matrix(-1 0 0 1 30.6401 33.4639)" fill="#171717"/>
<circle cx="1.18852" cy="1.18852" r="1.18852" transform="matrix(-1 0 0 1 52.0337 33.4639)" fill="#171717"/>
<rect x="46.4509" y="30.8962" width="7.59538" height="1.77022" rx="0.885111" transform="rotate(-13.9073 46.4509 30.8962)" fill="#171717" stroke="#171717" stroke-width="0.595489"/>
<rect x="-0.36058" y="0.217453" width="7.59538" height="1.77022" rx="0.885111" transform="matrix(-0.970686 -0.240352 -0.240352 0.970686 32.5577 30.5984)" fill="#171717" stroke="#171717" stroke-width="0.595489"/>
<path d="M39.5537 35.2466C44.8049 35.2466 49.0615 39.5032 49.0615 44.7544V44.9526C49.0614 47.4687 47.022 49.5083 44.5059 49.5083H34.6016C32.0854 49.5083 30.046 47.4687 30.0459 44.9526V44.7544C30.0459 39.5032 34.3025 35.2466 39.5537 35.2466Z" fill="#3E2E22" stroke="#171717" stroke-width="1.18852"/>
<path d="M35.7971 38.8387C36.6531 39.0013 37.2374 39.8305 37.1017 40.6912L36.8864 42.0561C36.8353 42.3803 36.5319 42.5938 36.2095 42.5326L34.2773 42.1654C33.9549 42.1041 33.7355 41.7912 33.7866 41.467L34.0019 40.1021C34.1378 39.2415 34.9412 38.6761 35.7971 38.8387Z" stroke="#171717" stroke-width="1.18852"/>
<path d="M43.0192 38.8751C43.8596 38.628 44.7091 39.1173 44.9169 39.9683L45.2388 41.287C45.3166 41.6057 45.1248 41.9395 44.8102 42.0323L42.9065 42.5922C42.5916 42.6847 42.2736 42.5008 42.1958 42.1819L41.8739 40.8632C41.6661 40.0122 42.1788 39.1223 43.0192 38.8751Z" stroke="#171717" stroke-width="1.18852"/>
<defs>
<clipPath id="clip0_360_22812">
<rect x="26.0742" y="45.3477" width="27.3361" height="30.9016" rx="9.5082" fill="white"/>
</clipPath>
</defs>
</svg>
