<svg width="81" height="80" viewBox="0 0 81 80" fill="none" xmlns="http://www.w3.org/2000/svg">
<rect x="0.9375" y="0.9375" width="79.125" height="78.125" rx="4.0625" fill="#E1F5FF"/>
<mask id="path-2-outside-1_383_32375" maskUnits="userSpaceOnUse" x="27.625" y="22.3291" width="34" height="17" fill="black">
<rect fill="white" x="27.625" y="22.3291" width="34" height="17"/>
<path d="M57.75 24.3291C58.9925 24.3291 59.9998 25.3367 60 26.5791V35.375C60 36.6176 58.9926 37.625 57.75 37.625H36.8076C35.8706 37.625 35.032 37.044 34.7021 36.167L33.4414 32.8154C33.1671 32.0861 32.535 31.5501 31.7705 31.3994L31.4404 31.335C30.3857 31.1272 29.625 30.202 29.625 29.127V26.5791C29.6252 25.3367 30.6325 24.3291 31.875 24.3291H57.75ZM36.9482 26.9883C36.1658 26.9883 35.5313 27.6229 35.5312 28.4053V32.3867C35.5313 33.0652 36.0125 33.6484 36.6787 33.7773L36.9814 33.8359C37.3791 33.913 37.7253 34.1563 37.9316 34.5049L38.5791 35.6006C38.8341 36.0314 39.2982 36.2959 39.7988 36.2959H56.7998C57.868 36.2956 58.552 35.1573 58.0508 34.2139L54.6113 27.7402C54.3655 27.2777 53.8841 26.9884 53.3604 26.9883H36.9482Z"/>
</mask>
<path d="M57.75 24.3291C58.9925 24.3291 59.9998 25.3367 60 26.5791V35.375C60 36.6176 58.9926 37.625 57.75 37.625H36.8076C35.8706 37.625 35.032 37.044 34.7021 36.167L33.4414 32.8154C33.1671 32.0861 32.535 31.5501 31.7705 31.3994L31.4404 31.335C30.3857 31.1272 29.625 30.202 29.625 29.127V26.5791C29.6252 25.3367 30.6325 24.3291 31.875 24.3291H57.75ZM36.9482 26.9883C36.1658 26.9883 35.5313 27.6229 35.5312 28.4053V32.3867C35.5313 33.0652 36.0125 33.6484 36.6787 33.7773L36.9814 33.8359C37.3791 33.913 37.7253 34.1563 37.9316 34.5049L38.5791 35.6006C38.8341 36.0314 39.2982 36.2959 39.7988 36.2959H56.7998C57.868 36.2956 58.552 35.1573 58.0508 34.2139L54.6113 27.7402C54.3655 27.2777 53.8841 26.9884 53.3604 26.9883H36.9482Z" fill="#8E8A7F"/>
<path d="M57.75 24.3291V23.2041V23.2041V24.3291ZM60 26.5791H61.125V26.5789L60 26.5791ZM60 35.375L61.125 35.375V35.375H60ZM57.75 37.625V38.75V38.75V37.625ZM36.8076 37.625L36.8076 38.75H36.8076V37.625ZM34.7021 36.167L35.7551 35.7709L35.7551 35.7709L34.7021 36.167ZM33.4414 32.8154L32.3884 33.2114L32.3884 33.2115L33.4414 32.8154ZM31.7705 31.3994L31.9881 30.2957L31.9861 30.2953L31.7705 31.3994ZM31.4404 31.335L31.223 32.4388L31.2248 32.4391L31.4404 31.335ZM29.625 26.5791L28.5 26.5789V26.5791H29.625ZM31.875 24.3291V23.2041V23.2041V24.3291ZM35.5312 28.4053L34.4062 28.4053V28.4053H35.5312ZM35.5312 32.3867H34.4062V32.3869L35.5312 32.3867ZM36.6787 33.7773L36.4649 34.8818L36.4649 34.8818L36.6787 33.7773ZM36.9814 33.8359L37.1953 32.7315L37.1952 32.7314L36.9814 33.8359ZM37.9316 34.5049L38.9002 33.9326L38.8997 33.9318L37.9316 34.5049ZM38.5791 35.6006L37.6106 36.1729L37.611 36.1737L38.5791 35.6006ZM56.7998 36.2959V37.4209H56.8001L56.7998 36.2959ZM58.0508 34.2139L57.0573 34.7417L57.0573 34.7417L58.0508 34.2139ZM54.6113 27.7402L55.6048 27.2124L55.6047 27.2123L54.6113 27.7402ZM53.3604 26.9883L53.3607 25.8633H53.3604V26.9883ZM57.75 24.3291V25.4541C58.371 25.4541 58.8749 25.9578 58.875 26.5793L60 26.5791L61.125 26.5789C61.1246 24.7155 59.614 23.2041 57.75 23.2041V24.3291ZM60 26.5791H58.875V35.375H60H61.125V26.5791H60ZM60 35.375L58.875 35.375C58.875 35.9963 58.3713 36.5 57.75 36.5V37.625V38.75C59.614 38.75 61.125 37.239 61.125 35.375L60 35.375ZM57.75 37.625V36.5H36.8076V37.625V38.75H57.75V37.625ZM36.8076 37.625L36.8077 36.5C36.3395 36.5 35.9202 36.2098 35.7551 35.7709L34.7021 36.167L33.6492 36.5631C34.1439 37.8783 35.4016 38.75 36.8076 38.75L36.8076 37.625ZM34.7021 36.167L35.7551 35.7709L34.4944 32.4193L33.4414 32.8154L32.3884 33.2115L33.6492 36.5631L34.7021 36.167ZM33.4414 32.8154L34.4944 32.4194C34.0831 31.3258 33.1352 30.5218 31.9881 30.2957L31.7705 31.3994L31.5529 32.5032C31.9348 32.5784 32.2511 32.8464 32.3884 33.2114L33.4414 32.8154ZM31.7705 31.3994L31.9861 30.2953L31.656 30.2308L31.4404 31.335L31.2248 32.4391L31.5549 32.5036L31.7705 31.3994ZM31.4404 31.335L31.6578 30.2312C31.1305 30.1273 30.75 29.6645 30.75 29.127H29.625H28.5C28.5 30.7394 29.6408 32.1271 31.223 32.4388L31.4404 31.335ZM29.625 29.127H30.75V26.5791H29.625H28.5V29.127H29.625ZM29.625 26.5791L30.75 26.5793C30.7501 25.9578 31.254 25.4541 31.875 25.4541V24.3291V23.2041C30.011 23.2041 28.5004 24.7155 28.5 26.5789L29.625 26.5791ZM31.875 24.3291V25.4541H57.75V24.3291V23.2041H31.875V24.3291ZM36.9482 26.9883V25.8633C35.5445 25.8633 34.4063 27.0016 34.4062 28.4053L35.5312 28.4053L36.6562 28.4053C36.6563 28.2442 36.7872 28.1133 36.9482 28.1133V26.9883ZM35.5312 28.4053H34.4062V32.3867H35.5312H36.6562V28.4053H35.5312ZM35.5312 32.3867L34.4062 32.3869C34.4064 33.6043 35.2698 34.6505 36.4649 34.8818L36.6787 33.7773L36.8925 32.6728C36.7553 32.6463 36.6563 32.5262 36.6562 32.3866L35.5312 32.3867ZM36.6787 33.7773L36.4649 34.8818L36.7677 34.9404L36.9814 33.8359L37.1952 32.7314L36.8925 32.6728L36.6787 33.7773ZM36.9814 33.8359L36.7676 34.9404C36.8504 34.9565 36.9215 35.007 36.9635 35.0779L37.9316 34.5049L38.8997 33.9318C38.5291 33.3056 37.9079 32.8694 37.1953 32.7315L36.9814 33.8359ZM37.9316 34.5049L36.9631 35.0772L37.6106 36.1729L38.5791 35.6006L39.5476 35.0283L38.9002 33.9326L37.9316 34.5049ZM38.5791 35.6006L37.611 36.1737C38.0686 36.9466 38.9007 37.4209 39.7988 37.4209V36.2959V35.1709C39.6957 35.1709 39.5996 35.1161 39.5472 35.0275L38.5791 35.6006ZM39.7988 36.2959V37.4209H56.7998V36.2959V35.1709H39.7988V36.2959ZM56.7998 36.2959L56.8001 37.4209C58.7167 37.4203 59.9436 35.3786 59.0443 33.686L58.0508 34.2139L57.0573 34.7417C57.1605 34.936 57.0193 35.1708 56.7995 35.1709L56.7998 36.2959ZM58.0508 34.2139L59.0443 33.686L55.6048 27.2124L54.6113 27.7402L53.6178 28.2681L57.0573 34.7417L58.0508 34.2139ZM54.6113 27.7402L55.6047 27.2123C55.1636 26.3823 54.3002 25.8635 53.3607 25.8633L53.3604 26.9883L53.36 28.1133C53.468 28.1133 53.5674 28.1731 53.6179 28.2682L54.6113 27.7402ZM53.3604 26.9883V25.8633H36.9482V26.9883V28.1133H53.3604V26.9883Z" fill="black" mask="url(#path-2-outside-1_383_32375)"/>
<path d="M7.30468 35.7449C7.34997 34.9905 6.96307 34.1873 6.47113 33.4988C6.07041 32.9379 6.44127 32 7.13056 32H11.2656C11.6712 32 12 32.3288 12 32.7344V57.2656C12 57.6712 11.6712 58 11.2656 58H6.95198C6.2844 58 5.91754 57.1322 6.30232 56.5867C6.84083 55.8232 7.30468 54.9104 7.30468 54.0794C7.30468 52.2222 5.65749 49.746 5.0809 45.8254C4.50431 41.9048 7.19503 37.5714 7.30468 35.7449Z" fill="#2D2C2A" stroke="#171717" stroke-width="1.125" stroke-linecap="round" stroke-linejoin="round"/>
<path d="M52.6455 32.5625H69.125C69.4357 32.5625 69.6875 32.8143 69.6875 33.125V53.375C69.6875 53.6857 69.4357 53.9375 69.125 53.9375H41C40.6893 53.9375 40.4375 53.6857 40.4375 53.375V36.5869C40.4375 36.2763 40.6893 36.0244 41 36.0244H46.5107C46.8295 36.0244 47.1416 35.9338 47.4111 35.7637L52.3457 32.6494C52.4355 32.5928 52.5394 32.5625 52.6455 32.5625Z" fill="#5F5C53" stroke="#171717" stroke-width="1.125"/>
<path d="M75.6553 29.8076C76.0262 29.6501 76.4375 29.9222 76.4375 30.3252V39.2998C76.4375 39.7028 76.0262 39.9749 75.6553 39.8174L70.0303 37.4287C69.8226 37.3405 69.6876 37.1367 69.6875 36.9111V32.7139C69.6876 32.4883 69.8226 32.2845 70.0303 32.1963L75.6553 29.8076Z" fill="#8E8A7F" stroke="#171717" stroke-width="1.125"/>
<rect x="32.5625" y="37.0625" width="7.875" height="14.625" rx="0.5625" fill="#8E8A7F" stroke="#171717" stroke-width="1.125"/>
<rect x="22.4375" y="37.0625" width="4.5" height="14.625" rx="0.5625" fill="#8E8A7F" stroke="#171717" stroke-width="1.125"/>
<path d="M12.3125 35.6494C12.3127 35.2902 12.6452 35.0233 12.9961 35.1006L21.9961 37.083C22.2539 37.1398 22.4375 37.3688 22.4375 37.6328V52.2422C22.4375 52.5062 22.2539 52.7352 21.9961 52.792L12.9961 54.7744C12.6452 54.8517 12.3127 54.5848 12.3125 54.2256V35.6494Z" fill="#2D2C2A" stroke="#171717" stroke-width="1.125"/>
<rect x="48.3125" y="38.1875" width="18" height="10.125" rx="1.6875" fill="#8E8A7F" stroke="#171717" stroke-width="1.125"/>
<path d="M24.9043 23.6533C25.1638 23.6038 25.4315 23.6157 25.6855 23.6885L28.3398 24.4482C29.0637 24.6556 29.5625 25.3183 29.5625 26.0713V30.9287C29.5625 31.6817 29.0637 32.3444 28.3398 32.5518L25.6855 33.3115C25.4315 33.3843 25.1638 33.3962 24.9043 33.3467L20.0586 32.4219C19.2631 32.2699 18.6875 31.5736 18.6875 30.7637V26.2363C18.6875 25.4264 19.2631 24.7301 20.0586 24.5781L24.9043 23.6533Z" fill="#2D2C2A" stroke="#171717" stroke-width="1.125"/>
<rect x="27.0571" y="37.0625" width="5.50522" height="14.625" rx="0.5625" fill="#8E8A7F" stroke="#171717" stroke-width="1.125"/>
<line x1="26.375" y1="38.8359" x2="33.0052" y2="38.8359" stroke="#171717" stroke-width="1.125"/>
<line x1="26.375" y1="45.5859" x2="33.0052" y2="45.5859" stroke="#171717" stroke-width="1.125"/>
<line x1="26.375" y1="41.0859" x2="33.0052" y2="41.0859" stroke="#171717" stroke-width="1.125"/>
<line x1="26.375" y1="47.8359" x2="33.0052" y2="47.8359" stroke="#171717" stroke-width="1.125"/>
<line x1="26.375" y1="43.3359" x2="33.0052" y2="43.3359" stroke="#171717" stroke-width="1.125"/>
<line x1="26.375" y1="50.0859" x2="33.0052" y2="50.0859" stroke="#171717" stroke-width="1.125"/>
<circle cx="53.9375" cy="43.25" r="2.8125" fill="#F43F38" stroke="#171717" stroke-width="1.125"/>
</svg>
