<svg preserveAspectRatio="none" width="100%" height="100%" overflow="visible" style="display: block;" viewBox="0 0 79.8193 0.438568" fill="none" xmlns="http://www.w3.org/2000/svg">
<g id="Rectangle 13">
<mask id="path-1-inside-1_413_10528" fill="white">
<path fill-rule="evenodd" clip-rule="evenodd" d="M0.0268651 0C0.00900577 0.145534 0 0.291738 0 0.438568V0H0.0268651ZM79.8193 0.438568V0H79.7924C79.8103 0.145534 79.8193 0.291738 79.8193 0.438568Z"/>
</mask>
<path d="M0.0268651 0L2.01197 0.243603L2.2873 -2H0.0268651V0ZM0 0V-2H-2V0H0ZM79.8193 0H81.8193V-2H79.8193V0ZM79.7924 0V-2H77.532L77.8073 0.243626L79.7924 0ZM0.0268651 0L-1.95824 -0.243603C-1.98595 -0.017811 -2 0.209743 -2 0.438568H0H2C2 0.373733 2.00396 0.30888 2.01197 0.243603L0.0268651 0ZM0 0.438568H2V0H0H-2V0.438568H0ZM0 0V2H0.0268651V0V-2H0V0ZM79.8193 0.438568H81.8193V0H79.8193H77.8193V0.438568H79.8193ZM79.8193 0V-2H79.7924V0V2H79.8193V0ZM79.7924 0L77.8073 0.243626C77.8153 0.308903 77.8193 0.373749 77.8193 0.438568H79.8193H81.8193C81.8193 0.209728 81.8052 -0.0178338 81.7775 -0.243626L79.7924 0Z" fill="var(--stroke-0, #171717)" mask="url(#path-1-inside-1_413_10528)"/>
</g>
</svg>
