<svg preserveAspectRatio="none" width="100%" height="100%" overflow="visible" style="display: block;" viewBox="0 0 24 24" fill="none" xmlns="http://www.w3.org/2000/svg">
<g id="arrow_forward_ios">
<mask id="mask0_427_19400" style="mask-type:alpha" maskUnits="userSpaceOnUse" x="0" y="0" width="24" height="24">
<rect id="Bounding box" width="24" height="24" fill="var(--fill-0, #D9D9D9)"/>
</mask>
<g mask="url(#mask0_427_19400)">
<path id="arrow_forward_ios_2" d="M14.8307 12L7.298 4.46725C7.09933 4.26858 7.00258 4.03208 7.00775 3.75775C7.01292 3.48342 7.11483 3.24683 7.3135 3.048C7.51217 2.84933 7.74867 2.75 8.023 2.75C8.29733 2.75 8.53392 2.84933 8.73275 3.048L16.3885 10.7193C16.5692 10.9001 16.7031 11.1027 16.7902 11.327C16.8776 11.5513 16.9212 11.7757 16.9212 12C16.9212 12.2243 16.8776 12.4487 16.7902 12.673C16.7031 12.8973 16.5692 13.0999 16.3885 13.2808L8.71725 20.952C8.51858 21.1507 8.28467 21.2474 8.0155 21.2423C7.74617 21.2371 7.51217 21.1352 7.3135 20.9365C7.11483 20.7378 7.0155 20.5013 7.0155 20.227C7.0155 19.9527 7.11483 19.7161 7.3135 19.5172L14.8307 12Z" fill="var(--fill-0, #1C1B1F)"/>
</g>
</g>
</svg>
