<svg preserveAspectRatio="none" width="100%" height="100%" overflow="visible" style="display: block;" viewBox="0 0 40 40" fill="none" xmlns="http://www.w3.org/2000/svg">
<g id="close">
<mask id="mask0_427_19503" style="mask-type:alpha" maskUnits="userSpaceOnUse" x="0" y="0" width="40" height="40">
<rect id="Bounding box" width="40" height="40" fill="var(--fill-0, #D9D9D9)"/>
</mask>
<g mask="url(#mask0_427_19503)">
<path id="close_2" d="M20 21.4742L11.2629 30.2117C11.0621 30.4125 10.819 30.5156 10.5337 30.5208C10.2485 30.5261 10 30.4231 9.78833 30.2117C9.57694 30 9.47125 29.7542 9.47125 29.4742C9.47125 29.1944 9.57694 28.9488 9.78833 28.7371L18.5258 20L9.78833 11.2629C9.5875 11.0621 9.48444 10.819 9.47917 10.5337C9.47389 10.2485 9.57694 10 9.78833 9.78833C10 9.57694 10.2458 9.47125 10.5258 9.47125C10.8056 9.47125 11.0512 9.57694 11.2629 9.78833L20 18.5258L28.7371 9.78833C28.9379 9.5875 29.181 9.48444 29.4663 9.47917C29.7515 9.47389 30 9.57694 30.2117 9.78833C30.4231 10 30.5288 10.2458 30.5288 10.5258C30.5288 10.8056 30.4231 11.0512 30.2117 11.2629L21.4742 20L30.2117 28.7371C30.4125 28.9379 30.5156 29.181 30.5208 29.4663C30.5261 29.7515 30.4231 30 30.2117 30.2117C30 30.4231 29.7542 30.5288 29.4742 30.5288C29.1944 30.5288 28.9488 30.4231 28.7371 30.2117L20 21.4742Z" fill="var(--fill-0, #171717)"/>
</g>
</g>
</svg>
