<svg preserveAspectRatio="none" width="100%" height="100%" overflow="visible" style="display: block;" viewBox="0 0 40 40" fill="none" xmlns="http://www.w3.org/2000/svg">
<g id="expand_content">
<mask id="mask0_427_19424" style="mask-type:alpha" maskUnits="userSpaceOnUse" x="0" y="0" width="40" height="40">
<rect id="Bounding box" width="40" height="40" fill="var(--fill-0, #D9D9D9)"/>
</mask>
<g mask="url(#mask0_427_19424)">
<path id="expand_content_2" d="M11.2608 28.7392H17.2862C17.5829 28.7392 17.8317 28.8401 18.0325 29.0421C18.2331 29.2438 18.3333 29.4938 18.3333 29.7921C18.3333 30.0901 18.2331 30.3382 18.0325 30.5362C17.8317 30.7343 17.5829 30.8333 17.2862 30.8333H10.47C10.1008 30.8333 9.79125 30.7085 9.54125 30.4587C9.29153 30.2087 9.16667 29.8992 9.16667 29.53V22.7137C9.16667 22.4171 9.2675 22.1683 9.46917 21.9675C9.67111 21.7669 9.92111 21.6667 10.2192 21.6667C10.5175 21.6667 10.7657 21.7669 10.9637 21.9675C11.1618 22.1683 11.2608 22.4171 11.2608 22.7137V28.7392ZM28.7392 11.2608H22.7137C22.4171 11.2608 22.1683 11.1599 21.9675 10.9579C21.7669 10.7562 21.6667 10.5062 21.6667 10.2079C21.6667 9.90986 21.7669 9.66181 21.9675 9.46375C22.1683 9.26569 22.4171 9.16667 22.7137 9.16667H29.53C29.8992 9.16667 30.2087 9.29153 30.4587 9.54125C30.7085 9.79125 30.8333 10.1008 30.8333 10.47V17.2862C30.8333 17.5829 30.7325 17.8317 30.5308 18.0325C30.3289 18.2331 30.0789 18.3333 29.7808 18.3333C29.4825 18.3333 29.2343 18.2331 29.0362 18.0325C28.8382 17.8317 28.7392 17.5829 28.7392 17.2862V11.2608Z" fill="var(--fill-0, #171717)"/>
</g>
</g>
</svg>
