<svg preserveAspectRatio="none" width="100%" height="100%" overflow="visible" style="display: block;" viewBox="0 0 265.775 364.065" fill="none" xmlns="http://www.w3.org/2000/svg">
<g id="Group 64">
<path id="Ellipse 20" d="M136.575 112.064C153.62 112.064 169.006 116.075 180.096 122.434C191.218 128.81 197.826 137.417 197.826 146.564C197.826 155.702 191.23 164.059 180.11 170.187C169.021 176.299 153.631 180.064 136.575 180.064C119.525 180.064 104.011 176.176 92.795 169.939C81.5434 163.683 74.8262 155.2 74.8262 146.064C74.8262 136.929 81.5434 128.446 92.795 122.189C104.011 115.952 119.525 112.064 136.575 112.064Z" fill="var(--fill-0, #00A168)" stroke="var(--stroke-0, #171717)" stroke-width="2"/>
<path id="Ellipse 18" d="M79.916 78.7635C81.5566 78.0432 83.6628 78.4112 85.8352 79.9146C87.992 81.4073 90.0665 83.9357 91.4861 87.169C92.9058 90.4024 93.3635 93.6415 93.0027 96.2396C92.6393 98.8563 91.4848 100.656 89.8443 101.376C88.2037 102.097 86.0974 101.729 83.9251 100.225C81.7683 98.7324 79.6934 96.2033 78.2738 92.9699C76.8543 89.7366 76.3968 86.4982 76.7576 83.9002C77.121 81.2834 78.2755 79.4838 79.916 78.7635Z" fill="var(--fill-0, #FFA4A4)" stroke="var(--stroke-0, #171717)" stroke-width="2"/>
<path id="Ellipse 19" d="M189.18 78.7635C187.539 78.0432 185.433 78.4112 183.261 79.9146C181.104 81.4073 179.029 83.9357 177.61 87.169C176.19 90.4024 175.732 93.6415 176.093 96.2396C176.456 98.8563 177.611 100.656 179.252 101.376C180.892 102.097 182.998 101.729 185.171 100.225C187.328 98.7324 189.402 96.2033 190.822 92.9699C192.242 89.7366 192.699 86.4982 192.338 83.9002C191.975 81.2834 190.82 79.4838 189.18 78.7635Z" fill="var(--fill-0, #FFA4A4)" stroke="var(--stroke-0, #171717)" stroke-width="2"/>
<rect id="Rectangle 65" x="114.826" y="132.064" width="42" height="34" fill="var(--fill-0, #FFA4A4)" stroke="var(--stroke-0, #171717)" stroke-width="2"/>
<path id="Rectangle 32" d="M183.326 37.0644V94.5644C183.326 120.798 162.06 142.064 135.826 142.064C109.593 142.064 88.3262 120.798 88.3262 94.5644V37.0644H183.326Z" fill="var(--fill-0, #FFA4A4)" stroke="var(--stroke-0, #171717)" stroke-width="2"/>
<path id="Vector 61" d="M124.127 72.0327C119.44 70.8413 109.277 68.9352 106.127 70.8413" stroke="var(--stroke-0, #171717)" stroke-width="3" stroke-linecap="round"/>
<path id="Vector 62" d="M143.127 72.0327C147.815 70.8413 157.977 68.9352 161.127 70.8413" stroke="var(--stroke-0, #171717)" stroke-width="3" stroke-linecap="round"/>
<path id="Vector 41" d="M129.826 87.0644C127.863 92.2819 124.525 103.552 126.881 106.891C129.237 110.23 138.16 108.282 142.326 106.891" stroke="var(--stroke-0, #171717)" stroke-width="2" stroke-linecap="round"/>
<path id="Vector 40" d="M89.8276 78.0642C88.2276 81.2642 82.8276 77.7309 80.3276 75.5642C73.3276 59.064 81.8276 38.5642 84.0576 31.2804C85.8416 25.4534 95.3143 20.7085 99.8276 19.0644C102.228 -3.33556 144.161 -0.268898 164.828 4.06444V7.56444C172.428 8.76444 182.148 18.3978 186.058 23.0644L182.112 26.665C189.896 36.766 191.828 70.564 186.058 76.9492C180.288 83.3344 177.828 75.5642 179.051 66.463C180.274 57.3618 173.328 44.5638 169.936 42.4422C166.544 40.3206 139.328 33.0638 148.713 42.1652C158.098 51.2666 157.328 49.0642 144.774 49.0102C132.22 48.9562 112.828 36.0642 101.828 38.5642C90.8276 41.0642 91.8276 74.0642 89.8276 78.0642Z" fill="var(--fill-0, #43280D)" stroke="var(--stroke-0, #171717)" stroke-width="2" stroke-linejoin="round"/>
<g id="Group 50">
<g id="Union">
<mask id="path-10-inside-1_488_24001" fill="white">
<path d="M88.7599 149.849C89.4042 151.201 90.7683 152.062 92.2659 152.062H177.928C179.377 152.062 180.698 151.229 181.322 149.92C182.199 148.078 184.386 147.273 186.248 148.104L216.806 161.746C220.165 163.246 222.905 165.857 224.564 169.14L264.055 247.28C267.035 253.177 266.084 260.299 261.661 265.207L218.73 312.854C215.884 316.013 214.472 320.174 214.523 324.426C214.551 326.752 214.491 328.611 214.33 329.929C213.136 339.723 211.304 347.614 209.694 353.235C207.954 359.312 202.257 363.062 195.936 363.062H71.8895C67.1036 363.062 62.8046 360.709 61.3728 356.143C59.8289 351.218 57.9328 343.072 56.3301 329.929C56.1686 328.604 56.0691 326.995 56.026 325.132C55.9313 321.047 54.5436 317.074 51.8205 314.028L0.00238464 256.067C0.00213624 256.066 0.00181773 256.066 0.00146416 256.066C0.000211819 256.066 -0.000367599 256.064 0.000246984 256.063L45.4115 169.738C47.0185 166.684 49.5703 164.23 52.686 162.745L83.5825 148.014C85.5189 147.091 87.8371 147.913 88.7599 149.849Z"/>
</mask>
<path d="M88.7599 149.849C89.4042 151.201 90.7683 152.062 92.2659 152.062H177.928C179.377 152.062 180.698 151.229 181.322 149.92C182.199 148.078 184.386 147.273 186.248 148.104L216.806 161.746C220.165 163.246 222.905 165.857 224.564 169.14L264.055 247.28C267.035 253.177 266.084 260.299 261.661 265.207L218.73 312.854C215.884 316.013 214.472 320.174 214.523 324.426C214.551 326.752 214.491 328.611 214.33 329.929C213.136 339.723 211.304 347.614 209.694 353.235C207.954 359.312 202.257 363.062 195.936 363.062H71.8895C67.1036 363.062 62.8046 360.709 61.3728 356.143C59.8289 351.218 57.9328 343.072 56.3301 329.929C56.1686 328.604 56.0691 326.995 56.026 325.132C55.9313 321.047 54.5436 317.074 51.8205 314.028L0.00238464 256.067C0.00213624 256.066 0.00181773 256.066 0.00146416 256.066C0.000211819 256.066 -0.000367599 256.064 0.000246984 256.063L45.4115 169.738C47.0185 166.684 49.5703 164.23 52.686 162.745L83.5825 148.014C85.5189 147.091 87.8371 147.913 88.7599 149.849Z" fill="var(--fill-0, #00A168)"/>
<path d="M214.33 329.929L216.315 330.171V330.171L214.33 329.929ZM56.3301 329.929L54.3448 330.171V330.171L56.3301 329.929ZM83.5826 148.014L82.7218 146.209L83.5826 148.014ZM88.7599 149.849L90.5654 148.989L88.7599 149.849ZM51.8205 314.028L53.3115 312.695L51.8205 314.028ZM61.3728 356.143L63.2812 355.544L61.3728 356.143ZM209.694 353.235L211.617 353.786L209.694 353.235ZM218.73 312.854L217.244 311.515L218.73 312.854ZM264.055 247.28L262.27 248.182L264.055 247.28ZM261.661 265.207L260.176 263.868L261.661 265.207ZM216.806 161.746L215.991 163.573L216.806 161.746ZM224.564 169.14L222.779 170.042L224.564 169.14ZM181.322 149.92L179.516 149.06L181.322 149.92ZM186.248 148.104L185.433 149.931L186.248 148.104ZM0.00146416 256.066L-0.630991 257.963L0.00146416 256.066ZM0.000246984 256.063L1.77028 256.994L0.000246984 256.063ZM0.00238464 256.067L-1.48863 257.4L0.00238464 256.067ZM92.2659 152.062V154.062H177.928V152.062V150.062H92.2659V152.062ZM186.248 148.104L185.433 149.931L215.991 163.573L216.806 161.746L217.622 159.92L187.064 146.278L186.248 148.104ZM224.564 169.14L222.779 170.042L262.27 248.182L264.055 247.28L265.84 246.378L226.349 168.238L224.564 169.14ZM261.661 265.207L260.176 263.868L217.244 311.515L218.73 312.854L220.216 314.193L263.147 266.546L261.661 265.207ZM214.523 324.426L212.523 324.45C212.551 326.75 212.489 328.503 212.345 329.687L214.33 329.929L216.315 330.171C216.492 328.719 216.551 326.755 216.523 324.402L214.523 324.426ZM214.33 329.929L212.345 329.687C211.165 339.366 209.356 347.153 207.772 352.684L209.694 353.235L211.617 353.786C213.252 348.075 215.107 340.08 216.315 330.171L214.33 329.929ZM195.936 363.062V361.062H71.8895V363.062V365.062H195.936V363.062ZM61.3728 356.143L63.2812 355.544C61.7836 350.767 59.908 342.747 58.3154 329.687L56.3301 329.929L54.3448 330.171C55.9576 343.397 57.8742 351.669 59.4644 356.741L61.3728 356.143ZM56.3301 329.929L58.3154 329.687C58.1645 328.449 58.0677 326.91 58.0254 325.085L56.026 325.132L54.0265 325.178C54.0706 327.079 54.1727 328.759 54.3448 330.171L56.3301 329.929ZM51.8205 314.028L53.3115 312.695L1.4934 254.734L0.00238464 256.067L-1.48863 257.4L50.3295 315.361L51.8205 314.028ZM0.000246984 256.063L1.77028 256.994L47.1815 170.67L45.4115 169.738L43.6415 168.807L-1.76978 255.132L0.000246984 256.063ZM52.686 162.745L53.5467 164.55L84.4433 149.82L83.5826 148.014L82.7218 146.209L51.8252 160.94L52.686 162.745ZM83.5826 148.014L84.4433 149.82C85.3825 149.372 86.5069 149.77 86.9545 150.71L88.7599 149.849L90.5654 148.989C89.1674 146.055 85.6554 144.81 82.7218 146.209L83.5826 148.014ZM45.4115 169.738L47.1815 170.67C48.5876 167.997 50.8204 165.85 53.5467 164.55L52.686 162.745L51.8252 160.94C48.3201 162.611 45.4493 165.371 43.6415 168.807L45.4115 169.738ZM56.026 325.132L58.0254 325.085C57.9212 320.587 56.3905 316.139 53.3115 312.695L51.8205 314.028L50.3295 315.361C52.6966 318.008 53.9414 321.507 54.0265 325.178L56.026 325.132ZM71.8895 363.062V361.062C67.7198 361.062 64.3818 359.055 63.2812 355.544L61.3728 356.143L59.4644 356.741C61.2274 362.364 66.4873 365.062 71.8895 365.062V363.062ZM209.694 353.235L207.772 352.684C206.31 357.789 201.49 361.062 195.936 361.062V363.062V365.062C203.024 365.062 209.598 360.835 211.617 353.786L209.694 353.235ZM218.73 312.854L217.244 311.515C214.028 315.084 212.467 319.748 212.523 324.45L214.523 324.426L216.523 324.402C216.478 320.601 217.74 316.941 220.216 314.193L218.73 312.854ZM264.055 247.28L262.27 248.182C264.877 253.342 264.045 259.573 260.176 263.868L261.661 265.207L263.147 266.546C268.123 261.024 269.192 253.012 265.84 246.378L264.055 247.28ZM216.806 161.746L215.991 163.573C218.93 164.885 221.327 167.169 222.779 170.042L224.564 169.14L226.349 168.238C224.482 164.544 221.4 161.607 217.622 159.92L216.806 161.746ZM181.322 149.92L183.127 150.78C183.538 149.918 184.561 149.541 185.433 149.931L186.248 148.104L187.064 146.278C184.21 145.004 180.861 146.238 179.516 149.06L181.322 149.92ZM0.00146416 256.066L0.63392 254.169C1.80311 254.558 2.34405 255.904 1.77028 256.994L0.000246984 256.063L-1.76978 255.132C-2.34479 256.225 -1.80268 257.573 -0.630991 257.963L0.00146416 256.066ZM177.928 152.062V154.062C180.149 154.062 182.172 152.785 183.127 150.78L181.322 149.92L179.516 149.06C179.224 149.672 178.606 150.062 177.928 150.062V152.062ZM0.00238464 256.067L1.4934 254.734C1.26276 254.476 0.967224 254.28 0.63392 254.169L0.00146416 256.066L-0.630991 257.963C-0.963588 257.853 -1.25848 257.657 -1.48863 257.4L0.00238464 256.067ZM92.2659 152.062V150.062C91.5396 150.062 90.8779 149.645 90.5654 148.989L88.7599 149.849L86.9545 150.71C87.9305 152.758 89.9971 154.062 92.2659 154.062V152.062Z" fill="var(--stroke-0, #171717)" mask="url(#path-10-inside-1_488_24001)"/>
</g>
<path id="Rectangle 68" d="M69.3412 205.065C62.9957 251.214 55.3197 313.19 57.3241 329.907C58.8948 343.008 60.7521 351.147 62.268 356.081C63.6813 360.681 67.9893 363.065 72.8012 363.065H194.472C200.825 363.065 206.541 359.277 208.26 353.16C209.839 347.54 211.632 339.668 212.802 329.907C214.344 317.048 206.55 252.715 200.317 205.065" stroke="var(--stroke-0, #171717)" stroke-width="2" stroke-linecap="round"/>
</g>
<g id="Group 51">
<path id="Ellipse 21" d="M74.3262 146.064C74.3262 165.394 96.8607 181.064 130.826 181.064L112.826 146.064H74.3262Z" fill="var(--fill-0, #00A168)"/>
<path id="Ellipse 25" d="M120.326 181.064C87.0177 181.064 74.8223 165.394 74.8223 146.064" stroke="var(--stroke-0, #171717)" stroke-width="2" stroke-linecap="round"/>
<path id="Ellipse 23" d="M130.826 181.064L112.826 146.064" stroke="var(--stroke-0, #171717)" stroke-width="2" stroke-linecap="round"/>
<path id="Vector 47" d="M112.826 171.064L108.326 207.064" stroke="var(--stroke-0, #171717)" stroke-width="2" stroke-linecap="round"/>
</g>
<g id="Group 52">
<path id="Ellipse 21_2" d="M198.326 146.064C198.326 165.394 175.393 181.064 140.826 181.064L159.145 146.064H198.326Z" fill="var(--fill-0, #00A168)"/>
<path id="Ellipse 25_2" d="M151.512 181.064C185.41 181.064 197.821 165.394 197.821 146.064" stroke="var(--stroke-0, #171717)" stroke-width="2" stroke-linecap="round"/>
<path id="Ellipse 23_2" d="M140.826 181.064L159.145 146.064" stroke="var(--stroke-0, #171717)" stroke-width="2" stroke-linecap="round"/>
<path id="Vector 48" d="M156.326 171.064L160.826 207.064" stroke="var(--stroke-0, #171717)" stroke-width="2" stroke-linecap="round"/>
</g>
<g id="Group 65">
<path id="Ellipse 7" d="M114.127 77.6752C116.534 77.6752 118.681 78.1644 120.203 78.9252C121.764 79.7054 122.484 80.6647 122.484 81.5327C122.484 82.4006 121.764 83.3599 120.203 84.1401C118.681 84.9009 116.534 85.3901 114.127 85.3901C111.72 85.3901 109.573 84.9009 108.051 84.1401C106.49 83.3599 105.77 82.4006 105.77 81.5327C105.77 80.6647 106.49 79.7054 108.051 78.9252C109.573 78.1644 111.72 77.6752 114.127 77.6752Z" fill="var(--fill-0, #FFFDFD)" stroke="var(--stroke-0, #171717)" stroke-width="1.28571"/>
<circle id="Ellipse 8" cx="114.127" cy="81.5327" r="3.85714" fill="var(--fill-0, #171717)" stroke="var(--stroke-0, #171717)" stroke-width="1.28571"/>
</g>
<g id="Group 66">
<path id="Ellipse 7_2" d="M152.127 77.6752C154.534 77.6752 156.681 78.1644 158.203 78.9252C159.764 79.7054 160.484 80.6647 160.484 81.5327C160.484 82.4006 159.764 83.3599 158.203 84.1401C156.681 84.9009 154.534 85.3901 152.127 85.3901C149.72 85.3901 147.573 84.9009 146.051 84.1401C144.49 83.3599 143.77 82.4006 143.77 81.5327C143.77 80.6647 144.49 79.7054 146.051 78.9252C147.573 78.1644 149.72 77.6752 152.127 77.6752Z" fill="var(--fill-0, #FFFDFD)" stroke="var(--stroke-0, #171717)" stroke-width="1.28571"/>
<circle id="Ellipse 8_2" cx="152.127" cy="81.5327" r="3.85714" fill="var(--fill-0, #171717)" stroke="var(--stroke-0, #171717)" stroke-width="1.28571"/>
</g>
</g>
</svg>
